<svg width="19" height="18" viewBox="0 0 19 18" fill="none" xmlns="http://www.w3.org/2000/svg">
<path d="M9.5 17.205C9.22709 17.1877 9.01636 17.078 8.76764 16.9649C7.29471 16.286 5.90847 15.433 4.63859 14.4241C2.39832 12.632 0 9.82003 0 5.97772C0 4.60341 0.54594 3.2854 1.51772 2.31362C2.4895 1.34184 3.80751 0.795898 5.18182 0.795898C6.02566 0.797889 6.85701 0.999936 7.60764 1.38546C8.35828 1.77099 9.0068 2.329 9.5 3.01372C9.9932 2.329 10.6417 1.77099 11.3924 1.38546C12.143 0.999936 12.9743 0.797889 13.8182 0.795898C15.1925 0.795898 16.5105 1.34184 17.4823 2.31362C18.4541 3.2854 19 4.60341 19 5.97772C19 9.81917 16.5991 12.632 14.358 14.4241C13.0879 15.4322 11.702 16.2852 10.2298 16.9649C9.76082 17.1799 9.59759 17.205 9.5 17.205Z" fill="#CC1525"/>
</svg>
