<svg width="30" height="20" viewBox="0 0 30 20" fill="none" xmlns="http://www.w3.org/2000/svg">
<path d="M5.91561 12.0688C5.63812 12.0688 5.45312 11.8795 5.45312 11.5955V2.12979C5.45312 0.993904 6.42435 0 7.53432 0H21.9177C23.0277 0 23.9989 0.993904 23.9989 2.12979V3.59698C23.9989 3.88096 23.8139 4.07027 23.5364 4.07027C23.2589 4.07027 23.0739 3.88096 23.0739 3.59698V2.12979C23.0739 1.46719 22.5652 0.946575 21.9177 0.946575H7.53432C6.88684 0.946575 6.3781 1.46719 6.3781 2.12979V11.5955C6.3781 11.8795 6.19311 12.0688 5.91561 12.0688Z" fill="#282828" fill-opacity="0.44"/>
<path d="M28.4124 17.5549H27.3391C27.0591 17.5549 26.8724 17.363 26.8724 17.0752C26.8724 16.7873 27.0591 16.5954 27.3391 16.5954H28.4124C28.6924 16.5954 29.019 16.3555 29.019 15.9717V9.44715C29.019 9.06335 28.9257 8.82347 28.6924 8.5836L26.4058 6.23282C26.1725 6.04092 25.8458 5.897 25.5658 5.897H24.1659V13.477C24.1659 13.7649 23.9792 13.9568 23.6992 13.9568H6.38643V15.9717C6.38643 16.2596 6.61975 16.5954 6.99308 16.5954H9.04634C9.32634 16.5954 9.513 16.7873 9.513 17.0752C9.513 17.363 9.32634 17.5549 9.04634 17.5549H6.99308C6.1531 17.5549 5.45312 16.8353 5.45312 15.9717V13.477C5.45312 13.1892 5.63979 12.9973 5.91978 12.9973H23.2326V5.41725C23.2326 5.1294 23.4192 4.9375 23.6992 4.9375H25.5658C26.0791 4.9375 26.5925 5.17738 27.0591 5.5132L29.3924 7.91195C29.8124 8.34372 29.999 8.82347 29.999 9.44715V15.9717C29.9524 16.8353 29.2524 17.5549 28.4124 17.5549Z" fill="#007657"/>
<path d="M23.5322 17.5542H13.0163C12.7347 17.5542 12.5469 17.3348 12.5469 17.0056C12.5469 16.6765 12.7347 16.457 13.0163 16.457H23.5322C23.8138 16.457 24.0016 16.6765 24.0016 17.0056C24.0016 17.3348 23.8138 17.5542 23.5322 17.5542Z" fill="#282828" fill-opacity="0.44"/>
<path d="M29.5441 10.9719H23.9077C23.6349 10.9719 23.4531 10.7877 23.4531 10.5113V5.39814C23.4531 5.12176 23.6349 4.9375 23.9077 4.9375H25.7259C26.3168 4.9375 26.7714 5.12176 27.1805 5.53634L29.4078 7.79348C29.7714 8.25412 29.9987 8.76083 29.9987 9.26754V10.5113C29.9987 10.7877 29.8169 10.9719 29.5441 10.9719ZM24.3622 10.0506H29.0896V9.26754C29.0896 8.99115 28.9532 8.6687 28.7259 8.43838L26.5441 6.18123C26.3168 5.95091 26.0895 5.85878 25.7259 5.85878H24.3622V10.0506Z" fill="#282828" fill-opacity="0.44"/>
<path d="M11.1812 19.2009C9.81225 19.2009 8.72656 18.109 8.72656 16.7323C8.72656 15.3556 9.81225 14.2637 11.1812 14.2637C12.5501 14.2637 13.6357 15.3556 13.6357 16.7323C13.6357 18.109 12.5501 19.2009 11.1812 19.2009ZM11.1812 15.2131C10.3315 15.2131 9.67064 15.8778 9.67064 16.7323C9.67064 17.5868 10.3315 18.2514 11.1812 18.2514C12.0308 18.2514 12.6917 17.5868 12.6917 16.7323C12.6917 15.8778 12.0308 15.2131 11.1812 15.2131Z" fill="#282828" fill-opacity="0.44"/>
<path d="M25.3608 19.2009C23.9919 19.2009 22.9062 18.109 22.9062 16.7323C22.9062 15.3556 23.9919 14.2637 25.3608 14.2637C26.7297 14.2637 27.8154 15.3556 27.8154 16.7323C27.8154 18.109 26.7297 19.2009 25.3608 19.2009ZM25.3608 15.2131C24.5112 15.2131 23.8503 15.8778 23.8503 16.7323C23.8503 17.5868 24.5112 18.2514 25.3608 18.2514C26.2105 18.2514 26.8714 17.5868 26.8714 16.7323C26.8714 15.8778 26.2105 15.2131 25.3608 15.2131Z" fill="#282828" fill-opacity="0.44"/>
<path d="M25.702 12.6167H25.0282C24.7394 12.6167 24.5469 12.3973 24.5469 12.0681C24.5469 11.739 24.7394 11.5195 25.0282 11.5195H25.702C25.9908 11.5195 26.1833 11.739 26.1833 12.0681C26.1833 12.3973 25.9908 12.6167 25.702 12.6167Z" fill="#007657"/>
<path d="M4.4099 3.29248H2.14413C1.84203 3.29248 1.64062 3.07305 1.64062 2.7439C1.64062 2.41475 1.84203 2.19531 2.14413 2.19531H4.4099C4.71201 2.19531 4.91341 2.41475 4.91341 2.7439C4.91341 3.07305 4.71201 3.29248 4.4099 3.29248Z" fill="#007657"/>
<path d="M3.90438 5.48584H0.459338C0.183735 5.48584 0 5.2664 0 4.93726C0 4.60811 0.183735 4.38867 0.459338 4.38867H3.90438C4.17998 4.38867 4.36371 4.60811 4.36371 4.93726C4.36371 5.2664 4.17998 5.48584 3.90438 5.48584Z" fill="#007657"/>
<path d="M4.4099 7.6792H2.14413C1.84203 7.6792 1.64062 7.45976 1.64062 7.13061C1.64062 6.80146 1.84203 6.58203 2.14413 6.58203H4.4099C4.71201 6.58203 4.91341 6.80146 4.91341 7.13061C4.91341 7.45976 4.71201 7.6792 4.4099 7.6792Z" fill="#007657"/>
<path d="M3.90438 9.87451H0.459338C0.183735 9.87451 0 9.65508 0 9.32593C0 8.99678 0.183735 8.77734 0.459338 8.77734H3.90438C4.17998 8.77734 4.36371 8.99678 4.36371 9.32593C4.36371 9.65508 4.17998 9.87451 3.90438 9.87451Z" fill="#007657"/>
<path d="M4.4099 12.0698H2.14413C1.84203 12.0698 1.64062 11.8504 1.64062 11.5212C1.64062 11.1921 1.84203 10.9727 2.14413 10.9727H4.4099C4.71201 10.9727 4.91341 11.1921 4.91341 11.5212C4.91341 11.8504 4.71201 12.0698 4.4099 12.0698Z" fill="#007657"/>
</svg>
