<svg width="30" height="30" viewBox="0 0 30 30" fill="none" xmlns="http://www.w3.org/2000/svg">
<path d="M18.2519 12.308L13.8571 16.4148L11.7481 14.2681C11.6345 14.1598 11.4829 14.0994 11.3251 14.0998C11.1674 14.1001 11.016 14.1611 10.9029 14.27C10.7898 14.3788 10.7239 14.5269 10.719 14.6829C10.7142 14.839 10.7708 14.9908 10.8769 15.1063L13.406 17.676C13.5191 17.7886 13.6718 17.8534 13.8322 17.8567C13.9925 17.8601 14.1479 17.8017 14.2656 17.6939L19.0992 13.1819C19.1574 13.1278 19.2042 13.0628 19.2369 12.9907C19.2696 12.9186 19.2877 12.8408 19.2899 12.7618C19.2922 12.6828 19.2787 12.6041 19.2502 12.5303C19.2217 12.4564 19.1787 12.3889 19.1238 12.3316C19.0107 12.2152 18.8559 12.1474 18.6929 12.1428C18.5298 12.1383 18.3714 12.1981 18.2519 12.308Z" fill="#007657"/>
<path d="M15.0045 5.71484C9.88286 5.71484 5.71875 9.87963 5.71875 15.0002C5.71875 20.1222 9.88286 24.2863 15.0045 24.2863C20.1268 24.2863 24.2902 20.1222 24.2902 15.0009C24.2902 9.87963 20.1261 5.71558 15.0045 5.71558V5.71484ZM15.0045 23.0433C10.5666 23.0433 6.9618 19.4323 6.9618 15.0009C6.9618 10.5688 10.5666 6.9578 15.0045 6.9578C19.4468 6.9578 23.0471 10.5585 23.0471 15.0009C23.0471 19.4426 19.4468 23.0433 15.0045 23.0433Z" fill="#007657"/>
<path d="M27.8642 11.5631L28.0701 7.85607C28.0772 7.7343 28.0484 7.61312 27.9874 7.50753C27.9263 7.40195 27.8356 7.3166 27.7265 7.26205L24.423 5.59257L22.7535 2.29139C22.6978 2.18319 22.6122 2.09328 22.5069 2.03235C22.4016 1.97142 22.281 1.94204 22.1595 1.94771L18.4434 2.14769L15.3474 0.103434C15.2452 0.0359664 15.1254 0 15.003 0C14.8805 0 14.7607 0.0359664 14.6585 0.103434L11.5625 2.14769L7.85387 1.94179C7.73196 1.93446 7.61058 1.96313 7.50483 2.02423C7.39908 2.08533 7.31363 2.17618 7.2591 2.28546L5.58885 5.58664L2.28614 7.25612C2.17783 7.31164 2.08781 7.39719 2.02686 7.50254C1.96591 7.60789 1.9366 7.72857 1.94246 7.85014L2.14837 11.5572L0.103338 14.6518C0.0359335 14.7538 0 14.8735 0 14.9958C0 15.1181 0.0359335 15.2378 0.103338 15.3398L2.14244 18.4403L1.93579 22.1474C1.92868 22.2692 1.95753 22.3905 2.01876 22.4961C2.07999 22.6017 2.17091 22.687 2.28021 22.7414L5.58293 24.4109L7.25317 27.7121C7.3665 27.9328 7.59833 28.0676 7.8472 28.0557L11.5566 27.8491L14.6526 29.8933C14.86 30.0356 15.1341 30.0356 15.3415 29.8933L18.4375 27.8491L22.1469 28.0557C22.2686 28.0627 22.3898 28.0339 22.4953 27.9728C22.6009 27.9117 22.6863 27.8211 22.7409 27.7121L24.4111 24.4109L27.7139 22.7414C27.8221 22.6858 27.9121 22.6002 27.973 22.4949C28.034 22.3896 28.0633 22.2689 28.0575 22.1474L27.8516 18.4403L29.8967 15.3458C29.9641 15.2437 30 15.124 30 15.0017C30 14.8794 29.9641 14.7598 29.8967 14.6577L27.8642 11.5631ZM26.7006 17.9278C26.6243 18.0396 26.5889 18.1743 26.6006 18.3092L26.7939 21.8163L23.6727 23.3917C23.5538 23.4515 23.4574 23.5482 23.3979 23.6672L21.821 26.7862L18.3123 26.5929C18.1781 26.588 18.0455 26.6228 17.9309 26.6929L15.003 28.6246L12.0758 26.6929C11.974 26.6242 11.8541 26.5874 11.7314 26.587H11.7002L8.19088 26.7803L6.6147 23.6606C6.55523 23.5417 6.45881 23.4453 6.33991 23.3858L3.21199 21.8163L3.40605 18.3092C3.41074 18.1749 3.3757 18.0422 3.30532 17.9278L1.37287 15.0021L3.30606 12.0764C3.38252 11.9647 3.41786 11.8299 3.40605 11.695L3.21199 8.18715L6.33324 6.61174C6.45175 6.55248 6.54878 6.45619 6.60878 6.33695L8.18496 3.21723L11.6943 3.41128C11.8276 3.41573 11.961 3.38092 12.0758 3.31055L15.003 1.37887L17.9302 3.31055C18.0421 3.38733 18.1771 3.42293 18.3123 3.41128L21.821 3.21723L23.3979 6.33695C23.4571 6.45545 23.5534 6.55174 23.6727 6.61174L26.7939 8.18715L26.6006 11.695C26.5954 11.8283 26.6302 11.9616 26.7006 12.0757L28.6338 15.0014L26.7006 17.9278Z" fill="#282828" fill-opacity="0.44"/>
</svg>
