<svg width="30" height="30" viewBox="0 0 30 30" fill="none" xmlns="http://www.w3.org/2000/svg">
<path fill-rule="evenodd" clip-rule="evenodd" d="M5.14556 5.4779C4.75012 5.83684 4.38581 6.21196 4.05342 6.60257C3.99107 6.67582 3.91336 6.73724 3.82475 6.78334C3.73614 6.82943 3.63835 6.8593 3.53697 6.87122C3.33223 6.89531 3.12529 6.84488 2.96168 6.73101C2.79806 6.61715 2.69118 6.44919 2.66454 6.26408C2.6379 6.07896 2.69368 5.89186 2.81961 5.74393C3.19771 5.30001 3.60725 4.87873 4.04564 4.48272C4.19245 4.35452 4.38909 4.28358 4.59319 4.28518C4.79729 4.28679 4.99253 4.3608 5.13686 4.49129C5.28118 4.62179 5.36305 4.79831 5.36482 4.98284C5.3666 5.16738 5.28813 5.34516 5.14634 5.4779H5.14556ZM1.98125 8.26636C2.17199 8.33768 2.32359 8.47459 2.40271 8.64695C2.48183 8.81932 2.48199 9.01305 2.40315 9.18552C1.97735 10.1145 1.69323 11.0858 1.55077 12.069C1.53798 12.161 1.50519 12.2498 1.4543 12.3303C1.40342 12.4109 1.33543 12.4815 1.25426 12.5382C1.17308 12.5949 1.08031 12.6365 0.981289 12.6607C0.882263 12.6848 0.778931 12.6911 0.677232 12.679C0.575532 12.667 0.477471 12.6368 0.388684 12.5904C0.299896 12.544 0.222133 12.4821 0.159864 12.4085C0.0975945 12.3348 0.0520474 12.2507 0.0258395 12.161C-0.000368296 12.0714 -0.00672012 11.9779 0.00714968 11.886C0.167506 10.7817 0.485884 9.69226 0.964618 8.64711C1.04366 8.47479 1.19513 8.33788 1.38576 8.26648C1.57639 8.19509 1.79058 8.19504 1.98125 8.26636ZM0.678156 14.4485C0.88285 14.4244 1.08978 14.4747 1.25342 14.5885C1.41706 14.7023 1.52402 14.8702 1.55077 15.0552C1.69416 16.046 1.98073 17.0154 2.40315 17.9387C2.48212 18.1113 2.48204 18.3051 2.40291 18.4776C2.32379 18.6501 2.17211 18.7872 1.98125 18.8586C1.79038 18.93 1.57596 18.9299 1.38516 18.8583C1.19436 18.7868 1.04281 18.6497 0.963839 18.4771C0.489606 17.44 0.167964 16.351 0.00714968 15.2382C-0.00619022 15.1465 0.000588187 15.0534 0.0270971 14.964C0.053606 14.8747 0.099326 14.791 0.161643 14.7176C0.22396 14.6443 0.301652 14.5828 0.390279 14.5366C0.478906 14.4905 0.576729 14.4605 0.678156 14.4485ZM2.96284 20.3929C3.12647 20.2791 3.33336 20.2288 3.53802 20.253C3.74267 20.2771 3.92834 20.3738 4.0542 20.5217C4.38659 20.9123 4.7509 21.2888 5.14712 21.647C5.22146 21.712 5.28077 21.7896 5.32156 21.8755C5.36236 21.9613 5.38383 22.0537 5.38473 22.1472C5.38563 22.2406 5.36593 22.3333 5.32679 22.4198C5.28765 22.5063 5.22985 22.5848 5.15676 22.6509C5.08368 22.717 4.99676 22.7693 4.9011 22.8047C4.80543 22.84 4.70293 22.8579 4.59957 22.857C4.49621 22.8562 4.39406 22.8368 4.29909 22.7999C4.20412 22.763 4.11823 22.7094 4.04642 22.6422C3.60802 22.246 3.19848 21.8244 2.82039 21.3803C2.75799 21.307 2.71217 21.2233 2.68555 21.134C2.65894 21.0447 2.65205 20.9516 2.66528 20.8599C2.67851 20.7682 2.7116 20.6797 2.76266 20.5996C2.81371 20.5195 2.88174 20.4492 2.96284 20.3929Z" fill="#007657"/>
<path fill-rule="evenodd" clip-rule="evenodd" d="M4.0742 4.79221C3.92664 4.65922 3.84375 4.47888 3.84375 4.29084C3.84375 4.10281 3.92664 3.92246 4.0742 3.78948C9.68235 -1.26316 18.775 -1.26316 24.3832 3.78948C24.5307 3.92254 24.6136 4.10298 24.6135 4.2911C24.6135 4.47921 24.5305 4.65959 24.3828 4.79256C24.2351 4.92553 24.0348 5.0002 23.826 5.00013C23.6172 5.00006 23.417 4.92527 23.2694 4.79221C18.276 0.293408 10.1798 0.293408 5.18717 4.79221C5.03957 4.92515 4.8394 4.99984 4.63069 4.99984C4.42198 4.99984 4.22181 4.92515 4.0742 4.79221Z" fill="#007657"/>
<path fill-rule="evenodd" clip-rule="evenodd" d="M25.3842 5.7143C25.3842 5.90375 25.3032 6.08544 25.1589 6.21939C25.0146 6.35335 24.819 6.42861 24.615 6.42861H19.2302C19.0262 6.42861 18.8305 6.35335 18.6862 6.21939C18.542 6.08544 18.4609 5.90375 18.4609 5.7143C18.4609 5.52486 18.542 5.34317 18.6862 5.20922C18.8305 5.07526 19.0262 5 19.2302 5H24.615C24.819 5 25.0146 5.07526 25.1589 5.20922C25.3032 5.34317 25.3842 5.52486 25.3842 5.7143Z" fill="#007657"/>
<path fill-rule="evenodd" clip-rule="evenodd" d="M24.2526 6.45502C24.0478 6.45502 23.8515 6.37945 23.7067 6.24495C23.5619 6.11044 23.4805 5.92801 23.4805 5.73779V0.717224C23.4805 0.527005 23.5619 0.344576 23.7067 0.21007C23.8515 0.0755646 24.0478 0 24.2526 0C24.4574 0 24.6538 0.0755646 24.7986 0.21007C24.9433 0.344576 25.0247 0.527005 25.0247 0.717224V5.73779C25.0247 5.92801 24.9433 6.11044 24.7986 6.24495C24.6538 6.37945 24.4574 6.45502 24.2526 6.45502ZM13.0166 11.5516L23.8257 16.5722L23.7986 16.6224L28.5392 14.4205L29.2302 15.7029L18.7663 20.5635C18.5519 20.663 18.3156 20.7148 18.076 20.7148C17.8364 20.7148 17.6001 20.663 17.3858 20.5635L6.92188 15.7029L7.61211 14.4205L18.076 19.2804L22.1402 17.3927L12.3264 12.834L13.0166 11.5516Z" fill="#007657"/>
<path fill-rule="evenodd" clip-rule="evenodd" d="M17.7468 8.73482C17.967 8.62676 18.212 8.57031 18.4606 8.57031C18.7093 8.57031 18.9543 8.62676 19.1745 8.73482L29.1748 13.6413C29.4234 13.7633 29.6317 13.9467 29.7771 14.1716C29.9224 14.3965 29.9993 14.6544 29.9994 14.9173V23.6525C29.9993 23.9154 29.9224 24.1732 29.7771 24.3981C29.6317 24.6231 29.4234 24.8064 29.1748 24.9284L19.1745 29.8349C18.9543 29.943 18.7093 29.9994 18.4606 29.9994C18.212 29.9994 17.967 29.943 17.7468 29.8349L7.74651 24.9284C7.49786 24.8064 7.28957 24.6231 7.14421 24.3981C6.99886 24.1732 6.92197 23.9154 6.92188 23.6525V14.9173C6.92197 14.6544 6.99886 14.3965 7.14421 14.1716C7.28957 13.9467 7.49786 13.7633 7.74651 13.6413L17.7468 8.73482ZM18.4606 10.0122L8.46038 14.9187V23.6532L18.4606 28.5597L28.4609 23.6532V14.9173L18.4606 10.0108V10.0122Z" fill="#282828" fill-opacity="0.44"/>
<path fill-rule="evenodd" clip-rule="evenodd" d="M17.6953 28.5717V20H19.2338V28.5717H17.6953Z" fill="#282828" fill-opacity="0.44"/>
</svg>
