<svg width="30" height="30" viewBox="0 0 30 30" fill="none" xmlns="http://www.w3.org/2000/svg">
<path d="M25.8082 26.586C25.6071 26.3813 25.512 26.094 25.5507 25.8086L25.8597 23.5142C26.6212 17.8835 26.6212 12.1748 25.8597 6.54405L25.5507 4.2497C25.514 3.9485 25.6221 3.64776 25.8416 3.44011C26.6 2.67399 26.6 1.43392 25.8416 0.667796L25.8046 0.63043C25.0443 -0.133812 23.8138 -0.133812 23.0536 0.63043C22.8399 0.845931 22.5345 0.941291 22.2374 0.885242L20.435 0.544282C16.6091 -0.181427 12.6823 -0.181427 8.85636 0.544282L7.05396 0.885242C6.75689 0.940123 6.45202 0.844893 6.23773 0.63043C5.47751 -0.133812 4.24698 -0.133812 3.48676 0.63043L3.44968 0.667796C2.69132 1.43392 2.69132 2.67399 3.44968 3.44011L3.47749 3.46814C3.68019 3.67417 3.77553 3.96401 3.73497 4.25126L3.48573 6.01211C2.68662 11.6487 2.65199 17.3685 3.38273 23.0145L3.74321 25.8091C3.7772 26.1105 3.66732 26.4103 3.4471 26.6171C2.68746 27.3825 2.68733 28.6237 3.44685 29.3892L3.4471 29.3895L3.48418 29.4268C4.24441 30.1911 5.47493 30.1911 6.23516 29.4268C6.44848 29.2111 6.75386 29.1158 7.05087 29.172L7.66266 29.2883C12.2716 30.1528 17.0138 29.973 21.5452 28.762L21.7054 28.7195C22.0211 28.6353 22.3574 28.7264 22.5886 28.9587L23.052 29.4258C23.8123 30.19 25.0428 30.19 25.803 29.4258L25.8401 29.3884C26.5993 28.6132 26.5911 27.3646 25.8219 26.5996C25.8174 26.595 25.8127 26.5905 25.8082 26.586ZM25.1135 27.3515V27.352C25.4706 27.7124 25.4706 28.2962 25.1135 28.6567L25.0764 28.694C24.7143 29.0429 24.1438 29.0429 23.7818 28.694L23.3183 28.227C22.9524 27.8594 22.4569 27.653 21.9402 27.653C21.7723 27.6531 21.605 27.6752 21.4428 27.7189L21.2826 27.7615C16.8997 28.9324 12.3132 29.1065 7.85525 28.2711L7.24347 28.1548C6.61212 28.0345 5.96267 28.237 5.50905 28.6956C5.14696 29.0445 4.5765 29.0445 4.21441 28.6956L4.17733 28.6582C4.00392 28.4854 3.90665 28.2496 3.90749 28.0038C3.91051 27.7421 4.02039 27.4931 4.21132 27.3157C4.63662 26.8843 4.84068 26.2794 4.7644 25.6762L4.40392 22.8816C3.68573 17.3288 3.72036 11.7034 4.50691 6.16001L4.75616 4.39864C4.84074 3.78795 4.63707 3.17259 4.20566 2.73536L4.17785 2.70733C3.82046 2.34704 3.82046 1.76294 4.17785 1.40265L4.21493 1.36529C4.57257 1.00538 5.15191 1.00538 5.50956 1.36529C5.96319 1.82379 6.61263 2.02625 7.24398 1.90605L9.04638 1.56509C12.7468 0.863705 16.5446 0.863705 20.2449 1.56509L22.0473 1.90605C22.6786 2.02612 23.328 1.82366 23.7818 1.36529C24.1394 1.00538 24.7188 1.00538 25.0764 1.36529L25.1135 1.40265C25.2859 1.57534 25.3826 1.81049 25.3818 2.05551C25.3793 2.31532 25.2709 2.56261 25.0821 2.73951C24.6544 3.17414 24.4512 3.78425 24.5321 4.39086L24.8411 6.68521C25.5903 12.2226 25.5903 17.8367 24.8411 23.3741L24.5321 25.6685C24.4524 26.2904 24.6678 26.9139 25.1135 27.3515Z" fill="#282828" fill-opacity="0.44"/>
<path d="M7.14062 5.71484V24.2863H22.8549V5.71484H7.14062ZM14.8626 12.4212C14.2578 11.379 14.3103 10.0882 14.9978 9.09691C15.6853 10.0882 15.7377 11.379 15.1329 12.4212H14.8626ZM21.8073 23.2545H15.5216V22.2228H16.0454C18.0695 22.2205 19.7098 20.6051 19.7121 18.6117V18.0958H18.1406C17.1542 18.0957 16.2095 18.4885 15.5216 19.1848V17.5799H16.0454C18.0695 17.5777 19.7098 15.9622 19.7121 13.9688V13.4529H18.1406C17.1542 13.4529 16.2095 13.8456 15.5216 14.5419V13.6505C17.0197 12.0054 16.9523 9.49439 15.3681 7.92949L14.9978 7.56476L14.6274 7.92949C13.0432 9.49439 12.9759 12.0054 14.474 13.6505V14.5419C13.786 13.8456 12.8414 13.4529 11.8549 13.4529H10.2835V13.9688C10.2858 15.9622 11.9261 17.5777 13.9501 17.5799H14.474V19.1848C13.786 18.4885 12.8414 18.0957 11.8549 18.0958H10.2835V18.6117C10.2858 20.6051 11.9261 22.2205 13.9501 22.2228H14.474V23.2545H8.18824V6.74659H21.8073V23.2545ZM15.574 21.191C15.8245 19.9909 16.8965 19.1291 18.1406 19.1275H18.6121C18.3615 20.3277 17.2895 21.1895 16.0454 21.191H15.574ZM15.574 16.5482C15.8245 15.3481 16.8965 14.4862 18.1406 14.4847H18.6121C18.3615 15.6848 17.2895 16.5466 16.0454 16.5482H15.574ZM14.4216 16.5482H13.9501C12.706 16.5466 11.6341 15.6848 11.3835 14.4847H11.8549C13.099 14.4862 14.1709 15.3481 14.4216 16.5482ZM14.4216 21.191H13.9501C12.706 21.1895 11.6341 20.3277 11.3835 19.1275H11.8549C13.099 19.1291 14.1709 19.9909 14.4216 21.191Z" fill="#007657"/>
</svg>
