<svg width="71" height="71" viewBox="0 0 71 71" fill="none" xmlns="http://www.w3.org/2000/svg">
<mask id="mask0_8274_143572" style="mask-type:alpha" maskUnits="userSpaceOnUse" x="0" y="0" width="71" height="71">
<circle cx="35.5" cy="35.5" r="35.5" fill="white"/>
</mask>
<g mask="url(#mask0_8274_143572)">
<path d="M45.0584 42.7958H46.3171C46.6943 42.7958 47 42.5219 47 42.184V37.1674C47 36.8295 46.6943 36.5556 46.3171 36.5556H38.8872C43.5828 33.8583 45.1091 29.8532 45.5239 26.7639C46.038 22.9356 45.0116 19.7537 44.9677 19.6201C44.9119 19.4505 44.777 19.3109 44.5976 19.2371C44.4183 19.1632 44.2122 19.1627 44.0322 19.2353C41.0624 20.434 38.7633 22.1448 37.1989 24.3204C36.9946 24.6045 37.0861 24.9831 37.4032 25.1661C37.7202 25.349 38.1429 25.2673 38.3471 24.9831C39.634 23.1936 41.4819 21.7453 43.8471 20.6706C44.1087 21.7765 44.5116 24.0594 44.168 26.6178C43.8885 28.6998 43.1732 30.5464 42.0421 32.1063C40.8639 33.7311 39.2204 35.0534 37.1484 36.0513C37.4856 34.5725 37.8877 31.98 37.5013 29.0437C37.153 26.3969 36.2316 24.0253 34.7626 21.9948C32.9255 19.4556 30.2318 17.4569 26.7564 16.054C26.5763 15.9814 26.3702 15.982 26.1909 16.0558C26.0115 16.1297 25.8766 16.2693 25.8208 16.4389C25.7952 16.5167 25.1924 18.3745 25.0355 21.0429C24.8903 23.5147 25.1214 27.1731 27.0476 30.5643C27.2186 30.8654 27.6298 30.9853 27.9659 30.8321C28.3021 30.6788 28.436 30.3104 28.2649 30.0093C25.4676 25.0846 26.4668 19.4326 26.9403 17.4858C29.8046 18.7624 32.043 20.4939 33.6019 22.6403C34.957 24.5061 35.8107 26.6952 36.1394 29.1467C36.459 31.5299 36.2149 33.7078 35.9394 35.1603L29.1802 20.787C29.0338 20.4756 28.6333 20.3295 28.2858 20.4607C27.9383 20.5918 27.7752 20.9506 27.9216 21.262L34.808 35.9058C32.612 34.8354 30.8227 33.455 29.476 31.7872C29.2548 31.5135 28.828 31.4521 28.5224 31.6501C28.2168 31.8481 28.1483 32.2306 28.3693 32.5044C29.6641 34.1079 31.3286 35.4632 33.333 36.5555H25.9674C25.5902 36.5555 25.2845 36.8295 25.2845 37.1673V42.1839C25.2845 42.5218 25.5902 42.7957 25.9674 42.7957H27.226L28.3975 51.4188C28.6612 53.3598 30.506 54.8235 32.6885 54.8235H39.5959C41.7784 54.8235 43.6231 53.3598 43.8868 51.4189L45.0584 42.7958ZM26.6503 37.7792H45.6343V41.5722H26.6503V37.7792ZM42.531 51.2711C42.3507 52.5988 41.0889 53.5999 39.5959 53.5999H32.6885C31.1956 53.5999 29.9337 52.5988 29.7533 51.2711L28.602 42.7958H43.6826L42.531 51.2711Z" fill="#007657"/>
</g>
</svg>
