<svg width="44" height="44" viewBox="0 0 44 44" fill="none" xmlns="http://www.w3.org/2000/svg">
<path fill-rule="evenodd" clip-rule="evenodd" d="M16.2628 15.8493L11.4967 14.8598C11.333 14.8197 11.1699 14.9304 11.1326 15.1067C11.0954 15.2832 11.1982 15.4589 11.3619 15.499L16.128 16.4885C16.2918 16.5286 16.455 16.4179 16.4922 16.2415C16.5294 16.0651 16.4267 15.8894 16.2628 15.8493Z" fill="#282828"/>
<path fill-rule="evenodd" clip-rule="evenodd" d="M25.3309 18.186L20.2741 17.0066C20.1534 16.9745 20.0331 17.0631 20.0056 17.2043C19.9782 17.3456 20.054 17.4863 20.1747 17.5184L25.2315 18.6978C25.3523 18.7299 25.4726 18.6413 25.5 18.5C25.5275 18.3588 25.4517 18.218 25.3309 18.186Z" fill="#282828"/>
<path fill-rule="evenodd" clip-rule="evenodd" d="M20.5961 32.0491C21.3204 31.2691 21.3204 30.0044 20.5961 29.2244L20.1657 29.6878C20.6524 30.2119 20.6524 31.0616 20.1657 31.5857C19.6791 32.1098 18.8901 32.1098 18.4035 31.5857C18.4034 31.5857 12.3163 25.0303 12.3163 25.0303C12.2908 25.0029 12.261 24.9805 12.2283 24.9643C12.2087 24.9546 10.7509 24.2386 10.7509 24.2386C10.5981 24.1635 10.4175 24.2362 10.3478 24.4008C10.2781 24.5653 10.3456 24.7598 10.4984 24.8349C10.4984 24.8349 11.6683 25.4096 11.9248 25.5356L17.9731 32.0491C18.6974 32.8292 19.8717 32.8292 20.5961 32.0491Z" fill="#282828"/>
<path fill-rule="evenodd" clip-rule="evenodd" d="M19.8001 29.2937C19.8001 29.2937 20.7976 30.368 21.6272 31.2615C22.3516 32.0416 23.5259 32.0416 24.2502 31.2615L24.2509 31.2607C24.5986 30.8863 24.7939 30.3785 24.7939 29.8491C24.7939 29.3197 24.5986 28.8119 24.2509 28.4375L23.8206 28.901C24.0541 29.1524 24.1853 29.4935 24.1853 29.8491C24.1853 30.2047 24.0541 30.5458 23.8206 30.7972C23.8203 30.7975 23.8201 30.7978 23.8198 30.798C23.3332 31.3221 22.5442 31.3221 22.0576 30.7981C22.0576 30.798 20.2304 28.8303 20.2304 28.8303C20.1116 28.7024 19.9188 28.7024 19.8001 28.8303C19.6812 28.9582 19.6812 29.1658 19.8001 29.2937Z" fill="#282828"/>
<path fill-rule="evenodd" clip-rule="evenodd" d="M27.1704 29.6863C27.8946 28.9062 27.8946 27.6416 27.1704 26.8615L26.74 27.325C27.2266 27.8491 27.2266 28.6988 26.74 29.2229C26.5063 29.4745 26.1893 29.6159 25.8588 29.6159C25.5284 29.6159 25.2114 29.4745 24.9777 29.2228L22.7851 26.8615C22.6663 26.7337 22.4735 26.7337 22.3547 26.8615C22.2359 26.9894 22.2359 27.1971 22.3547 27.325C22.3547 27.325 23.5908 28.6561 24.5474 29.6863C24.8951 30.0609 25.3669 30.2713 25.8588 30.2713C26.3508 30.2713 26.8225 30.0609 27.1704 29.6863Z" fill="#282828"/>
<path fill-rule="evenodd" clip-rule="evenodd" d="M30.6201 25.9395L32.463 24.9468L33.37 24.8632C33.5373 24.8478 33.6615 24.689 33.6472 24.5088C33.6329 24.3286 33.4854 24.1948 33.3181 24.2102L32.353 24.2991C32.3147 24.3027 32.2773 24.314 32.2429 24.3326L30.3479 25.3533C30.1977 25.4342 30.1367 25.6313 30.2119 25.7931C30.287 25.9548 30.47 26.0204 30.6201 25.9395Z" fill="#282828"/>
<path fill-rule="evenodd" clip-rule="evenodd" d="M33.2653 11.9329L28.6324 13.2955L24.1337 11.4267C23.8114 11.2927 23.4534 11.2983 23.1348 11.4421C21.9756 11.9655 18.5877 13.4952 18.5877 13.4952C18.5513 13.5116 18.5181 13.5356 18.4902 13.5657C18.4902 13.5657 16.757 15.4323 15.5667 16.7141C15.2188 17.0887 15.0234 17.5967 15.0234 18.1264C15.0234 18.6562 15.2188 19.1643 15.5667 19.5389C15.9145 19.9135 16.3862 20.1239 16.8782 20.1239C17.3701 20.1239 17.8418 19.9135 18.1897 19.5389L20.7489 16.7827C20.7489 16.7827 20.7489 16.7827 21.0009 16.4995C21.061 16.3307 20.8602 16.1688 20.8602 16.1688L20.7826 16.0946C20.7826 16.0946 20.5433 16.0773 20.4583 16.1688C20.4583 16.1688 18.8803 17.8681 17.7593 19.0754C17.5256 19.3271 17.2087 19.4685 16.8782 19.4685C16.5477 19.4685 16.2307 19.3271 15.997 19.0754C15.7633 18.8238 15.632 18.4824 15.632 18.1264C15.632 17.7705 15.7633 17.4292 15.997 17.1776L18.8782 14.0747L23.3702 12.0466C23.5438 11.9682 23.7389 11.9652 23.9146 12.0382L28.5066 13.9457C28.5672 13.9709 28.6336 13.9746 28.6963 13.9561L33.4256 12.5652C33.5876 12.5176 33.6833 12.3372 33.639 12.1628C33.5947 11.9883 33.4273 11.8853 33.2653 11.9329Z" fill="#282828"/>
<path fill-rule="evenodd" clip-rule="evenodd" d="M24.7782 25.2062C24.7782 25.2062 26.3562 26.9056 27.4773 28.1128C27.8251 28.4874 28.2968 28.6978 28.7887 28.6978C29.2806 28.6978 29.7524 28.4874 30.1002 28.1128L30.2501 27.9515C30.9004 27.251 30.9759 26.1431 30.4273 25.3479L25.4906 18.1925C25.2544 18.1926 24.6978 18.0846 24.563 18.1924C24.4282 18.3003 24.9019 18.4382 25.0021 18.5834L29.9388 25.7388C30.3073 26.273 30.2566 27.0174 29.8197 27.488L29.6699 27.6494C29.4362 27.901 29.1192 28.0424 28.7887 28.0424C28.4583 28.0424 28.1413 27.901 27.9076 27.6494C26.7866 26.4422 25.2085 24.7427 25.2085 24.7427C25.0898 24.6149 24.897 24.6149 24.7782 24.7427C24.6595 24.8706 24.6595 25.0783 24.7782 25.2062Z" fill="#282828"/>
</svg>
