<svg width="44" height="44" viewBox="0 0 44 44" fill="none" xmlns="http://www.w3.org/2000/svg">
<path d="M30.6481 31.2688C30.4873 31.105 30.4112 30.8752 30.4421 30.6469L30.6893 28.8114C31.2985 24.3068 31.2985 19.7398 30.6893 15.2352L30.4421 13.3998C30.4128 13.1588 30.4992 12.9182 30.6749 12.7521C31.2816 12.1392 31.2816 11.1471 30.6749 10.5342L30.6452 10.5043C30.037 9.89295 29.0526 9.89295 28.4444 10.5043C28.2735 10.6767 28.0292 10.753 27.7915 10.7082L26.3495 10.4354C23.2888 9.85486 20.1474 9.85486 17.0866 10.4354L15.6447 10.7082C15.4071 10.7521 15.1632 10.6759 14.9917 10.5043C14.3836 9.89295 13.3991 9.89295 12.791 10.5043L12.7613 10.5342C12.1546 11.1471 12.1546 12.1392 12.7613 12.7521L12.7836 12.7745C12.9457 12.9393 13.022 13.1712 12.9895 13.401L12.7901 14.8097C12.1509 19.3189 12.1232 23.8948 12.7077 28.4116L12.9961 30.6473C13.0233 30.8884 12.9354 31.1283 12.7592 31.2937C12.1515 31.906 12.1514 32.8989 12.759 33.5114L12.7592 33.5116L12.7889 33.5415C13.3971 34.1528 14.3815 34.1528 14.9897 33.5415C15.1603 33.3689 15.4047 33.2926 15.6423 33.3376L16.1317 33.4306C19.8189 34.1222 23.6126 33.9784 27.2378 33.0096L27.3659 32.9756C27.6184 32.9082 27.8874 32.9811 28.0724 33.167L28.4432 33.5406C29.0514 34.152 30.0358 34.152 30.644 33.5406L30.6736 33.5107C31.281 32.8906 31.2745 31.8917 30.6591 31.2796C30.6555 31.276 30.6518 31.2724 30.6481 31.2688ZM30.0923 31.8812V31.8816C30.378 32.1699 30.378 32.637 30.0923 32.9253L30.0627 32.9552C29.773 33.2343 29.3166 33.2343 29.027 32.9552L28.6562 32.5816C28.3635 32.2875 27.9671 32.1224 27.5537 32.1224C27.4194 32.1224 27.2856 32.1402 27.1558 32.1751L27.0276 32.2092C23.5213 33.1459 19.8521 33.2852 16.2858 32.6169L15.7963 32.5239C15.2913 32.4276 14.7717 32.5896 14.4088 32.9565C14.1191 33.2356 13.6628 33.2356 13.3731 32.9565L13.3434 32.9266C13.2047 32.7883 13.1269 32.5997 13.1276 32.4031C13.13 32.1936 13.2179 31.9945 13.3706 31.8525C13.7109 31.5075 13.8741 31.0235 13.8131 30.541L13.5247 28.3053C12.9501 23.863 12.9779 19.3627 13.6071 14.928L13.8065 13.5189C13.8742 13.0304 13.7112 12.5381 13.3661 12.1883L13.3438 12.1659C13.0579 11.8776 13.0579 11.4104 13.3438 11.1221L13.3735 11.0922C13.6596 10.8043 14.1231 10.8043 14.4092 11.0922C14.7721 11.459 15.2917 11.621 15.7967 11.5248L17.2387 11.2521C20.199 10.691 23.2372 10.691 26.1975 11.2521L27.6394 11.5248C28.1445 11.6209 28.664 11.4589 29.027 11.0922C29.3131 10.8043 29.7766 10.8043 30.0627 11.0922L30.0923 11.1221C30.2303 11.2603 30.3077 11.4484 30.307 11.6444C30.305 11.8523 30.2183 12.0501 30.0672 12.1916C29.7251 12.5393 29.5625 13.0274 29.6272 13.5127L29.8744 15.3482C30.4738 19.7781 30.4738 24.2694 29.8744 28.6993L29.6272 30.5348C29.5635 31.0324 29.7358 31.5311 30.0923 31.8812Z" fill="#282828"/>
<path d="M15.7109 14.5723V29.4294H28.2824V14.5723H15.7109ZM21.8885 19.9373C21.4047 19.1036 21.4467 18.0709 21.9967 17.2779C22.5467 18.0709 22.5886 19.1036 22.1048 19.9373H21.8885ZM27.4443 28.604H22.4157V27.7786H22.8347C24.454 27.7768 25.7662 26.4844 25.7681 24.8897V24.477H24.5109C23.7218 24.477 22.9661 24.7912 22.4157 25.3482V24.0643H22.8347C24.454 24.0625 25.7662 22.7702 25.7681 21.1754V20.7627H24.5109C23.7218 20.7627 22.9661 21.0769 22.4157 21.6339V20.9208C23.6142 19.6047 23.5603 17.5959 22.2929 16.344L21.9967 16.0522L21.7004 16.344C20.433 17.5959 20.3791 19.6047 21.5776 20.9208V21.6339C21.0272 21.0769 20.2715 20.7627 19.4824 20.7627H18.2252V21.1754C18.2271 22.7702 19.5393 24.0625 21.1586 24.0643H21.5776V25.3482C21.0272 24.7912 20.2715 24.477 19.4824 24.477H18.2252V24.8897C18.2271 26.4844 19.5393 27.7768 21.1586 27.7786H21.5776V28.604H16.549V15.3977H27.4443V28.604ZM22.4576 26.9532C22.6581 25.9931 23.5156 25.3037 24.5109 25.3024H24.8881C24.6876 26.2625 23.83 26.952 22.8347 26.9532H22.4576ZM22.4576 23.2389C22.6581 22.2788 23.5156 21.5894 24.5109 21.5881H24.8881C24.6876 22.5482 23.83 23.2377 22.8347 23.2389H22.4576ZM21.5357 23.2389H21.1586C20.1633 23.2377 19.3057 22.5482 19.1052 21.5881H19.4824C20.4777 21.5894 21.3352 22.2788 21.5357 23.2389ZM21.5357 26.9532H21.1586C20.1633 26.952 19.3057 26.2625 19.1052 25.3024H19.4824C20.4777 25.3037 21.3352 25.9931 21.5357 26.9532Z" fill="#282828" stroke="#F3F7F5" stroke-width="0.3"/>
</svg>
