<svg width="44" height="44" viewBox="0 0 44 44" fill="none" xmlns="http://www.w3.org/2000/svg">
<g clip-path="url(#clip0_8032_360934)">
<path d="M18.4787 25.4443H18.0469V25.0121C18.0469 19.5889 19.9686 17.666 25.3879 17.666H25.8196V18.098C25.8196 23.5212 23.8981 25.4443 18.4787 25.4443ZM24.9506 18.5356C20.4759 18.622 19.0023 20.0967 18.916 24.5745C23.3906 24.4881 24.8643 23.0136 24.9506 18.5356Z" fill="#282828"/>
<path d="M22.7482 20.1289L23.3588 20.7401L18.7826 25.3195L18.1719 24.7085L22.7482 20.1289Z" fill="#282828"/>
<path d="M21.5001 31.2406L13.6086 23.3435C12.5721 22.2794 12 20.8803 12 19.4058C12 16.2998 14.5207 13.7773 17.6244 13.7773C19.017 13.7773 20.4097 14.3823 21.5001 15.4464C22.5904 14.3823 23.983 13.7773 25.3755 13.7773C28.4792 13.7773 30.9999 16.2998 30.9999 19.4058C30.9999 20.8857 30.4278 22.2848 29.3915 23.3435L21.5001 31.2406ZM17.6244 14.6415C14.9957 14.6415 12.8636 16.7752 12.8636 19.4058C12.8636 20.659 13.3494 21.8419 14.2239 22.7385L21.5001 30.0199L28.7761 22.7331C29.6506 21.8419 30.1364 20.659 30.1364 19.4058C30.1364 16.7806 28.0042 14.6415 25.3755 14.6415C24.0856 14.6415 22.7901 15.268 21.8185 16.3592L21.4947 16.7211L21.1708 16.3592C20.21 15.268 18.9145 14.6415 17.6244 14.6415Z" fill="#282828"/>
</g>
<defs>
<clipPath id="clip0_8032_360934">
<rect width="19" height="19" fill="white" transform="translate(12 13)"/>
</clipPath>
</defs>
</svg>
