<svg width="44" height="44" viewBox="0 0 44 44" fill="none" xmlns="http://www.w3.org/2000/svg">
<path d="M31 22.3518C31 19.8321 29.3298 17.7662 27.2317 17.6235L27.1875 17.2164C27.0643 16.0819 26.0842 15.1589 25.0026 15.1589H24.3333C24.1492 15.1589 24 15.316 24 15.5097C24 16.0902 23.5514 16.5623 23 16.5623C22.4486 16.5623 22 16.0901 22 15.5097C22 15.3159 21.8508 15.1589 21.6667 15.1589H20.9975C19.9159 15.1589 18.9358 16.0819 18.8126 17.2164L18.6021 19.1559L16.6057 17.0545C16.6346 16.888 16.65 16.7176 16.65 16.5447C16.65 15.7949 16.3726 15.09 15.8689 14.5598C15.7388 14.4228 15.5278 14.4228 15.3975 14.5598L12.0976 18.0333C11.9675 18.1703 11.9675 18.3925 12.0976 18.5295C12.6013 19.0598 13.271 19.3518 13.9832 19.3518C14.1475 19.3518 14.3094 19.3355 14.4676 19.3051L18.1634 23.1955L17.6801 27.6473C17.6712 27.6946 17.6667 27.7426 17.6667 27.7904C17.6667 29.1781 21.1553 29.5448 23 29.5448C24.8447 29.5448 28.3333 29.1781 28.3333 27.7904C28.3333 27.7426 28.3288 27.6945 28.3199 27.6473L28.2343 26.8585C29.877 26.2321 31 24.4277 31 22.3518ZM13.9832 18.65C13.5619 18.65 13.1603 18.5137 12.8241 18.261L15.6137 15.3246C15.8538 15.6785 15.9832 16.1011 15.9832 16.5447C15.9832 17.107 15.7752 17.6357 15.3974 18.0334C15.0197 18.431 14.5175 18.65 13.9832 18.65ZM15.1744 19.0568C15.428 18.9232 15.6625 18.7467 15.8688 18.5295C16.0752 18.3123 16.2428 18.0655 16.3697 17.7986L18.4309 19.9683C18.454 19.9926 18.4802 20.011 18.5074 20.0267L18.2601 22.3048L15.1744 19.0568ZM23 28.843C19.7373 28.843 18.3333 28.0441 18.3343 27.7818C18.3371 27.7691 18.3392 27.7562 18.3406 27.7433L19.4749 17.296C19.5608 16.5045 20.2438 15.8606 20.9974 15.8606H21.3668C21.5217 16.6603 22.1951 17.2641 23 17.2641C23.8049 17.2641 24.4783 16.6603 24.6332 15.8606H25.0026C25.7561 15.8606 26.4391 16.5045 26.5251 17.296L27.5296 26.548C27.5194 26.6001 27.5191 26.655 27.5332 26.7098C27.5384 26.73 27.5453 26.7492 27.5534 26.7675L27.6594 27.7433C27.6608 27.7562 27.6639 27.7777 27.6666 27.7904C27.6666 28.0441 26.2627 28.843 23 28.843ZM28.156 26.1376L27.3089 18.3347C29.0026 18.524 30.3333 20.253 30.3333 22.3518C30.3333 24.0668 29.456 25.5603 28.156 26.1376Z" fill="#282828"/>
<path d="M25.3359 21.4746H20.6693C20.4852 21.4746 20.3359 21.6317 20.3359 21.8255V24.9834C20.3359 25.1771 20.4852 25.3342 20.6693 25.3342H25.3359C25.52 25.3342 25.6692 25.1771 25.6692 24.9834V21.8255C25.6693 21.6317 25.52 21.4746 25.3359 21.4746ZM25.0026 24.6325H21.0026V22.1764H25.0026V24.6325H25.0026Z" fill="#282828"/>
</svg>
