<svg width="44" height="44" viewBox="0 0 44 44" fill="none" xmlns="http://www.w3.org/2000/svg">
<g clip-path="url(#clip0_8032_360938)">
<path d="M24.6885 20.8184C23.8705 20.919 23.0481 20.9806 22.2246 21.0029L22.0303 21.0088V31.4971H24.9121V20.791L24.6885 20.8184ZM28.3145 20.1104C27.5958 20.3042 26.8707 20.4669 26.1416 20.5986L25.9775 20.6279V31.3916L26.2441 31.2969C27.5951 30.817 28.5664 29.5256 28.5664 28.0107V20.043L28.3145 20.1104ZM24.6924 18.124C23.8723 18.2075 23.0489 18.2593 22.2256 18.2783L22.0303 18.2832V19.9482L22.2363 19.9424C23.0758 19.9186 23.9094 19.8527 24.7383 19.7441L24.9121 19.7207V18.1016L24.6924 18.124ZM28.2129 17.5645V17.5654C27.5295 17.7141 26.84 17.8393 26.1475 17.9424L25.9775 17.9678V19.5518L26.2148 19.5059C26.9533 19.3632 27.689 19.1862 28.4219 18.9756L28.5664 18.9336V17.8506C28.5664 17.7611 28.5273 17.6795 28.457 17.623H28.458C28.4055 17.5807 28.3428 17.5581 28.2783 17.5576L28.2129 17.5645ZM14.9688 31.4775L14.9014 31.418C13.9587 30.5831 13.3643 29.3648 13.3643 28.0107V17.8506C13.3643 17.4893 13.5052 17.1493 13.7559 16.8965L13.8691 16.7939C14.1904 16.5351 14.6056 16.436 15.0088 16.5234V16.5244L15.0264 16.5283C17.1471 16.9887 19.2828 17.221 21.4189 17.2266H21.4297L21.4404 17.2256C21.4601 17.2235 21.4795 17.2227 21.498 17.2227C21.5168 17.2227 21.5362 17.2235 21.5557 17.2256L21.5664 17.2266H21.5771C23.4511 17.2216 25.3249 17.0425 27.1885 16.6875L27.9863 16.5244C28.3391 16.4477 28.7007 16.5131 29.001 16.7041L29.126 16.7939C29.4472 17.0529 29.6308 17.4371 29.6309 17.8496V28.0117C29.6307 29.3651 29.0367 30.5823 28.0947 31.417L28.0273 31.4766V34.2686C28.0273 34.5626 27.7892 34.8018 27.4951 34.8018C27.2011 34.8017 26.9629 34.5626 26.9629 34.2686V32.1641L26.6914 32.2666C26.1905 32.4569 25.6473 32.5615 25.0801 32.5615H17.915C17.3482 32.5615 16.8053 32.4576 16.3047 32.2676L16.0332 32.1641V34.2686C16.0332 34.5626 15.795 34.8008 15.501 34.8008C15.207 34.8007 14.9688 34.5625 14.9688 34.2686V31.4775ZM20.9658 21.0078L20.7715 21.002C19.9787 20.9791 19.1763 20.9205 18.3672 20.8262L18.1436 20.7998V31.4971H20.9658V21.0078ZM17.0791 20.6475L16.9121 20.6191C16.171 20.4951 15.4253 20.3423 14.6768 20.1602L14.4287 20.0996V28.0107C14.4287 29.5494 15.4311 30.857 16.8154 31.3184L17.0791 31.4062V20.6475ZM20.9658 18.2832L20.7705 18.2783C19.9673 18.2597 19.1634 18.2107 18.3633 18.1309L18.1436 18.1084V19.7314L18.3193 19.7529C19.1395 19.8543 19.9529 19.9169 20.7598 19.9414L20.9658 19.9473V18.2832ZM17.0791 17.9766L16.9082 17.9512C16.3736 17.8727 15.841 17.7805 15.3115 17.6748L14.7832 17.5654L14.7773 17.5635H14.7783L14.7197 17.5576C14.6676 17.5576 14.619 17.5718 14.5771 17.5957L14.5381 17.623H14.5371C14.4678 17.6792 14.4287 17.7609 14.4287 17.8506V19L14.5791 19.0391C15.341 19.2342 16.0957 19.3976 16.8438 19.5303L17.0791 19.5723V17.9766Z" fill="#282828" stroke="#F3F7F5" stroke-width="0.4"/>
<path d="M24.0215 10.4189C24.173 10.2111 24.4465 10.1453 24.6719 10.248L24.7646 10.3018C24.9726 10.4533 25.0393 10.7278 24.9365 10.9531L24.8818 11.0459L24.6777 11.3252C24.4804 11.5961 24.5058 11.9654 24.7197 12.208L24.8232 12.3037C25.4877 12.8052 25.7074 13.7029 25.3691 14.4482L25.2939 14.5947L24.9141 15.2598C24.8159 15.4313 24.6364 15.5282 24.4512 15.5283C24.384 15.5283 24.316 15.5149 24.251 15.4883L24.1875 15.458C23.9643 15.3304 23.8683 15.0652 23.9453 14.8301L23.9893 14.7314L24.3691 14.0664C24.5229 13.7974 24.4807 13.4633 24.2783 13.2412L24.1816 13.1533C23.4643 12.6117 23.2755 11.6094 23.7197 10.8477L23.8174 10.6982L24.0215 10.4189Z" fill="#282828" stroke="#F3F7F5" stroke-width="0.4"/>
<path d="M17.998 10.4189C18.1496 10.2111 18.4232 10.1453 18.6484 10.248L18.7412 10.3018C18.9492 10.4533 19.0159 10.7278 18.9131 10.9531L18.8584 11.0459L18.6543 11.3252C18.457 11.5961 18.4823 11.9654 18.6963 12.208L18.7998 12.3037C19.4641 12.8052 19.684 13.7029 19.3457 14.4482L19.2705 14.5947L18.8906 15.2598C18.7924 15.4313 18.6129 15.5272 18.4277 15.5273C18.3606 15.5273 18.2926 15.5149 18.2275 15.4883L18.1641 15.458C17.9405 15.3302 17.8443 15.0645 17.9219 14.8291L17.9658 14.7314L18.3457 14.0664C18.4994 13.7974 18.4572 13.4633 18.2549 13.2412L18.1582 13.1533C17.4409 12.6117 17.252 11.6093 17.6963 10.8477L17.7939 10.6982L17.998 10.4189Z" fill="#282828" stroke="#F3F7F5" stroke-width="0.4"/>
<path d="M21.0137 10.4189C21.1652 10.2111 21.4388 10.1453 21.6641 10.248L21.7568 10.3018C21.9648 10.4533 22.0315 10.7278 21.9287 10.9531L21.874 11.0459L21.6699 11.3252C21.4726 11.596 21.4979 11.9654 21.7119 12.208L21.8154 12.3037C22.4798 12.8052 22.6996 13.7029 22.3613 14.4482L22.2861 14.5947L21.9062 15.2598C21.8081 15.4313 21.6286 15.5282 21.4434 15.5283C21.3762 15.5283 21.3082 15.5149 21.2432 15.4883L21.1797 15.458C20.9564 15.3304 20.8605 15.0652 20.9375 14.8301L20.9814 14.7314L21.3613 14.0664C21.515 13.7974 21.4729 13.4634 21.2705 13.2412L21.1738 13.1533C20.4565 12.6117 20.2676 11.6094 20.7119 10.8477L20.8096 10.6982L21.0137 10.4189Z" fill="#282828" stroke="#F3F7F5" stroke-width="0.4"/>
</g>
<defs>
<clipPath id="clip0_8032_360938">
<rect width="25" height="25" fill="white" transform="translate(9 10)"/>
</clipPath>
</defs>
</svg>
