<svg width="44" height="44" viewBox="0 0 44 44" fill="none" xmlns="http://www.w3.org/2000/svg">
<g clip-path="url(#clip0_8032_360927)">
<path d="M25.875 26.0625V23.0938C25.8744 22.5428 25.6552 22.0146 25.2656 21.625C24.876 21.2354 24.3478 21.0163 23.7969 21.0156H20.2344C19.6834 21.0163 19.1552 21.2354 18.7656 21.625C18.376 22.0146 18.1569 22.5428 18.1562 23.0938V26.0625C18.1569 26.6135 18.376 27.1417 18.7656 27.5313C19.1552 27.9209 19.6834 28.14 20.2344 28.1406H23.7969C24.3478 28.14 24.876 27.9209 25.2656 27.5313C25.6552 27.1417 25.8744 26.6135 25.875 26.0625ZM22.0156 26.0625C22.2172 26.0619 22.413 26.1301 22.5705 26.256C22.728 26.3818 22.8378 26.5577 22.8816 26.7545C22.8941 26.809 22.9216 26.8588 22.9611 26.8983C23.0006 26.9378 23.0504 26.9653 23.1049 26.9778C23.2513 27.0105 23.3869 27.0799 23.4991 27.1795C23.6114 27.279 23.6964 27.4054 23.7464 27.5469H20.2848C20.3348 27.4054 20.4199 27.279 20.5321 27.1795C20.6443 27.0799 20.78 27.0105 20.9264 26.9778C20.9808 26.9653 21.0307 26.9378 21.0702 26.8983C21.1096 26.8588 21.1372 26.809 21.1496 26.7545C21.1935 26.5577 21.3033 26.3818 21.4608 26.256C21.6183 26.1301 21.814 26.0619 22.0156 26.0625ZM18.75 26.0625V23.0938C18.7505 22.7002 18.907 22.3229 19.1853 22.0447C19.4636 21.7664 19.8408 21.6098 20.2344 21.6094H23.7969C24.1904 21.6098 24.5677 21.7664 24.846 22.0447C25.1242 22.3229 25.2808 22.7002 25.2812 23.0938V26.0625C25.2805 26.3613 25.1895 26.653 25.0203 26.8993C24.8511 27.1456 24.6114 27.3351 24.3327 27.443C24.2702 27.2154 24.1538 27.0062 23.9934 26.833C23.8329 26.6599 23.6332 26.528 23.4109 26.4484C23.3253 26.2092 23.1791 25.9962 22.9866 25.8303C22.794 25.6644 22.5618 25.5513 22.3125 25.502V24.5544C22.8067 24.483 23.2587 24.2362 23.5857 23.8589C23.9128 23.4817 24.0932 22.9993 24.0938 22.5C24.0938 22.4213 24.0625 22.3458 24.0068 22.2901C23.9511 22.2344 23.8756 22.2031 23.7969 22.2031C23.4377 22.2037 23.0849 22.2973 22.7727 22.4749C22.4605 22.6525 22.1997 22.9079 22.0156 23.2164C21.8316 22.9079 21.5708 22.6525 21.2586 22.4749C20.9464 22.2973 20.5935 22.2037 20.2344 22.2031C20.1556 22.2031 20.0801 22.2344 20.0245 22.2901C19.9688 22.3458 19.9375 22.4213 19.9375 22.5C19.9381 22.9993 20.1184 23.4817 20.4455 23.8589C20.7726 24.2362 21.2246 24.483 21.7188 24.5544V25.502C21.4695 25.5514 21.2373 25.6645 21.0447 25.8304C20.8522 25.9963 20.706 26.2092 20.6203 26.4484C20.3984 26.5282 20.1989 26.6602 20.0387 26.8333C19.8785 27.0064 19.7624 27.2155 19.7 27.443C19.421 27.3353 19.1811 27.1459 19.0116 26.8996C18.8421 26.6533 18.7509 26.3615 18.75 26.0625ZM22.3505 23.9464C22.4137 23.6759 22.5513 23.4285 22.7477 23.2321C22.9441 23.0357 23.1915 22.8981 23.462 22.8349C23.3988 23.1053 23.2612 23.3527 23.0648 23.5492C22.8684 23.7456 22.621 23.8831 22.3505 23.9464ZM21.6807 23.9464C21.4103 23.8831 21.1629 23.7456 20.9665 23.5492C20.7701 23.3527 20.6325 23.1053 20.5693 22.8349C20.8397 22.8981 21.0871 23.0357 21.2835 23.2321C21.4799 23.4285 21.6175 23.6759 21.6807 23.9464Z" fill="#282828"/>
<path d="M31.4373 29.7034C31.3366 29.3701 31.1405 29.0736 30.8731 28.8506C30.6058 28.6275 30.2789 28.4877 29.933 28.4485C29.8279 28.1482 29.6446 27.8813 29.402 27.6755C29.1594 27.4697 28.8662 27.3323 28.5528 27.2776C28.5528 27.2595 28.5469 27.2414 28.5469 27.2233V26.2733C28.5466 24.0491 28.1745 21.8406 27.4461 19.739C27.5715 19.6803 27.6813 19.5928 27.7666 19.4838C27.852 19.3747 27.9104 19.247 27.9372 19.1112C27.9641 18.9753 27.9585 18.835 27.9211 18.7017C27.8836 18.5684 27.8152 18.4457 27.7216 18.3437C27.8377 18.2165 27.9142 18.0582 27.9418 17.8881C27.9693 17.7181 27.9468 17.5437 27.8769 17.3863C27.807 17.2288 27.6928 17.0952 27.5481 17.0016C27.4035 16.908 27.2348 16.8586 27.0625 16.8594H26.7407C26.6823 16.4638 26.5116 16.0934 26.249 15.7919C25.9864 15.4904 25.6428 15.2706 25.259 15.1586C25.0917 14.8949 24.8675 14.6721 24.6027 14.5066C24.338 14.341 24.0395 14.237 23.7292 14.202C23.5388 13.9231 23.2832 13.6948 22.9846 13.5371C22.686 13.3793 22.3534 13.2969 22.0156 13.2969C21.6779 13.2969 21.3453 13.3793 21.0467 13.5371C20.748 13.6948 20.4924 13.9231 20.3021 14.202C19.9918 14.237 19.6933 14.341 19.4286 14.5066C19.1638 14.6721 18.9396 14.8949 18.7723 15.1586C18.3885 15.2706 18.0449 15.4904 17.7823 15.7919C17.5196 16.0934 17.349 16.4638 17.2906 16.8594H16.9688C16.7965 16.8586 16.6278 16.908 16.4831 17.0016C16.3385 17.0952 16.2243 17.2288 16.1544 17.3863C16.0845 17.5437 16.0619 17.7181 16.0895 17.8881C16.1171 18.0582 16.1936 18.2165 16.3097 18.3437C16.216 18.4457 16.1477 18.5684 16.1102 18.7017C16.0728 18.835 16.0672 18.9753 16.094 19.1112C16.1209 19.247 16.1793 19.3747 16.2646 19.4838C16.35 19.5928 16.4598 19.6803 16.5852 19.739C15.8569 21.8401 15.4848 24.0481 15.4844 26.2718V27.2218C15.4852 27.4424 15.4241 27.6589 15.3081 27.8466C15.192 28.0343 15.0257 28.1857 14.828 28.2837C14.6678 28.3631 14.5331 28.4859 14.4392 28.6381C14.3453 28.7903 14.296 28.9658 14.2969 29.1446C14.2974 29.5081 14.442 29.8565 14.699 30.1135C14.956 30.3705 15.3044 30.5151 15.6679 30.5156H24.0412C23.8821 30.7855 23.7978 31.0929 23.7969 31.4062C23.7969 31.485 23.8282 31.5605 23.8838 31.6162C23.9395 31.6718 24.015 31.7031 24.0938 31.7031H32.4063C32.485 31.7031 32.5605 31.6718 32.6162 31.6162C32.6719 31.5605 32.7031 31.485 32.7031 31.4062C32.703 31.0241 32.5798 30.6521 32.3518 30.3454C32.1238 30.0387 31.8032 29.8136 31.4373 29.7034ZM16.9688 19.2344C16.89 19.2344 16.8145 19.2031 16.7588 19.1474C16.7032 19.0917 16.6719 19.0162 16.6719 18.9375C16.6719 18.8587 16.7032 18.7832 16.7588 18.7276C16.8145 18.6719 16.89 18.6406 16.9688 18.6406H27.0625C27.1412 18.6406 27.2168 18.6719 27.2724 18.7276C27.3281 18.7832 27.3594 18.8587 27.3594 18.9375C27.3594 19.0162 27.3281 19.0917 27.2724 19.1474C27.2168 19.2031 27.1412 19.2344 27.0625 19.2344H16.9688ZM19.0282 15.7063C19.0699 15.6973 19.1092 15.6793 19.1434 15.6537C19.1776 15.6281 19.2058 15.5954 19.2262 15.5579C19.3503 15.3308 19.5315 15.1401 19.7518 15.0044C19.9721 14.8686 20.224 14.7927 20.4826 14.7839C20.533 14.7822 20.5822 14.7677 20.6255 14.7417C20.6687 14.7158 20.7047 14.6792 20.7299 14.6355C20.8597 14.4092 21.0469 14.2211 21.2727 14.0904C21.4985 13.9596 21.7547 13.8907 22.0156 13.8907C22.2765 13.8907 22.5328 13.9596 22.7586 14.0904C22.9843 14.2211 23.1716 14.4092 23.3014 14.6355C23.3266 14.6792 23.3625 14.7158 23.4058 14.7417C23.4491 14.7677 23.4983 14.7822 23.5487 14.7839C23.8075 14.7925 24.0596 14.8683 24.2801 15.0041C24.5007 15.1398 24.682 15.3307 24.8063 15.5579C24.8266 15.5954 24.8549 15.6281 24.8891 15.6537C24.9232 15.6793 24.9625 15.6973 25.0043 15.7063C25.2842 15.7691 25.5401 15.9112 25.7412 16.1157C25.9424 16.3202 26.0802 16.5784 26.1383 16.8594H17.8929C17.9511 16.5783 18.0892 16.32 18.2906 16.1155C18.4919 15.9109 18.7481 15.7689 19.0282 15.7063ZM16.9688 17.4531H27.0625C27.1412 17.4531 27.2168 17.4844 27.2724 17.5401C27.3281 17.5957 27.3594 17.6712 27.3594 17.75C27.3594 17.8287 27.3281 17.9042 27.2724 17.9599C27.2168 18.0156 27.1412 18.0469 27.0625 18.0469H16.9688C16.89 18.0469 16.8145 18.0156 16.7588 17.9599C16.7032 17.9042 16.6719 17.8287 16.6719 17.75C16.6719 17.6712 16.7032 17.5957 16.7588 17.5401C16.8145 17.4844 16.89 17.4531 16.9688 17.4531ZM14.8906 29.1446C14.8904 29.0764 14.9093 29.0095 14.9451 28.9515C14.981 28.8935 15.0323 28.8467 15.0934 28.8163C15.39 28.6693 15.6395 28.4422 15.8136 28.1606C15.9877 27.879 16.0793 27.5543 16.0781 27.2233V26.2733C16.0779 24.0779 16.4511 21.8984 17.1816 19.8281H26.8497C27.58 21.8979 27.9532 24.0769 27.9531 26.2718V27.2218C27.9531 27.239 27.9555 27.2565 27.9561 27.274C27.6408 27.3274 27.3456 27.4644 27.1013 27.6707C26.857 27.877 26.6725 28.1451 26.567 28.447C26.2211 28.4863 25.8942 28.626 25.6269 28.8491C25.3595 29.0721 25.1634 29.3686 25.0628 29.7019C24.8997 29.7526 24.7448 29.8267 24.6029 29.9219H15.6679C15.4618 29.9217 15.2642 29.8398 15.1185 29.694C14.9727 29.5483 14.8908 29.3507 14.8906 29.1446ZM24.4283 31.1094C24.4853 30.8908 24.6034 30.693 24.7689 30.5392C24.9343 30.3854 25.1402 30.2819 25.3623 30.241C25.4212 30.23 25.4755 30.2015 25.5179 30.1591C25.5603 30.1167 25.5888 30.0624 25.5998 30.0035C25.6479 29.735 25.7874 29.4914 25.9947 29.314C26.2019 29.1366 26.4641 29.0364 26.7368 29.0303C26.7484 29.0321 26.7742 29.0348 26.7861 29.0351C26.856 29.0371 26.9244 29.0144 26.9792 28.971C27.034 28.9275 27.0717 28.8661 27.0857 28.7976C27.1402 28.5291 27.2858 28.2878 27.4979 28.1145C27.71 27.9411 27.9755 27.8464 28.2494 27.8464C28.5233 27.8464 28.7888 27.9411 29.0009 28.1145C29.213 28.2878 29.3587 28.5291 29.4132 28.7976C29.4261 28.8666 29.4635 28.9287 29.5186 28.9723C29.5736 29.0159 29.6425 29.0382 29.7127 29.0351C29.7293 29.0351 29.7457 29.0327 29.7338 29.0321C30.0109 29.0323 30.2793 29.1296 30.4921 29.307C30.705 29.4845 30.849 29.7309 30.899 30.0035C30.91 30.0624 30.9386 30.1167 30.981 30.1591C31.0234 30.2015 31.0776 30.23 31.1365 30.241C31.3589 30.2817 31.565 30.3851 31.7307 30.5389C31.8963 30.6927 32.0146 30.8906 32.0717 31.1094H24.4283Z" fill="#282828"/>
</g>
<defs>
<clipPath id="clip0_8032_360927">
<rect width="19" height="19" fill="white" transform="translate(14 13)"/>
</clipPath>
</defs>
</svg>
