<svg width="44" height="44" viewBox="0 0 44 44" fill="none" xmlns="http://www.w3.org/2000/svg">
<g clip-path="url(#clip0_8032_360936)">
<path d="M12.8125 27.6123C13.1441 27.6123 13.459 27.8381 13.6934 28.2148C13.927 28.5904 14.0752 29.1084 14.0752 29.6719C14.0752 30.2353 13.927 30.7534 13.6934 31.1289C13.459 31.5056 13.1441 31.7314 12.8125 31.7314C12.4809 31.7314 12.166 31.5056 11.9316 31.1289C11.698 30.7533 11.5498 30.2353 11.5498 29.6719C11.5498 29.1084 11.698 28.5904 11.9316 28.2148C12.166 27.8381 12.4809 27.6123 12.8125 27.6123ZM12.8125 28.3564C12.7497 28.3564 12.6812 28.3978 12.6182 28.457C12.5528 28.5185 12.4844 28.6071 12.4229 28.7197C12.2996 28.9452 12.2002 29.2699 12.2002 29.6719C12.2002 30.0738 12.2996 30.3985 12.4229 30.624C12.4844 30.7366 12.5528 30.8252 12.6182 30.8867C12.6812 30.946 12.7497 30.9873 12.8125 30.9873C12.8753 30.9873 12.9438 30.946 13.0068 30.8867C13.0722 30.8252 13.1406 30.7366 13.2021 30.624C13.3254 30.3985 13.4248 30.0738 13.4248 29.6719C13.4248 29.2699 13.3254 28.9452 13.2021 28.7197C13.1406 28.6071 13.0722 28.5185 13.0068 28.457C12.9438 28.3978 12.8753 28.3564 12.8125 28.3564Z" fill="#282828" stroke="#F3F7F5" stroke-width="0.1"/>
<path d="M24.25 27.6123H25.75C25.9241 27.6123 26.0752 27.7733 26.0752 27.9844C26.0752 28.1955 25.9241 28.3564 25.75 28.3564H24.25C24.0759 28.3564 23.9248 28.1954 23.9248 27.9844C23.9248 27.7733 24.0759 27.6123 24.25 27.6123Z" fill="#282828" stroke="#F3F7F5" stroke-width="0.1"/>
<path d="M25.1504 11.7705C26.5977 11.4446 28.3409 11.5282 29.665 12.1084L29.9238 12.2314C30.8357 12.6977 31.3252 13.35 31.3252 14.0625V18.6113L31.3926 18.5869L33.1494 17.9277C33.3093 17.8682 33.4853 17.9595 33.5498 18.1377L33.5703 18.2188L33.9453 20.75C33.9577 20.8337 33.9449 20.9188 33.9102 20.9912L33.8682 21.0596L31.3359 24.3154L31.3252 24.3291V30.9375C31.3252 31.6055 30.895 32.2202 30.0898 32.6787L29.9238 32.7686C29.0352 33.2229 27.932 33.4137 26.9248 33.4189L26.5 33.4092L26.4932 33.4102C26.4157 33.417 26.6115 33.4194 25.0156 33.4199C23.4214 33.4204 20.0404 33.4189 12.8125 33.4189C12.0567 33.4189 11.3676 33.0033 10.8652 32.3252C10.363 31.6471 10.0498 30.7089 10.0498 29.6719C10.0498 28.6347 10.3629 27.6957 10.8652 27.0176C11.3675 26.3397 12.0569 25.9248 12.8125 25.9248H22.4248V14.0625C22.4248 13.4949 22.7173 13.0102 23.2061 12.6221C23.6954 12.2335 24.3789 11.9442 25.1504 11.7705ZM14.6748 26.6709C14.6417 26.6714 14.6189 26.6722 14.6035 26.6729C14.5958 26.6732 14.5891 26.6734 14.584 26.6738C14.5799 26.6742 14.5734 26.6751 14.5674 26.6768C14.5652 26.6773 14.555 26.6794 14.5459 26.6875C14.5401 26.6926 14.5314 26.7031 14.5293 26.7188C14.5272 26.7348 14.5333 26.748 14.5381 26.7549C14.5454 26.7652 14.5552 26.7698 14.5566 26.7705H14.5576C14.7721 27.0083 14.9591 27.2921 15.1045 27.585L15.1191 27.6123H17.5C17.6741 27.6123 17.8252 27.7733 17.8252 27.9844C17.8252 28.1954 17.6741 28.3564 17.5 28.3564H15.3994L15.416 28.4189C15.7964 29.8664 15.4866 31.5398 14.5586 32.5703V32.5713C14.5575 32.5718 14.5506 32.5756 14.5439 32.582C14.5404 32.5855 14.5335 32.5936 14.5303 32.6064C14.5265 32.6221 14.5304 32.6367 14.5381 32.6475C14.5443 32.6561 14.5512 32.6612 14.5547 32.6631C14.5586 32.6652 14.5624 32.6663 14.5645 32.667C14.5712 32.6691 14.5784 32.6696 14.582 32.6699C14.5869 32.6704 14.5932 32.6706 14.6006 32.6709C14.6156 32.6716 14.6381 32.6724 14.6709 32.6729C14.802 32.6748 15.1076 32.6755 15.7998 32.6758L26.3125 32.6748C26.8937 32.6748 27.4163 32.341 27.7949 31.8105L27.8506 31.7314H25.375C25.2009 31.7314 25.0498 31.5704 25.0498 31.3594C25.0498 31.1483 25.2009 30.9873 25.375 30.9873H28.2119L28.2227 30.9531C28.5495 29.9709 28.4628 28.9032 28.1016 28.0801C27.7409 27.2587 27.1002 26.6689 26.3125 26.6689C20.1343 26.6689 17.199 26.6673 15.8105 26.668C15.1165 26.6683 14.8082 26.6689 14.6748 26.6709ZM12.8125 26.6689C12.223 26.6689 11.6933 27.0118 11.3135 27.5557C10.9335 28.0998 10.7002 28.8487 10.7002 29.6719C10.7002 30.4951 10.9335 31.244 11.3135 31.7881C11.6933 32.3319 12.223 32.6748 12.8125 32.6748C13.402 32.6748 13.9317 32.3319 14.3115 31.7881C14.6915 31.244 14.9248 30.495 14.9248 29.6719C14.9248 28.8305 14.6844 28.0816 14.3008 27.542C13.9173 27.0026 13.3878 26.6689 12.8125 26.6689ZM30.5928 15.458C29.7352 16.178 28.3089 16.542 26.875 16.542C25.4411 16.542 24.0146 16.1779 23.1572 15.458L23.0752 15.3887V25.9248H26.3125C27.0681 25.9248 27.7575 26.3397 28.2598 27.0176C28.7621 27.6957 29.0752 28.6347 29.0752 29.6719C29.0752 30.7897 28.7118 31.7925 28.1396 32.4785L28.0508 32.584L28.1865 32.5596C28.9218 32.4259 29.5405 32.1868 29.9766 31.9004C30.4097 31.6159 30.6748 31.276 30.6748 30.9375V15.3887L30.5928 15.458ZM32.9346 18.791L31.3574 19.3818L31.3252 19.3945V23.21L31.4141 23.0957L33.2656 20.7158L33.2783 20.6992L33.2754 20.6777L33.002 18.8301L32.9922 18.7695L32.9346 18.791ZM26.875 12.3252C25.7956 12.3252 24.8507 12.5491 24.1738 12.875C23.8355 13.0379 23.5623 13.2275 23.373 13.4287C23.1841 13.6297 23.0752 13.8462 23.0752 14.0625C23.0752 14.2788 23.1841 14.4954 23.373 14.6963C23.5623 14.8975 23.8355 15.0871 24.1738 15.25C24.8507 15.5759 25.7956 15.7998 26.875 15.7998C27.9544 15.7998 28.8993 15.5759 29.5762 15.25C29.9145 15.0871 30.1877 14.8975 30.377 14.6963C30.5659 14.4954 30.6748 14.2788 30.6748 14.0625C30.6748 13.8462 30.5659 13.6297 30.377 13.4287C30.1877 13.2275 29.9145 13.0379 29.5762 12.875C28.8993 12.5491 27.9544 12.3252 26.875 12.3252Z" fill="#282828" stroke="#F3F7F5" stroke-width="0.1"/>
<path d="M24.625 17.9092C24.7991 17.9092 24.9502 18.0702 24.9502 18.2812V20.8125C24.9502 21.0236 24.7991 21.1846 24.625 21.1846C24.4509 21.1846 24.2998 21.0236 24.2998 20.8125V18.2812C24.2998 18.0702 24.4509 17.9092 24.625 17.9092Z" fill="#282828" stroke="#F3F7F5" stroke-width="0.1"/>
<path d="M28.75 19.1748C28.9241 19.1748 29.0752 19.3358 29.0752 19.5469V22.0781C29.0752 22.2892 28.9241 22.4502 28.75 22.4502C28.5759 22.4502 28.4248 22.2892 28.4248 22.0781V19.5469C28.4248 19.3358 28.5759 19.1748 28.75 19.1748Z" fill="#282828" stroke="#F3F7F5" stroke-width="0.1"/>
</g>
<defs>
<clipPath id="clip0_8032_360936">
<rect width="24" height="27" fill="white" transform="translate(10 9)"/>
</clipPath>
</defs>
</svg>
