<svg width="44" height="44" viewBox="0 0 44 44" fill="none" xmlns="http://www.w3.org/2000/svg">
<path d="M21.6602 23.3643C21.6084 23.3862 21.5542 23.3975 21.5 23.3975C21.4726 23.3974 21.4455 23.395 21.4189 23.3896L21.3408 23.3652L12.3467 19.5156C12.2132 19.4586 12.1219 19.3351 12.1035 19.1943L12.0996 19.1338C12.1028 18.9888 12.1831 18.8578 12.3066 18.7881L12.3623 18.7617L21.3555 15.3418C21.4252 15.3151 21.5006 15.3079 21.5732 15.3213L21.6445 15.3418L30.6377 18.7617C30.7731 18.8131 30.8693 18.9323 30.8936 19.0723L30.8994 19.1338C30.9023 19.2785 30.8287 19.4123 30.708 19.4873L30.6533 19.5156L21.6602 23.3643ZM21.4648 16.1699L13.8223 19.0762L13.5908 19.1641L13.8193 19.2617L21.4609 22.5322L21.5 22.5488L21.5391 22.5322L29.1807 19.2617L29.4082 19.1641L29.1768 19.0762L21.5352 16.1699L21.5 16.1562L21.4648 16.1699Z" fill="#282828" stroke="#F3F7F5" stroke-width="0.2"/>
<path d="M30.333 20.957C30.514 20.8795 30.7186 20.9437 30.8262 21.0986L30.8662 21.1709C30.9436 21.3514 30.8803 21.5573 30.7246 21.665L30.6523 21.7041L21.499 25.6211L12.3467 21.7041C12.1663 21.6267 12.0706 21.4349 12.1084 21.25L12.1328 21.1709C12.2102 20.9905 12.4028 20.8945 12.5879 20.9326L12.666 20.957L21.4609 24.7217L21.5 24.7383L21.5391 24.7217L30.333 20.957Z" fill="#282828" stroke="#F3F7F5" stroke-width="0.2"/>
<path d="M30.333 22.9844C30.5141 22.9066 30.7187 22.9715 30.8262 23.127L30.8662 23.1982C30.9436 23.3789 30.8803 23.5847 30.7246 23.6924L30.6523 23.7314L21.499 27.6484L12.3467 23.7314C12.1662 23.654 12.0706 23.4622 12.1084 23.2773L12.1328 23.1982C12.2102 23.0179 12.4028 22.922 12.5879 22.96L12.666 22.9844L21.4609 26.749L21.5 26.7656L21.5391 26.749L30.333 22.9844Z" fill="#282828" stroke="#F3F7F5" stroke-width="0.2"/>
<path d="M12.5879 24.9854L12.666 25.0098L21.4609 28.7744L21.5 28.791L21.5391 28.7744L30.333 25.0098C30.5142 24.9326 30.7187 24.9966 30.8262 25.1514L30.8662 25.2236C30.9435 25.4041 30.8801 25.609 30.7246 25.7168L30.6523 25.7568L21.499 29.6738L12.3467 25.7568C12.166 25.6793 12.0702 25.4868 12.1084 25.3018L12.1328 25.2236C12.2102 25.0432 12.4027 24.9473 12.5879 24.9854Z" fill="#282828" stroke="#F3F7F5" stroke-width="0.2"/>
</svg>
