<svg width="44" height="44" viewBox="0 0 44 44" fill="none" xmlns="http://www.w3.org/2000/svg">
<path fill-rule="evenodd" clip-rule="evenodd" d="M21.1544 23.7158C20.9724 23.7158 20.8099 23.5793 20.7839 23.3908C20.5889 21.9868 20.3939 20.7908 20.2834 20.3358C20.0884 19.5298 19.9389 19.1073 19.9389 19.1073C19.9324 19.0943 19.9324 19.0878 19.9259 19.0748C19.9259 19.0748 19.8154 18.6848 19.5359 18.1323C19.5294 18.1258 19.5294 18.1193 19.5294 18.1128L19.5229 18.1063C19.1004 17.2938 18.3139 16.1433 16.9424 15.2918C16.7669 15.1813 16.7149 14.9538 16.8189 14.7783C16.9229 14.6028 17.1569 14.5508 17.3324 14.6548C18.8469 15.5973 19.7179 16.8648 20.1794 17.7618L20.1924 17.7878V17.7943C20.4784 18.3598 20.6084 18.7758 20.6344 18.8668C20.6669 18.9513 20.8164 19.3868 20.9984 20.1668C21.1349 20.7453 21.3559 22.1623 21.5119 23.2933C21.5379 23.5013 21.3949 23.6898 21.1934 23.7158C21.1869 23.7158 21.1739 23.7158 21.1544 23.7158Z" fill="#282828"/>
<path fill-rule="evenodd" clip-rule="evenodd" d="M22.8751 23.7187C22.8556 23.7187 22.8426 23.7187 22.8231 23.7122C22.6151 23.6862 22.4721 23.4977 22.5046 23.2897C22.6606 22.1587 22.8816 20.7417 23.0181 20.1632C23.2066 19.3897 23.3561 18.9477 23.3821 18.8632C23.4081 18.7722 23.5316 18.3562 23.8241 17.7907C23.8241 17.7907 23.8241 17.7907 23.8241 17.7842C23.8241 17.7777 23.8306 17.7712 23.8306 17.7712L23.8371 17.7647C24.2986 16.8677 25.1696 15.6002 26.6841 14.6577C26.8596 14.5472 27.0936 14.6057 27.1976 14.7812C27.3081 14.9567 27.2496 15.1907 27.0741 15.2947C25.7026 16.1462 24.9161 17.2967 24.4936 18.1092L24.4871 18.1157C24.4806 18.1222 24.4806 18.1287 24.4741 18.1352C24.1946 18.6812 24.0841 19.0712 24.0841 19.0777C24.0841 19.0907 24.0776 19.0972 24.0711 19.1102C24.0711 19.1167 23.9151 19.5392 23.7266 20.3387C23.6161 20.7937 23.4211 21.9897 23.2261 23.3937C23.2196 23.5822 23.0636 23.7187 22.8751 23.7187Z" fill="#282828"/>
<path fill-rule="evenodd" clip-rule="evenodd" d="M33.6219 30.9851H10.4104C10.3064 30.9851 10.2089 30.9396 10.1374 30.8616C10.0659 30.7836 10.0334 30.6796 10.0399 30.5756C10.1699 28.9961 10.8849 27.5271 12.0614 26.4481C13.2379 25.3626 14.7654 24.7646 16.3709 24.7646C16.7349 24.7646 17.0924 24.7971 17.4499 24.8556C18.0089 24.2771 18.6654 23.8091 19.3934 23.4776C20.2189 23.1006 21.1029 22.9121 22.0194 22.9121C22.9359 22.9121 23.8199 23.1006 24.6454 23.4776C25.3799 23.8091 26.0364 24.2771 26.5954 24.8556C26.9529 24.7971 27.3104 24.7646 27.6744 24.7646C29.2734 24.7646 30.8074 25.3626 31.9839 26.4481C33.1539 27.5271 33.8689 28.9961 34.0054 30.5756C34.0119 30.6796 33.9794 30.7836 33.9079 30.8616C33.8299 30.9396 33.7259 30.9851 33.6219 30.9851ZM10.8329 30.2311H33.1994C32.7769 27.5531 30.4239 25.5121 27.6679 25.5121C27.2844 25.5121 26.9009 25.5511 26.5304 25.6291C26.4004 25.6551 26.2639 25.6096 26.1794 25.5121C25.1199 24.3356 23.6054 23.6596 22.0194 23.6596C20.4334 23.6596 18.9189 24.3356 17.8594 25.5121C17.7684 25.6096 17.6384 25.6551 17.5084 25.6291C17.1379 25.5511 16.7544 25.5121 16.3709 25.5121C13.6084 25.5121 11.2554 27.5531 10.8329 30.2311Z" fill="#282828"/>
<path fill-rule="evenodd" clip-rule="evenodd" d="M30.6626 28.2482C30.5716 28.2482 30.4806 28.2157 30.4091 28.1507C29.6616 27.4617 28.6866 27.0782 27.6661 27.0782C27.4581 27.0782 27.2891 26.9092 27.2891 26.7012C27.2891 26.4932 27.4581 26.3242 27.6661 26.3242C28.8751 26.3242 30.0321 26.7727 30.9161 27.5982C31.0656 27.7412 31.0786 27.9752 30.9356 28.1247C30.8641 28.2027 30.7666 28.2482 30.6626 28.2482Z" fill="#282828"/>
<path fill-rule="evenodd" clip-rule="evenodd" d="M23.8363 25.6088C23.7843 25.6088 23.7323 25.5958 23.6803 25.5763C23.1538 25.3358 22.5948 25.2188 22.0098 25.2188C21.4248 25.2188 20.8658 25.3423 20.3393 25.5763C20.1508 25.6608 19.9298 25.5763 19.8453 25.3878C19.7608 25.1993 19.8453 24.9783 20.0338 24.8938C20.6578 24.6078 21.3208 24.4648 22.0163 24.4648C22.7053 24.4648 23.3748 24.6078 23.9988 24.8938C24.1873 24.9783 24.2718 25.1993 24.1873 25.3878C24.1158 25.5308 23.9793 25.6088 23.8363 25.6088Z" fill="#282828"/>
<path fill-rule="evenodd" clip-rule="evenodd" d="M13.3655 28.2482C13.2615 28.2482 13.164 28.2092 13.0925 28.1247C12.9495 27.9752 12.9625 27.7347 13.112 27.5982C14.0025 26.7792 15.153 26.3242 16.362 26.3242C16.57 26.3242 16.739 26.4932 16.739 26.7012C16.739 26.9092 16.57 27.0782 16.362 27.0782C15.3415 27.0782 14.3665 27.4617 13.619 28.1507C13.5475 28.2157 13.4565 28.2482 13.3655 28.2482Z" fill="#282828"/>
<path fill-rule="evenodd" clip-rule="evenodd" d="M18.3736 18.6083C17.8406 18.6083 17.2556 18.5043 16.7291 18.1728C16.1571 17.8088 15.7671 17.3928 15.5786 16.9313C15.4876 16.7103 15.4291 16.4828 15.3706 16.2618C15.3446 16.1578 15.3186 16.0538 15.2861 15.9563C15.1691 15.5533 14.9741 15.2738 14.6361 15.0268C14.6296 15.0203 14.6231 15.0203 14.6231 15.0138C14.5971 14.9878 14.3371 14.7863 14.0381 14.6758C13.9276 14.6303 13.8366 14.5393 13.8106 14.4223C13.7781 14.3053 13.8041 14.1818 13.8821 14.0908C15.1561 12.5503 17.7886 13.2783 17.9511 13.3303C19.4136 13.7268 20.3366 14.4093 20.6941 15.3583C21.2076 16.7233 20.3236 18.0818 20.2846 18.1403C20.2456 18.2053 20.1871 18.2508 20.1156 18.2768C20.0571 18.3028 19.2901 18.6083 18.3736 18.6083ZM15.0846 14.4353C15.5461 14.7733 15.8386 15.1893 16.0011 15.7483C16.0336 15.8588 16.0596 15.9693 16.0921 16.0733C16.1441 16.2748 16.1961 16.4698 16.2676 16.6453C16.3976 16.9638 16.6836 17.2628 17.1256 17.5423C18.0551 18.1273 19.3291 17.7568 19.7126 17.6268C19.8751 17.3343 20.3041 16.4438 19.9856 15.6183C19.7191 14.9098 18.9651 14.3833 17.7431 14.0518H17.7366C17.7171 14.0453 15.8971 13.5318 14.8181 14.2468C14.9481 14.3248 15.0456 14.4028 15.0846 14.4353ZM14.8571 14.3573C14.9351 14.3573 15.0131 14.3833 15.0781 14.4288C15.0781 14.4288 15.0846 14.4288 15.0846 14.4353C14.9741 14.3508 14.8181 14.3378 14.6946 14.3963C14.7466 14.3703 14.8051 14.3573 14.8571 14.3573Z" fill="#282828"/>
<path fill-rule="evenodd" clip-rule="evenodd" d="M25.6679 18.6097C24.7514 18.6097 23.9779 18.2977 23.9259 18.2782C23.8544 18.2522 23.7959 18.2002 23.7569 18.1417C23.7179 18.0832 22.8339 16.7247 23.3474 15.3597C23.7049 14.4107 24.6279 13.7282 26.0904 13.3317C26.2529 13.2862 28.8854 12.5517 30.1594 14.0922C30.2374 14.1832 30.2634 14.3067 30.2309 14.4237C30.1984 14.5407 30.1139 14.6382 30.0034 14.6772C29.7044 14.7942 29.4444 14.9957 29.4184 15.0152C29.4119 15.0217 29.4054 15.0217 29.4054 15.0282C29.0674 15.2752 28.8789 15.5482 28.7554 15.9577C28.7294 16.0552 28.7034 16.1527 28.6709 16.2632C28.6124 16.4842 28.5539 16.7052 28.4629 16.9327C28.2744 17.4007 27.8844 17.8167 27.3124 18.1742C26.7859 18.5057 26.2009 18.6097 25.6679 18.6097ZM24.3224 17.6282C24.7059 17.7582 25.9864 18.1222 26.9094 17.5437C27.3449 17.2707 27.6374 16.9652 27.7674 16.6467C27.8389 16.4712 27.8909 16.2762 27.9429 16.0747C27.9689 15.9707 28.0014 15.8602 28.0339 15.7497C28.1964 15.1972 28.4889 14.7747 28.9504 14.4367C28.9959 14.3977 29.0934 14.3262 29.2169 14.2482C28.8204 13.9882 28.2809 13.8582 27.6049 13.8712C26.8899 13.8842 26.2984 14.0532 26.2919 14.0532H26.2854C25.0699 14.3847 24.3159 14.9112 24.0429 15.6197C23.7309 16.4452 24.1599 17.3357 24.3224 17.6282Z" fill="#282828"/>
</svg>
