<svg width="44" height="44" viewBox="0 0 44 44" fill="none" xmlns="http://www.w3.org/2000/svg">
<mask id="mask0_8159_143514" style="mask-type:alpha" maskUnits="userSpaceOnUse" x="0" y="0" width="44" height="44">
<circle cx="22" cy="22" r="22" fill="#F9F9F9"/>
</mask>
<g mask="url(#mask0_8159_143514)">
<path d="M15 13.0996H19C19.4409 13.0996 19.866 13.2533 20.2041 13.5303L20.3438 13.6562C20.7001 14.0126 20.9004 14.4961 20.9004 15V19C20.9004 19.4409 20.7467 19.866 20.4697 20.2041L20.3438 20.3438C19.9874 20.7001 19.5039 20.9004 19 20.9004H15C14.5591 20.9004 14.134 20.7467 13.7959 20.4697L13.6562 20.3438C13.2999 19.9874 13.0996 19.5039 13.0996 19V15C13.0996 14.4961 13.2999 14.0126 13.6562 13.6562C14.0126 13.2999 14.4961 13.0996 15 13.0996ZM15 14.2334C14.8473 14.2334 14.6993 14.2788 14.5742 14.3623L14.458 14.458C14.3142 14.6018 14.2334 14.7967 14.2334 15V19C14.2334 19.1527 14.2788 19.3007 14.3623 19.4258L14.458 19.542C14.6018 19.6858 14.7967 19.7666 15 19.7666H19C19.2033 19.7666 19.3982 19.6858 19.542 19.542C19.6858 19.3982 19.7666 19.2033 19.7666 19V15C19.7666 14.8473 19.7212 14.6993 19.6377 14.5742L19.542 14.458C19.3982 14.3142 19.2033 14.2334 19 14.2334H15Z" fill="#282828" stroke="#F9F9F9" stroke-width="0.2"/>
<path d="M25 13.0996H29C29.4409 13.0996 29.866 13.2533 30.2041 13.5303L30.3438 13.6562C30.7001 14.0126 30.9004 14.4961 30.9004 15V19C30.9004 19.4409 30.7467 19.866 30.4697 20.2041L30.3438 20.3438C29.9874 20.7001 29.5039 20.9004 29 20.9004H25C24.5591 20.9004 24.134 20.7467 23.7959 20.4697L23.6562 20.3438C23.2999 19.9874 23.0996 19.5039 23.0996 19V15L23.1094 14.8125C23.1463 14.4396 23.2928 14.0858 23.5303 13.7959L23.6562 13.6562C24.0126 13.2999 24.4961 13.0996 25 13.0996ZM25 14.2334C24.7967 14.2334 24.6018 14.3142 24.458 14.458C24.3142 14.6018 24.2334 14.7967 24.2334 15V19C24.2334 19.1527 24.2788 19.3007 24.3623 19.4258L24.458 19.542C24.6018 19.6858 24.7967 19.7666 25 19.7666H29C29.1527 19.7666 29.3007 19.7212 29.4258 19.6377L29.542 19.542C29.6858 19.3982 29.7666 19.2033 29.7666 19V15C29.7666 14.8473 29.7212 14.6993 29.6377 14.5742L29.542 14.458C29.3982 14.3142 29.2033 14.2334 29 14.2334H25Z" fill="#282828" stroke="#F9F9F9" stroke-width="0.2"/>
<path d="M15 23.0996H19C19.4409 23.0996 19.866 23.2533 20.2041 23.5303L20.3438 23.6562C20.7001 24.0126 20.9004 24.4961 20.9004 25V29C20.9004 29.4409 20.7467 29.866 20.4697 30.2041L20.3438 30.3438C19.9874 30.7001 19.5039 30.9004 19 30.9004H15C14.5591 30.9004 14.134 30.7467 13.7959 30.4697L13.6562 30.3438C13.2999 29.9874 13.0996 29.5039 13.0996 29V25C13.0996 24.5591 13.2533 24.134 13.5303 23.7959L13.6562 23.6562C13.9681 23.3444 14.3774 23.1525 14.8125 23.1094L15 23.0996ZM15 24.2334C14.7967 24.2334 14.6018 24.3142 14.458 24.458C14.3142 24.6018 14.2334 24.7967 14.2334 25V29C14.2334 29.1527 14.2788 29.3007 14.3623 29.4258L14.458 29.542C14.6018 29.6858 14.7967 29.7666 15 29.7666H19C19.1527 29.7666 19.3007 29.7212 19.4258 29.6377L19.542 29.542C19.6858 29.3982 19.7666 29.2033 19.7666 29V25C19.7666 24.8473 19.7212 24.6993 19.6377 24.5742L19.542 24.458C19.3982 24.3142 19.2033 24.2334 19 24.2334H15Z" fill="#282828" stroke="#F9F9F9" stroke-width="0.2"/>
<path d="M25 23.0996H29C29.4409 23.0996 29.866 23.2533 30.2041 23.5303L30.3438 23.6562C30.7001 24.0126 30.9004 24.4961 30.9004 25V29C30.9004 29.4409 30.7467 29.866 30.4697 30.2041L30.3438 30.3438C29.9874 30.7001 29.5039 30.9004 29 30.9004H25C24.5591 30.9004 24.134 30.7467 23.7959 30.4697L23.6562 30.3438C23.2999 29.9874 23.0996 29.5039 23.0996 29V25L23.1094 24.8125C23.1463 24.4396 23.2928 24.0858 23.5303 23.7959L23.6562 23.6562C23.9681 23.3444 24.3774 23.1525 24.8125 23.1094L25 23.0996ZM25 24.2334C24.8473 24.2334 24.6993 24.2788 24.5742 24.3623L24.458 24.458C24.3142 24.6018 24.2334 24.7967 24.2334 25V29C24.2334 29.1527 24.2788 29.3007 24.3623 29.4258L24.458 29.542C24.6018 29.6858 24.7967 29.7666 25 29.7666H29C29.1527 29.7666 29.3007 29.7212 29.4258 29.6377L29.542 29.542C29.6858 29.3982 29.7666 29.2033 29.7666 29V25C29.7666 24.8473 29.7212 24.6993 29.6377 24.5742L29.542 24.458C29.3982 24.3142 29.2033 24.2334 29 24.2334H25Z" fill="#282828" stroke="#F9F9F9" stroke-width="0.2"/>
</g>
</svg>
