<svg width="44" height="44" viewBox="0 0 44 44" fill="none" xmlns="http://www.w3.org/2000/svg">
<path fill-rule="evenodd" clip-rule="evenodd" d="M17.4638 17.1476C17.3557 17.296 16.3409 20.2586 16.2627 20.6541C16.2106 20.918 16.3673 21.418 16.5414 21.5433C16.6287 21.6062 17.0505 21.6432 17.6798 21.6432C18.8088 21.6432 18.958 21.5839 19.0549 21.0965C19.1423 20.6573 19.407 18.3082 19.407 17.9717C19.407 17.4652 19.2245 17.2697 18.6146 17.1231C17.9031 16.952 17.6017 16.9584 17.4638 17.1476ZM17.2025 19.1221C16.9276 19.9538 16.7027 20.7134 16.7027 20.8099C16.7027 20.9776 16.7448 20.9864 17.6579 21.0093C18.5254 21.0311 18.6178 21.019 18.6639 20.8777C18.741 20.6419 19.0338 17.9719 18.9902 17.903C18.9487 17.8373 18.0649 17.6126 17.8411 17.6107C17.7175 17.6098 17.6474 17.7757 17.2025 19.1221ZM20.8955 20.0703C20.4224 20.1586 19.9801 20.2706 19.9128 20.3191C19.6941 20.4765 19.6221 20.7672 19.61 21.5408C19.5933 22.6122 19.5508 22.5694 21.3664 23.3128C22.1871 23.649 22.9277 23.924 23.0121 23.924C23.0966 23.924 23.228 23.8352 23.3042 23.7266C23.4683 23.4927 23.6742 22.4939 23.6313 22.1395C23.61 21.9636 23.4242 21.6611 22.9566 21.0416C22.1503 19.9736 22.0694 19.8864 21.8962 19.8993C21.819 19.905 21.3687 19.982 20.8955 20.0703ZM26.6702 20.5438C26.1052 20.651 25.6005 20.768 25.5487 20.8038C25.4969 20.8396 25.1783 21.3654 24.8407 21.9722C24.3014 22.9416 24.2269 23.114 24.2269 23.3925C24.2269 23.5668 24.2633 23.7917 24.3079 23.8921C24.4071 24.116 25.5336 25.3275 25.6425 25.3275C25.6857 25.3275 26.3032 24.9865 27.0147 24.5698C28.2998 23.8171 28.311 23.8083 28.7192 23.232C29.2081 22.542 29.318 22.2173 29.2048 21.7967C29.1626 21.6399 28.9522 21.2451 28.7375 20.9195L28.3468 20.3274L28.0221 20.3381C27.8436 20.3441 27.2352 20.4365 26.6702 20.5438ZM21.0062 20.6904C20.5328 20.7809 20.1131 20.8739 20.0735 20.8971C20.0221 20.9271 20.0062 21.1062 20.018 21.5263L20.0344 22.1136L21.5028 22.7146C22.3104 23.0453 22.9992 23.2987 23.0335 23.2779C23.0678 23.2571 23.1299 23.0161 23.1715 22.7424C23.2464 22.2488 23.2458 22.2431 23.1021 22.0537C22.4435 21.1848 21.9077 20.5048 21.8892 20.5144C21.8769 20.5206 21.4796 20.5999 21.0062 20.6904ZM26.77 21.1527C26.1988 21.2571 25.7208 21.3609 25.7078 21.3832C25.2607 22.1541 24.6156 23.3699 24.6156 23.4417C24.6156 23.5603 25.5794 24.6257 25.6867 24.6257C25.7293 24.6257 26.2905 24.3164 26.9338 23.9383C28.0522 23.2811 28.1194 23.2282 28.4678 22.7322C28.6682 22.4468 28.833 22.1553 28.834 22.0844C28.835 22.0134 28.6929 21.7272 28.5182 21.4484C28.1465 20.855 28.2778 20.8772 26.77 21.1527ZM13.7597 21.4174C13.3016 21.4734 12.8739 21.5654 12.8094 21.6217C12.5579 21.8415 12.5457 22.0878 12.675 24.3357C12.7412 25.4842 12.8221 26.5344 12.8549 26.6693C12.9573 27.0903 13.1262 27.1576 14.2385 27.2201C15.2308 27.2758 15.2624 27.2722 15.3832 27.0895C15.4516 26.9862 15.5237 26.7994 15.5435 26.6745C15.5634 26.5497 15.5575 25.3828 15.5304 24.0815L15.4811 21.7155L15.3253 21.5039C15.1458 21.2603 15.0762 21.2565 13.7597 21.4174ZM13.9151 22.0274C13.4508 22.0815 13.0466 22.1652 13.0168 22.2134C12.9456 22.3288 13.1678 26.2989 13.2532 26.4367C13.2914 26.4985 13.6631 26.5609 14.2174 26.5987C14.9499 26.6487 15.1246 26.6381 15.1466 26.5421C15.1616 26.4771 15.1554 25.4174 15.1331 24.1871L15.0924 21.9502L14.9258 21.9397C14.8342 21.9339 14.3793 21.9734 13.9151 22.0274ZM28.9037 23.7266C28.4509 24.209 27.2181 25.8851 27.1395 26.1251C27.0381 26.4348 27.0381 26.5886 27.1396 26.8985C27.2812 27.331 27.3958 27.3548 29.2082 27.3269C30.7438 27.3033 30.8881 27.288 30.9925 27.1386C31.193 26.8519 31.1904 26.5499 30.9786 25.4782C30.8702 24.9295 30.7355 24.4148 30.6794 24.3346C30.5772 24.1885 29.3604 23.4854 29.2099 23.4854C29.166 23.4854 29.0283 23.594 28.9037 23.7266ZM10.8683 23.9935C10.7439 24.1362 10.4978 24.4655 10.3213 24.725C9.95637 25.2616 9.9486 25.3172 10.071 26.5159C10.1936 27.7165 10.3764 27.8214 11.4368 27.2985C11.9829 27.0292 12.0759 26.9552 12.1488 26.7326C12.1949 26.5918 12.2326 26.4107 12.2326 26.3303C12.2326 26.1117 11.6858 24.1672 11.5736 23.9869C11.5201 23.901 11.3904 23.8089 11.2853 23.7823C11.1323 23.7435 11.0493 23.7855 10.8683 23.9935ZM28.6049 24.9031C27.7349 25.9977 27.4343 26.4686 27.5115 26.6155C27.5977 26.7795 30.6265 26.7845 30.7125 26.6208C30.7539 26.5421 30.72 26.2632 30.5938 25.6448L30.4173 24.7789L29.8259 24.4448L29.2346 24.1107L28.6049 24.9031ZM21.3516 24.392C21.282 24.4532 21.0384 24.9444 20.8102 25.4838C20.3441 26.5857 20.2967 26.8907 20.5258 27.3116L20.6563 27.5512L22.7886 27.8042C24.714 28.0325 24.938 28.0444 25.096 27.9259C25.3163 27.7608 25.4149 27.3258 25.3806 26.6716C25.3388 25.875 25.3308 25.8685 23.3439 25.0186C22.3875 24.6096 21.5765 24.2762 21.5416 24.2779C21.5067 24.2797 21.4212 24.331 21.3516 24.392ZM10.8027 24.8977C10.5389 25.246 10.4002 25.4923 10.4002 25.6124C10.4002 26.0319 10.5293 26.9229 10.596 26.9634C10.6832 27.0163 11.6784 26.566 11.7709 26.4318C11.8209 26.3592 11.7729 26.1058 11.5709 25.3757C11.4247 24.8474 11.2827 24.4041 11.2552 24.3906C11.2278 24.3772 11.0241 24.6054 10.8027 24.8977ZM21.4289 25.1822C21.0032 26.087 20.7196 26.8658 20.798 26.9152C20.8959 26.9768 24.8778 27.3963 24.9103 27.3484C24.9349 27.3121 24.9474 27.0734 24.938 26.8179L24.921 26.3535L23.7549 25.8524C23.1135 25.5769 22.3571 25.2511 22.074 25.1284L21.5592 24.9054L21.4289 25.1822Z" fill="#282828"/>
<path d="M19.75 21.1035V23.75H16.3467L17.2041 21.1768L18.9502 20.3037L19.75 21.1035Z" stroke="#282828" stroke-width="0.5"/>
<path d="M26.729 22.7134L24.5506 24.2162L22.618 21.4148L25.223 20.6594L26.9331 21.6008L26.729 22.7134Z" stroke="#282828" stroke-width="0.5"/>
<path d="M34.039 22.3275L32.4876 23.3978L31.3957 21.815L33.1765 21.2046L34.2143 21.6822L34.039 22.3275Z" stroke="#007657" stroke-opacity="0.5" stroke-width="0.5"/>
</svg>
