<svg width="29" height="29" viewBox="0 0 29 29" fill="none" xmlns="http://www.w3.org/2000/svg">
<g clip-path="url(#clip0_6195_247631)">
<path d="M5.60417 9.625H7.41667V11.4375C7.41667 11.8 7.65833 12.0417 8.02083 12.0417C8.38333 12.0417 8.625 11.8 8.625 11.4375V9.625H10.4375C10.8 9.625 11.0417 9.38333 11.0417 9.02083C11.0417 8.65833 10.8 8.41667 10.4375 8.41667H8.625V6.60417C8.625 6.24167 8.38333 6 8.02083 6C7.65833 6 7.41667 6.24167 7.41667 6.60417V8.41667H5.60417C5.24167 8.41667 5 8.65833 5 9.02083C5 9.38333 5.24167 9.625 5.60417 9.625Z" fill="#007657"/>
<path d="M17.6862 9.62435H22.5195C22.882 9.62435 23.1237 9.38268 23.1237 9.02018C23.1237 8.65768 22.882 8.41602 22.5195 8.41602H17.6862C17.3237 8.41602 17.082 8.65768 17.082 9.02018C17.082 9.38268 17.3237 9.62435 17.6862 9.62435Z" fill="#007657"/>
<path d="M5.90781 23.219C6.02865 23.3398 6.2099 23.4003 6.33073 23.4003C6.45156 23.4003 6.63281 23.3398 6.75365 23.219L8.0224 21.9503L9.29115 23.219C9.41198 23.3398 9.59323 23.4003 9.71406 23.4003C9.8349 23.4003 10.0161 23.3398 10.137 23.219C10.3786 22.9773 10.3786 22.6148 10.137 22.3732L8.86823 21.1044L10.137 19.8357C10.3786 19.594 10.3786 19.2315 10.137 18.9898C9.89531 18.7482 9.53281 18.7482 9.29115 18.9898L8.0224 20.2586L6.75365 18.9898C6.51198 18.7482 6.14948 18.7482 5.90781 18.9898C5.66615 19.2315 5.66615 19.594 5.90781 19.8357L7.17656 21.1044L5.90781 22.3732C5.66615 22.6148 5.66615 22.9773 5.90781 23.219Z" fill="#007657"/>
<path d="M17.6862 20.4993H22.5195C22.882 20.4993 23.1237 20.2577 23.1237 19.8952C23.1237 19.5327 22.882 19.291 22.5195 19.291H17.6862C17.3237 19.291 17.082 19.5327 17.082 19.8952C17.082 20.2577 17.3237 20.4993 17.6862 20.4993Z" fill="#007657"/>
<path d="M17.6862 22.9173H22.5195C22.882 22.9173 23.1237 22.6757 23.1237 22.3132C23.1237 21.9507 22.882 21.709 22.5195 21.709H17.6862C17.3237 21.709 17.082 21.9507 17.082 22.3132C17.082 22.6757 17.3237 22.9173 17.6862 22.9173Z" fill="#007657"/>
<rect x="0.4" y="0.4" width="28.2" height="28.2" rx="1.6" stroke="#007657" stroke-width="0.8"/>
</g>
<defs>
<clipPath id="clip0_6195_247631">
<rect width="29" height="29" fill="white"/>
</clipPath>
</defs>
</svg>
