<svg width="17" height="15" viewBox="0 0 17 15" fill="none" xmlns="http://www.w3.org/2000/svg">
<path d="M6.9541 0.0498047H10.0459C10.8532 0.0498993 11.6272 0.352186 12.1973 0.888672C12.7671 1.42511 13.0869 2.15201 13.0869 2.90918V4.41406H16.2275C16.3329 4.41411 16.4368 4.4359 16.5322 4.47754C16.6275 4.51912 16.7117 4.57933 16.7793 4.6543C16.8469 4.72941 16.8962 4.81769 16.9238 4.91211C16.9515 5.00649 16.9575 5.10565 16.9404 5.20215L15.7178 12.1064C15.5997 12.773 15.2344 13.3796 14.6855 13.8174C14.1367 14.2551 13.44 14.4957 12.7197 14.4961H4.28027C3.5599 14.4959 2.86344 14.2551 2.31445 13.8174C1.7654 13.3796 1.39939 12.7732 1.28125 12.1064L0.0595703 5.20215C0.0425238 5.10565 0.0485448 5.00649 0.0761719 4.91211C0.103832 4.81769 0.1531 4.72941 0.220703 4.6543C0.288258 4.57933 0.372533 4.51912 0.467773 4.47754C0.563168 4.4359 0.667091 4.41411 0.772461 4.41406H3.91309V2.90918C3.9131 2.15201 4.2329 1.42511 4.80273 0.888672C5.37275 0.352186 6.14676 0.0498992 6.9541 0.0498047ZM6.9541 1.4043C6.53202 1.40439 6.12648 1.56301 5.82715 1.84473C5.52786 2.12659 5.35938 2.50929 5.35938 2.90918V4.41406H9.27246C9.46509 4.41406 9.64981 4.4859 9.78516 4.61328C9.92023 4.74048 9.99503 4.91237 9.99512 5.09082C9.99512 5.26944 9.9204 5.44205 9.78516 5.56934C9.64982 5.69669 9.46507 5.76855 9.27246 5.76855H1.625L1.63477 5.82715L2.70801 11.8848C2.77032 12.2364 2.96322 12.5554 3.25098 12.7852C3.53881 13.0148 3.90382 13.1412 4.28027 13.1416H12.7197C13.0962 13.1414 13.4611 13.0157 13.749 12.7861C14.0372 12.5563 14.2296 12.2367 14.292 11.8848L15.3652 5.82715L15.375 5.76855H12.3643C12.1717 5.76855 11.9869 5.69664 11.8516 5.56934C11.7163 5.44205 11.6406 5.26944 11.6406 5.09082V2.90918C11.6406 2.50929 11.4721 2.12659 11.1729 1.84473C10.8735 1.56301 10.468 1.40439 10.0459 1.4043H6.9541Z" fill="#F87740" stroke="white" stroke-width="0.1"/>
</svg>
