<svg width="44" height="44" viewBox="0 0 44 44" fill="none" xmlns="http://www.w3.org/2000/svg">
<path d="M30.6986 14.7455L29.2466 13.2976C28.8393 12.9086 28.198 12.9086 27.7907 13.2976L22.6847 18.3995C22.2827 18.8015 22.2826 19.4533 22.6845 19.8553L23.1194 20.2902L22.5698 20.8603C21.6458 20.0652 20.4669 19.6286 19.2479 19.6299C17.9254 19.6233 16.6554 20.1461 15.7208 21.0817C13.863 22.9109 12.0667 31.1502 12.0093 31.4988C11.9616 31.7202 12.1026 31.9383 12.324 31.986C12.3553 31.9927 12.3873 31.9957 12.4194 31.995H12.5055C12.8541 31.9212 21.0729 30.1454 22.939 28.2793C24.7827 26.3968 24.8701 23.4135 23.1399 21.4262L23.6977 20.8603L24.1324 21.295C24.5344 21.697 25.1862 21.6971 25.5882 21.2951L30.6984 16.2013C31.1005 15.7993 31.1006 15.1475 30.6986 14.7455ZM22.3484 27.6929C21.0565 28.9847 15.6101 30.4366 12.9484 31.0477C13.5554 28.386 14.999 22.9437 16.3032 21.6477C17.0805 20.86 18.1412 20.4168 19.2479 20.4173C20.2492 20.4167 21.2189 20.7679 21.9875 21.4098L19.859 23.5589C19.6859 23.705 19.6641 23.9638 19.8103 24.1368C19.9565 24.3098 20.2152 24.3316 20.3883 24.1855C20.4043 24.1719 20.4193 24.1571 20.4331 24.1412L22.5698 22.0045C23.9727 23.6745 23.8768 26.137 22.3484 27.6929ZM30.112 15.623L25.006 20.7331C24.9244 20.8145 24.7923 20.8145 24.7107 20.7331L23.9848 20.0072L23.263 19.2854C23.1816 19.2038 23.1816 19.0717 23.263 18.9901L28.3731 13.8882C28.4547 13.8069 28.5867 13.8069 28.6683 13.8882L30.112 15.3277C30.1933 15.4094 30.1933 15.5414 30.112 15.623Z" fill="#282828"/>
</svg>
