<svg width="44" height="44" viewBox="0 0 44 44" fill="none" xmlns="http://www.w3.org/2000/svg">
<path d="M30.6481 31.2688C30.4873 31.105 30.4112 30.8752 30.4421 30.6469L30.6893 28.8114C31.2985 24.3068 31.2985 19.7398 30.6893 15.2352L30.4421 13.3998C30.4128 13.1588 30.4992 12.9182 30.6749 12.7521C31.2816 12.1392 31.2816 11.1471 30.6749 10.5342L30.6452 10.5043C30.037 9.89295 29.0526 9.89295 28.4444 10.5043C28.2735 10.6767 28.0292 10.753 27.7915 10.7082L26.3495 10.4354C23.2888 9.85486 20.1474 9.85486 17.0866 10.4354L15.6447 10.7082C15.4071 10.7521 15.1632 10.6759 14.9917 10.5043C14.3836 9.89295 13.3991 9.89295 12.791 10.5043L12.7613 10.5342C12.1546 11.1471 12.1546 12.1392 12.7613 12.7521L12.7836 12.7745C12.9457 12.9393 13.022 13.1712 12.9895 13.401L12.7901 14.8097C12.1509 19.3189 12.1232 23.8948 12.7077 28.4116L12.9961 30.6473C13.0233 30.8884 12.9354 31.1283 12.7592 31.2937C12.1515 31.906 12.1514 32.8989 12.759 33.5114L12.7592 33.5116L12.7889 33.5415C13.3971 34.1528 14.3815 34.1528 14.9897 33.5415C15.1603 33.3689 15.4047 33.2926 15.6423 33.3376L16.1317 33.4306C19.8189 34.1222 23.6126 33.9784 27.2378 33.0096L27.3659 32.9756C27.6184 32.9082 27.8874 32.9811 28.0724 33.167L28.4432 33.5406C29.0514 34.152 30.0358 34.152 30.644 33.5406L30.6736 33.5107C31.281 32.8906 31.2745 31.8917 30.6591 31.2796C30.6555 31.276 30.6518 31.2724 30.6481 31.2688ZM30.0923 31.8812V31.8816C30.378 32.1699 30.378 32.637 30.0923 32.9253L30.0627 32.9552C29.773 33.2343 29.3166 33.2343 29.027 32.9552L28.6562 32.5816C28.3635 32.2875 27.9671 32.1224 27.5537 32.1224C27.4194 32.1224 27.2856 32.1402 27.1558 32.1751L27.0276 32.2092C23.5213 33.1459 19.8521 33.2852 16.2858 32.6169L15.7963 32.5239C15.2913 32.4276 14.7717 32.5896 14.4088 32.9565C14.1191 33.2356 13.6628 33.2356 13.3731 32.9565L13.3434 32.9266C13.2047 32.7883 13.1269 32.5997 13.1276 32.4031C13.13 32.1936 13.2179 31.9945 13.3706 31.8525C13.7109 31.5075 13.8741 31.0235 13.8131 30.541L13.5247 28.3053C12.9501 23.863 12.9779 19.3627 13.6071 14.928L13.8065 13.5189C13.8742 13.0304 13.7112 12.5381 13.3661 12.1883L13.3438 12.1659C13.0579 11.8776 13.0579 11.4104 13.3438 11.1221L13.3735 11.0922C13.6596 10.8043 14.1231 10.8043 14.4092 11.0922C14.7721 11.459 15.2917 11.621 15.7967 11.5248L17.2387 11.2521C20.199 10.691 23.2372 10.691 26.1975 11.2521L27.6394 11.5248C28.1445 11.6209 28.664 11.4589 29.027 11.0922C29.3131 10.8043 29.7766 10.8043 30.0627 11.0922L30.0923 11.1221C30.2303 11.2603 30.3077 11.4484 30.307 11.6444C30.305 11.8523 30.2183 12.0501 30.0672 12.1916C29.7251 12.5393 29.5625 13.0274 29.6272 13.5127L29.8744 15.3482C30.4738 19.7781 30.4738 24.2694 29.8744 28.6993L29.6272 30.5348C29.5635 31.0324 29.7358 31.5311 30.0923 31.8812Z" fill="#282828"/>
<rect x="16.25" y="15.25" width="11.5" height="13.5" stroke="#282828" stroke-width="0.5"/>
<g clip-path="url(#clip0_8032_360926)">
<path d="M24.7043 19.2911C23.0283 17.6184 21.0777 17.5683 19.4866 19.1566C17.8581 20.782 17.6595 24.5567 18.5425 25.4381C18.891 25.7946 19.5914 25.9942 20.5154 26H20.5543C21.9448 26 23.7975 25.538 24.839 24.4986C26.4303 22.9102 26.38 20.9635 24.7043 19.2911ZM24.6046 24.2646C23.6303 25.237 21.8767 25.6693 20.5552 25.6691C20.5426 25.6691 20.5299 25.6691 20.5174 25.6691C19.707 25.664 19.0573 25.4912 18.7782 25.2056C18.4195 24.8474 18.2654 23.7742 18.4041 22.5953C18.5617 21.2544 19.054 20.0563 19.7209 19.3906C20.4317 18.6812 21.2046 18.3273 21.9893 18.3273C22.8232 18.3273 23.6704 18.7272 24.4698 19.5251C26.0216 21.0739 26.0707 22.8013 24.6046 24.2646Z" fill="#282828" stroke="#282828" stroke-width="0.2"/>
<path d="M20.0084 19.9865C19.9504 20.0717 18.5944 22.1032 19.1759 24.6861C19.1931 24.7631 19.2617 24.8153 19.3375 24.8153C19.3495 24.8153 19.3617 24.814 19.374 24.8114C19.4633 24.7913 19.5195 24.7028 19.4995 24.6137C18.9504 22.1745 20.2697 20.1922 20.283 20.1725C20.3344 20.0969 20.3145 19.994 20.2388 19.9427C20.1628 19.8914 20.06 19.9109 20.0084 19.9865Z" fill="#282828" stroke="#282828" stroke-width="0.2"/>
<path d="M22.887 19.601C22.887 19.811 22.7164 19.9812 22.506 19.9812C22.2956 19.9812 22.125 19.811 22.125 19.601C22.125 19.391 22.2956 19.2207 22.506 19.2207C22.7164 19.2207 22.887 19.391 22.887 19.601Z" fill="#282828"/>
<path d="M24.0276 19.8099C24.0276 20.02 23.8571 20.1902 23.6466 20.1902C23.4362 20.1902 23.2656 20.02 23.2656 19.8099C23.2656 19.5999 23.4362 19.4297 23.6466 19.4297C23.8571 19.4297 24.0276 19.5999 24.0276 19.8099Z" fill="#282828"/>
<path d="M23.2151 20.6185C23.2151 20.8285 23.0446 20.9988 22.8341 20.9988C22.6237 20.9988 22.4531 20.8285 22.4531 20.6185C22.4531 20.4085 22.6237 20.2383 22.8341 20.2383C23.0446 20.2383 23.2151 20.4085 23.2151 20.6185Z" fill="#282828"/>
</g>
<defs>
<clipPath id="clip0_8032_360926">
<rect width="8" height="8" fill="white" transform="translate(18 18)"/>
</clipPath>
</defs>
</svg>
