<svg width="44" height="44" viewBox="0 0 44 44" fill="none" xmlns="http://www.w3.org/2000/svg">
<path d="M30.9422 17.7964C30.9269 17.6392 30.8816 17.4873 30.8093 17.3505C30.7371 17.2136 30.6395 17.0949 30.5228 17.0018C30.4902 16.9752 30.4634 16.941 30.4442 16.9017C30.425 16.8625 30.4139 16.8191 30.4116 16.7746C30.3896 16.546 30.3253 16.3247 30.2226 16.1242C30.1199 15.9237 29.9809 15.7483 29.8142 15.6086C29.4725 15.3187 29.0416 15.1849 28.6118 15.2351C28.4129 15.2603 28.1979 15.3554 28.0291 15.194C27.3768 14.5946 26.1593 14.5331 25.3507 14.9726C25.1663 14.5927 24.8177 14.2964 24.3668 14.1459C24.0602 12.9323 22.6752 12.4634 21.5663 12.7034C20.9794 10.9706 18.2357 10.9403 17.1277 12.3754C15.9986 11.9879 14.3766 12.361 13.5332 13.2368C13.0428 13.7297 12.8203 14.314 12.9046 14.8842C11.7771 16.1046 12.8083 18.1272 14.3558 17.8069C14.9318 19.3776 17.3514 19.5135 18.5337 18.3438C19.0019 18.9151 20.094 19.2183 21.0879 19.1556C21.9837 20.1831 21.8293 21.1319 21.0894 21.681C20.4583 22.12 20.1595 22.6945 20.028 23.1786C19.8008 23.0726 19.5819 22.9465 19.3734 22.8014C21.108 21.8985 20.0601 19.796 18.3137 20.2728C17.8879 19.8253 17.1592 19.6334 16.5859 19.8091C16.0155 19.3547 15.0547 19.3642 14.4978 19.8343C13.6211 19.5416 12.5014 20.1176 12.4348 21.0204C11.4068 21.5351 11.7239 23.2214 12.8627 23.2384C13.1242 24.2008 14.4907 24.5543 15.3042 23.9974C15.7555 24.7177 16.9013 24.8126 17.5764 24.319C17.8333 24.3366 18.0907 24.2987 18.3342 24.2076C18.661 24.4957 19.0365 24.7104 19.4392 24.8392L19.9355 24.9973C19.865 25.8447 19.2727 26.728 18.8566 27.1151C17.7577 27.4641 17.0343 28.0137 16.818 28.6531H16.2399C16.0537 28.6534 15.8752 28.7346 15.7435 28.8789C15.6119 29.0232 15.5379 29.2188 15.5377 29.4227V29.5699C15.5213 30.7817 16.3293 31.8929 17.3809 32.1842V32.4744C17.3812 32.7655 17.4869 33.0446 17.6749 33.2504C17.8628 33.4563 18.1177 33.5721 18.3835 33.5724H18.596C18.8618 33.572 19.1165 33.4561 19.3044 33.2502C19.4922 33.0443 19.5978 32.7652 19.598 32.4741V32.2745H23.3996V32.4741C23.3999 32.7652 23.5055 33.0443 23.6934 33.2501C23.8813 33.456 24.136 33.5718 24.4018 33.5722H24.6143C24.8801 33.5718 25.1349 33.456 25.3229 33.2502C25.5108 33.0443 25.6166 32.7652 25.6169 32.4741V32.184C26.6688 31.8927 27.4765 30.781 27.46 29.5696V29.4224C27.4599 29.2185 27.3859 29.0229 27.2542 28.8786C27.1226 28.7343 26.9441 28.6532 26.7578 28.6529H26.1811C26.0131 28.1444 25.5329 27.7003 24.7749 27.3561C24.4473 27.0601 23.9596 26.6723 23.3238 26.2021C22.4221 25.5161 21.8402 24.7591 22.3775 23.8533C22.4884 23.6793 22.6296 23.5311 22.793 23.4171C23.486 22.9227 23.953 22.3499 24.1839 21.7122C25.2378 21.3985 26.0676 21.1564 26.7431 20.1266L27.2045 19.4231C27.8895 19.8626 29.1474 19.6885 29.6674 19.076C29.6749 19.0678 29.684 19.0616 29.694 19.0578C29.704 19.054 29.7147 19.0527 29.7252 19.054C30.3861 19.1536 31.0197 18.53 30.9422 17.7964ZM18.9031 17.9C18.8607 17.8473 18.8092 17.8042 18.7515 17.7734C18.6938 17.7425 18.6311 17.7245 18.567 17.7204C18.5029 17.7162 18.4387 17.726 18.3781 17.7492C18.3175 17.7724 18.2617 17.8085 18.214 17.8555C17.8971 18.1683 17.4632 18.3908 16.9924 18.4821C16.0194 18.6707 15.0971 18.2664 14.847 17.5416C14.8056 17.4225 14.7265 17.3237 14.6242 17.2631C14.5219 17.2025 14.4031 17.1841 14.2895 17.2113C13.6583 17.3747 13.0085 16.8731 12.9771 16.1796C12.9684 16.0156 12.9928 15.8515 13.0487 15.699C13.1045 15.5465 13.1903 15.4093 13.3001 15.2973C13.3601 15.2357 13.4049 15.1585 13.4305 15.0729C13.4561 14.9873 13.4616 14.896 13.4465 14.8074C13.3845 14.4353 13.5467 14.0356 13.9023 13.6775C14.6147 12.9334 16.0513 12.6178 17.0041 12.9592C17.0949 12.9899 17.192 12.9907 17.2832 12.9616C17.3745 12.9325 17.456 12.8748 17.5176 12.7955C17.8359 12.3884 18.3448 12.0917 18.9138 11.9813C19.9869 11.7734 20.9678 12.2679 21.0964 13.0843C21.1002 13.1295 21.1132 13.1732 21.1346 13.2121C21.1559 13.251 21.185 13.2841 21.2197 13.309C21.3587 13.4161 21.5296 13.3071 21.6751 13.2896C22.2094 13.186 22.7352 13.2534 23.1556 13.4793C23.5596 13.6984 23.8127 14.0298 23.8625 14.4298C23.8703 14.4903 23.8948 14.5469 23.9328 14.5917C23.9709 14.6365 24.0205 14.6675 24.0751 14.6804C24.547 14.7922 24.8783 15.0977 24.9398 15.4777C24.9896 15.7863 24.8583 16.1176 24.5796 16.387C24.4709 16.4934 24.3914 16.6309 24.3501 16.784C23.7644 18.5311 19.8746 19.1509 18.9031 17.9ZM24.2302 19.878C24.0669 19.2828 23.7715 18.7861 23.5372 18.4583C23.6573 18.3889 23.771 18.3156 23.8782 18.2383C24.0221 18.7887 24.705 19.1413 25.5193 19.0677C25.1149 19.4586 24.6188 19.7181 24.2301 19.8782L24.2302 19.878ZM17.8924 23.7101C17.7747 23.7282 17.6554 23.7295 17.5374 23.7141C17.4691 23.7051 17.4002 23.7246 17.3445 23.7687C17.1713 23.9023 16.9709 23.9876 16.7607 24.0171C16.2417 24.0953 15.7615 23.8518 15.6674 23.462C15.6551 23.4112 15.6308 23.3648 15.5969 23.3276C15.563 23.2903 15.5208 23.2635 15.4744 23.2499C15.4281 23.2362 15.3792 23.2362 15.3329 23.2498C15.2865 23.2633 15.2442 23.2901 15.2103 23.3273C15.0174 23.5389 14.7055 23.6652 14.376 23.6652C13.8232 23.6652 13.367 23.321 13.359 22.8979C13.3581 22.852 13.3476 22.8069 13.3283 22.7662C13.309 22.7255 13.2814 22.6902 13.2476 22.663C13.1306 22.5564 12.996 22.6363 12.8661 22.64C12.739 22.6402 12.6165 22.5887 12.5222 22.4955C12.4279 22.4024 12.3685 22.2741 12.3556 22.1358C12.3428 21.9974 12.3773 21.8587 12.4525 21.7466C12.5276 21.6345 12.6382 21.5569 12.7626 21.529C12.8296 21.514 12.889 21.4719 12.9291 21.4111C12.9691 21.3504 12.9869 21.2754 12.9788 21.201C12.9116 20.5395 13.8783 20.1786 14.4618 20.4489C14.5094 20.4683 14.561 20.4727 14.6107 20.4618C14.6605 20.4508 14.7065 20.4248 14.7435 20.3868C15.122 19.9753 15.9596 19.9678 16.3521 20.3663C16.3893 20.402 16.4346 20.426 16.4832 20.4356C16.5318 20.4453 16.582 20.4403 16.6282 20.4213C16.8556 20.3334 17.1011 20.3179 17.3362 20.3766C17.6148 20.442 17.8654 20.5979 18.0236 20.8044C18.0595 20.8512 18.1076 20.8848 18.1614 20.9007C18.2152 20.9167 18.2722 20.9142 18.3248 20.8936C18.8598 20.6565 19.6567 20.9091 19.7102 21.437C19.7564 21.804 19.4402 22.1843 18.9745 22.3216C18.939 22.3321 18.9057 22.3503 18.8768 22.3752C18.8478 22.4001 18.8238 22.4312 18.8061 22.4665C18.7481 22.5667 18.7815 22.6821 18.8031 22.7867C18.8572 23.2893 18.3168 23.6592 17.8922 23.7103L17.8924 23.7101ZM18.8632 23.8902C19.015 23.7586 19.14 23.5939 19.2303 23.4064C19.4545 23.5502 19.6882 23.6754 19.9294 23.781C19.918 23.9798 19.9233 24.1793 19.9451 24.377C19.5762 24.268 19.1773 24.1345 18.863 23.8903L18.8632 23.8902ZM19.0522 32.4738C19.0522 32.6063 19.0041 32.7334 18.9186 32.8271C18.833 32.9209 18.7171 32.9736 18.5961 32.9738H18.3836C18.2625 32.9737 18.1464 32.9209 18.0608 32.8272C17.9752 32.7335 17.9271 32.6063 17.927 32.4738V32.2723C17.9147 32.2759 19.0263 32.2734 19.0522 32.2741V32.4738ZM25.0711 32.4738C25.071 32.6063 25.0228 32.7334 24.9372 32.8272C24.8516 32.9209 24.7356 32.9737 24.6145 32.9738H24.402C24.281 32.9736 24.165 32.9209 24.0795 32.8271C23.994 32.7334 23.9459 32.6063 23.9458 32.4738V32.2741C23.971 32.2735 25.0854 32.2758 25.0711 32.2723V32.4738ZM24.9907 31.6761H18.0073C17.6599 31.6742 17.3193 31.5701 17.0213 31.3746C16.7232 31.1792 16.4785 30.8997 16.3129 30.5653H26.6851C26.5195 30.8997 26.2749 31.1793 25.9768 31.3748C25.6788 31.5703 25.3382 31.6745 24.9908 31.6765L24.9907 31.6761ZM26.9143 29.4221C26.9204 29.6047 26.9088 29.7875 26.8797 29.9675H16.1182C16.0955 29.8363 16.0839 29.7031 16.0837 29.5696V29.4224C16.0837 29.3769 16.1001 29.3333 16.1294 29.3012C16.1587 29.269 16.1984 29.2509 16.2399 29.2508C16.2399 29.2508 26.757 29.2508 26.758 29.2508C26.7995 29.2508 26.8393 29.2689 26.8686 29.3011C26.898 29.3332 26.9144 29.3768 26.9144 29.4223L26.9143 29.4221ZM25.5646 28.6525H17.4325C18.7913 26.8901 24.2106 26.8906 25.5645 28.6527L25.5646 28.6525ZM22.4952 22.9157C21.9054 23.3205 21.512 24.1049 21.6522 24.8388C21.7396 25.5568 22.4849 26.3597 23.2907 26.9007C22.1291 26.6869 20.9435 26.6823 19.7805 26.8869C20.2768 26.1913 20.5988 25.167 20.4811 24.2307C20.3884 23.4647 20.7163 22.6207 21.3753 22.1901C22.1848 21.6297 22.6753 20.3751 21.7449 19.0846C22.182 19.0123 22.6106 18.8879 23.0232 18.7138C24.093 20.1244 24.188 21.7442 22.4951 22.9158L22.4952 22.9157ZM26.2999 19.7773C25.783 20.5613 25.1537 20.8082 24.337 21.0405C24.3559 20.8513 24.3567 20.6604 24.3393 20.4711C24.9111 20.2454 25.7402 19.8113 26.2755 19.0592C26.4234 19.0984 26.5746 19.121 26.7266 19.1267L26.2999 19.7773ZM30.2899 18.2438C30.2297 18.3226 30.1524 18.3837 30.0651 18.4215C29.9778 18.4593 29.8832 18.4725 29.7901 18.46C29.696 18.4477 29.6007 18.4593 29.5114 18.4939C29.4221 18.5286 29.3413 18.5853 29.2753 18.6597C29.093 18.8653 28.7474 19.0185 28.3731 19.0599C27.8738 19.1151 27.4931 18.9659 27.3368 18.7926C27.2724 18.7107 27.1928 18.645 27.1032 18.5998C27.0136 18.5546 26.9162 18.531 26.8176 18.5307C26.6248 18.5333 26.4331 18.4983 26.2515 18.4272C26.0128 18.3076 25.7592 18.4456 25.5121 18.4682C24.9125 18.5344 24.4201 18.2927 24.3967 18.0404C24.3881 17.9472 24.4445 17.8564 24.4928 17.7976C24.6489 17.6094 24.759 17.3811 24.8127 17.1337C24.8586 17.0377 24.8662 16.9074 24.9407 16.8353C25.3142 16.4745 25.5103 16.0191 25.4954 15.562C26.1206 15.171 27.1703 15.1852 27.6887 15.6615C27.8034 15.7609 27.9373 15.8302 28.0802 15.8644C28.2231 15.8985 28.3713 15.8964 28.5133 15.8582C28.6792 15.814 28.852 15.8109 29.0191 15.8494C29.1862 15.8878 29.3433 15.9668 29.4789 16.0804C29.5892 16.1726 29.681 16.2888 29.7484 16.4217C29.8157 16.5546 29.8572 16.7014 29.8702 16.8528C29.8821 16.9773 29.9176 17.0977 29.9744 17.2064C30.0312 17.3151 30.108 17.4096 30.2 17.484C30.2535 17.5257 30.2986 17.5791 30.3324 17.6408C30.3662 17.7025 30.388 17.7711 30.3965 17.8425C30.4049 17.9138 30.3998 17.9863 30.3815 18.0554C30.3632 18.1245 30.332 18.1887 30.29 18.2439L30.2899 18.2438Z" fill="#282828"/>
<path d="M16.3824 15.2409C16.0789 15.4525 16.3502 15.948 16.6638 15.7533C16.8594 15.6354 17.0712 15.553 17.291 15.5095C17.732 15.4267 18.0862 15.5573 18.344 15.8969C18.3903 15.9579 18.4568 15.9962 18.5289 16.0035C18.601 16.0108 18.6728 15.9864 18.7285 15.9358C18.7842 15.8851 18.8193 15.8122 18.8259 15.7332C18.8326 15.6543 18.8103 15.5756 18.764 15.5146C18.0263 14.5425 16.8835 14.9104 16.3824 15.2409Z" fill="#282828"/>
<path d="M15.4486 21.1271C15.0076 20.9375 14.6258 20.9368 14.3133 21.1249C13.8585 21.3986 13.7524 21.9709 13.7481 21.9951C13.7406 22.0338 13.7402 22.0738 13.747 22.1127C13.7537 22.1515 13.7675 22.1886 13.7874 22.2216C13.8073 22.2546 13.833 22.283 13.863 22.3051C13.893 22.3271 13.9267 22.3425 13.9621 22.3502C13.9976 22.3579 14.0341 22.3578 14.0695 22.3499C14.1049 22.342 14.1385 22.3265 14.1684 22.3043C14.1983 22.2821 14.2239 22.2536 14.2437 22.2205C14.2635 22.1873 14.277 22.1502 14.2836 22.1113C14.2843 22.108 14.3491 21.7831 14.5793 21.6471C14.7427 21.5505 14.9681 21.5629 15.2491 21.6839C15.5885 21.8169 15.7807 21.2829 15.4486 21.1271Z" fill="#282828"/>
<path d="M28.2747 16.4491C27.9282 16.3512 27.7829 16.9021 28.123 17.0235C28.326 17.0948 28.6214 17.3084 28.5015 17.6759C28.4066 18.0546 28.911 18.224 29.0245 17.8477C29.249 17.074 28.6799 16.57 28.2747 16.4491Z" fill="#282828"/>
<path d="M22.6876 19.2769C22.6209 19.3074 22.568 19.3655 22.5403 19.4387C22.5126 19.5118 22.5125 19.594 22.54 19.6672C22.5552 19.7076 22.9045 20.6654 22.3437 21.4845C22.3002 21.5479 22.2816 21.6276 22.2918 21.7061C22.302 21.7846 22.3403 21.8555 22.3983 21.9031C22.4562 21.9506 22.529 21.9711 22.6007 21.9598C22.6723 21.9486 22.737 21.9067 22.7805 21.8433C23.5321 20.7456 23.0641 19.4897 23.0438 19.4367C23.0158 19.3639 22.9626 19.3061 22.8959 19.2762C22.8291 19.2462 22.7542 19.2465 22.6876 19.2769Z" fill="#282828"/>
</svg>
