<svg width="44" height="44" viewBox="0 0 44 44" fill="none" xmlns="http://www.w3.org/2000/svg">
<g clip-path="url(#clip0_8032_360928)">
<path d="M10.6971 28.9308C12.9329 33.3283 16.4527 33.4341 18.0267 32.119C18.601 32.4236 19.2471 32.7205 19.975 33.0049C20.341 33.148 20.7555 32.9662 20.8989 32.5995L21.18 31.8797C21.3362 31.4803 21.1066 31.0339 20.6909 30.9283C20.3734 30.8476 19.8547 30.6986 19.2483 30.4601C20.2209 29.0573 19.9376 27.4329 19.0304 25.9655C18.2697 24.7349 17.3719 23.9465 16.5798 23.251C15.412 22.2255 14.4897 21.4156 14.3736 19.5881C14.3344 18.9709 13.5739 18.7021 13.158 19.1588C11.7244 20.7324 8.61471 24.835 10.6971 28.9308ZM20.5178 31.6098C20.5244 31.6114 20.5276 31.6179 20.5251 31.6239L20.244 32.3436C20.2419 32.3489 20.2359 32.3518 20.231 32.3501C17.9409 31.4553 15.2745 29.9545 14.5082 27.6146C15.7029 29.6891 18.1878 31.0175 20.5178 31.6098ZM13.6723 19.6382C13.8084 21.7531 14.9293 22.7372 16.116 23.7792C16.9079 24.4747 17.7269 25.1938 18.4325 26.3351C19.6038 28.2299 19.1053 29.5012 18.5856 30.1762C16.799 29.3461 15.2213 28.0596 14.6517 26.1917C14.4758 25.6145 13.6199 25.7269 13.6083 26.3376V26.3376C13.5638 28.6938 15.3273 30.5198 17.3548 31.7401C15.9276 32.6363 13.1857 32.2741 11.3239 28.6122C9.44268 24.9121 12.3347 21.1083 13.6723 19.6382Z" fill="#282828"/>
<path d="M24.46 18.0933C23.4983 18.419 22.5038 18.7559 21.2297 18.816C21.0358 18.8251 20.886 18.9898 20.8951 19.1837C20.904 19.372 21.0594 19.5187 21.246 19.5187C21.2516 19.5187 21.2572 19.5185 21.2628 19.5182C22.6356 19.4535 23.7246 19.0846 24.6855 18.7592C26.1576 18.2606 27.3204 17.8669 28.961 18.6801C29.5151 18.9548 30.1279 18.4305 29.9405 17.842C29.2945 15.8135 27.2965 11.0691 22.7082 10.8247C17.7977 10.5633 15.9274 13.5455 16.2816 15.5786C15.7309 15.9236 15.1509 16.3345 14.5408 16.8226C14.2333 17.0687 14.1838 17.5175 14.4301 17.8253L14.9129 18.4288C15.1812 18.7642 15.6822 18.7879 15.9813 18.4808C16.21 18.2462 16.5985 17.8715 17.1084 17.4656C17.4342 18.1544 18.1145 19.0223 19.5209 19.372C19.709 19.4188 19.9001 19.3041 19.9469 19.1156C19.9937 18.9272 19.879 18.7364 19.6906 18.6896C18.5 18.3937 17.9441 17.6682 17.685 17.0339C19.2836 15.9112 21.1912 15.176 23.103 15.619C23.6926 15.7551 24.017 14.955 23.4983 14.6424C21.474 13.4229 19.0044 14.0456 16.9465 15.1857C16.8831 13.481 18.5936 11.3099 22.6708 11.5267C26.8135 11.7474 28.662 16.1494 29.268 18.0475C27.3685 17.1082 25.9558 17.5867 24.46 18.0933ZM21.9409 14.783C21.9393 14.783 21.9377 14.783 21.9361 14.783C19.5373 14.783 17.1453 16.279 15.4778 17.9902C15.4733 17.9947 15.4663 17.995 15.4619 17.9895L14.9791 17.3861C14.9755 17.3815 14.9761 17.3749 14.9801 17.3716C16.9075 15.8297 19.5364 14.2787 21.9409 14.783Z" fill="#282828"/>
<path d="M31.6913 22.1451C31.6679 21.4957 31.602 20.7879 31.4843 20.0156C31.4251 19.6269 31.0601 19.3593 30.6713 19.4183L29.9073 19.5346C29.4833 19.5992 29.2116 20.0211 29.328 20.4339C29.4169 20.7493 29.5472 21.2729 29.6437 21.9174C29.2177 21.8821 28.6948 21.9156 28.1415 22.1299C27.2319 22.4823 26.4643 23.2304 25.8602 24.3535C25.1749 25.6276 24.941 26.7993 24.7347 27.833C24.4305 29.3571 24.1903 30.5608 22.6656 31.575C22.4301 31.7317 22.3115 32.0121 22.3637 32.2893C22.4156 32.5653 22.6268 32.7824 22.9017 32.8424C25.7324 33.4614 29.0811 33.3844 31.3314 31.5132C31.4807 31.3891 31.501 31.1674 31.3769 31.0181C31.2527 30.8688 31.0311 30.8485 30.8818 30.9725C28.3998 33.0365 24.5955 32.4917 23.06 32.1571C24.8232 30.9818 25.1152 29.5191 25.4242 27.9705C25.6305 26.9369 25.8438 25.8681 26.4795 24.6865C27.5347 22.7245 28.8855 22.5207 29.7294 22.6333C29.9023 24.5798 29.5848 26.5985 28.2456 28.0324C28.0653 28.2253 28.0522 28.5163 28.2142 28.7243C28.3768 28.933 28.6655 28.9894 28.8937 28.8631C28.8937 28.8631 28.8937 28.8631 28.8937 28.863C30.9605 27.7216 31.6593 25.2681 31.6992 22.9172C32.2617 23.2147 32.7603 23.7912 33.0348 24.4896C33.7183 26.2283 32.9786 28.2908 31.9207 29.8302C31.8108 29.9903 31.8515 30.2091 32.0115 30.319C32.1716 30.4289 32.3904 30.3883 32.5004 30.2282C33.6951 28.4876 34.4645 26.2047 33.6891 24.2323C33.2971 23.2352 32.5466 22.4584 31.6913 22.1451ZM29.5496 27.4453C30.7589 25.3559 30.6485 22.5274 30.0047 20.2432C30.003 20.2368 30.0065 20.2308 30.0133 20.2297L30.7773 20.1134C30.784 20.1128 30.7885 20.1168 30.7894 20.1214C31.1577 22.5406 31.1914 25.6132 29.5496 27.4453Z" fill="#282828"/>
</g>
<defs>
<clipPath id="clip0_8032_360928">
<rect width="24" height="24" fill="white" transform="translate(10 10)"/>
</clipPath>
</defs>
</svg>
