<svg width="44" height="44" viewBox="0 0 44 44" fill="none" xmlns="http://www.w3.org/2000/svg">
<g clip-path="url(#clip0_8032_360929)">
<path d="M26.5273 13.0039C27.0622 13.0039 27.5783 13.2427 27.9717 13.6758L28.1328 13.873L28.292 14.0918C28.8918 14.9136 29.3843 16.252 29.5088 17.3359L29.5244 17.4697H33.3457C33.6433 17.4698 33.8494 17.6767 33.8496 17.8916C33.8496 18.1067 33.6435 18.3143 33.3457 18.3145H29.541V28.3516H33.3457C33.6436 28.3517 33.8496 28.5585 33.8496 28.7734C33.8496 28.9885 33.6435 29.1962 33.3457 29.1963H29.541V29.666C29.541 30.9334 28.355 31.998 26.8545 31.998H26.2002C24.6997 31.998 23.5137 30.9334 23.5137 29.666V29.1963H20.4863V29.665C20.4863 30.9324 19.3003 31.9971 17.7998 31.9971H17.1455C15.645 31.9971 14.459 30.9324 14.459 29.665V29.1963H10.6543C10.3565 29.1962 10.1504 28.9885 10.1504 28.7734C10.1504 28.5584 10.3565 28.3507 10.6543 28.3506H14.459V18.3135H10.6543C10.3567 18.3134 10.1506 18.1065 10.1504 17.8916C10.1504 17.6765 10.3565 17.4689 10.6543 17.4688H14.4766L14.4922 17.3359C14.6088 16.3193 15.0483 15.0791 15.5977 14.251L15.709 14.0908L15.8682 13.873L15.8672 13.8721C16.2747 13.3149 16.862 13.0039 17.4736 13.0039C18.0089 13.004 18.5247 13.2426 18.918 13.6758L19.0781 13.873L19.2383 14.0918C19.8385 14.9136 20.3297 16.252 20.4541 17.3359L20.4697 17.4688H23.5303L23.5459 17.3359C23.663 16.3191 24.1028 15.0791 24.6523 14.251L24.7637 14.0908L24.9219 13.873C25.3294 13.3158 25.9161 13.0039 26.5273 13.0039ZM17.4727 13.8506C17.229 13.8506 16.9944 13.9953 16.8057 14.2148L16.7285 14.3135H16.7275L16.5693 14.5312C16.2667 14.9456 15.9924 15.528 15.7939 16.1221C15.5957 16.7157 15.4678 17.336 15.4678 17.8301V29.666C15.4678 30.504 16.2399 31.1533 17.1455 31.1533H17.7998C18.7054 31.1533 19.4775 30.504 19.4775 29.666V17.8301C19.4775 17.3361 19.3496 16.7157 19.1514 16.1221C18.9778 15.6023 18.746 15.0922 18.4883 14.6953L18.377 14.5322L18.2168 14.3135C18.0172 14.0402 17.7507 13.8506 17.4727 13.8506ZM26.5273 13.8506C26.2837 13.8506 26.0493 13.9954 25.8604 14.2148L25.7822 14.3135V14.3145L25.624 14.5312C25.3214 14.9456 25.0471 15.528 24.8486 16.1221C24.6504 16.7157 24.5225 17.336 24.5225 17.8301V29.666C24.5225 30.504 25.2946 31.1533 26.2002 31.1533H26.8545C27.7601 31.1533 28.5322 30.504 28.5322 29.666V17.8301C28.5322 17.3361 28.4043 16.7157 28.2061 16.1221C28.0325 15.6023 27.8007 15.0922 27.543 14.6953L27.4316 14.5322L27.2715 14.3135C27.0719 14.0403 26.8058 13.8506 26.5273 13.8506ZM20.4863 28.3516H23.5137V18.3145H20.4863V28.3516Z" fill="#282828" stroke="#F3F7F5" stroke-width="0.3"/>
<circle cx="17.5" cy="28.5" r="0.5" fill="#282828"/>
<circle cx="26.5" cy="28.5" r="0.5" fill="#282828"/>
<circle cx="17.5" cy="16.5" r="0.5" fill="#282828"/>
<circle cx="26.5" cy="16.5" r="0.5" fill="#282828"/>
</g>
<defs>
<clipPath id="clip0_8032_360929">
<rect width="24" height="21" fill="white" transform="translate(10 12)"/>
</clipPath>
</defs>
</svg>
