<svg width="34" height="34" viewBox="0 0 34 34" fill="none" xmlns="http://www.w3.org/2000/svg">
<path d="M26.4648 8.43878L23.2908 5.75305C23.0458 5.54565 22.7353 5.43178 22.4143 5.43164H10.4526C10.1317 5.43196 9.82125 5.5457 9.57608 5.75278L6.40159 8.43878C6.24748 8.56933 6.1245 8.73269 6.04167 8.91691L6.03822 8.92567C5.96144 9.09862 5.9218 9.28576 5.92188 9.47498V24.1343C5.92223 24.4522 6.04867 24.7569 6.27347 24.9817C6.49826 25.2064 6.80304 25.3328 7.12091 25.3331H25.7468C26.0646 25.3327 26.3693 25.2063 26.594 24.9815C26.8187 24.7568 26.945 24.4521 26.9453 24.1343V9.47498C26.9455 9.27769 26.9026 9.08275 26.8196 8.90376C26.7366 8.72478 26.6155 8.56609 26.4648 8.43878ZM22.776 6.36133L25.512 8.67652H19.3229C19.3203 8.66695 19.3181 8.65527 19.3155 8.64623L18.7107 6.22905H22.414C22.5465 6.2289 22.6748 6.27578 22.776 6.36133ZM17.8885 6.22852L18.5465 8.8582C18.5968 9.06 18.6203 9.26757 18.6164 9.47552V15.4595C18.6167 15.4734 18.6133 15.487 18.6066 15.4991C18.5999 15.5112 18.59 15.5213 18.5781 15.5283C18.5616 15.5401 18.5414 15.5455 18.5213 15.5437L16.9772 14.6828C16.8242 14.5629 16.6354 14.4977 16.441 14.4974C16.2466 14.4971 16.0577 14.5618 15.9043 14.6812L14.3592 15.5376C14.3476 15.5422 14.335 15.5439 14.3226 15.5426C14.3101 15.5413 14.2982 15.537 14.2877 15.5302C14.2759 15.5232 14.2661 15.5131 14.2594 15.5011C14.2527 15.489 14.2494 15.4754 14.2498 15.4616V9.47498C14.2457 9.26077 14.2709 9.04701 14.3247 8.83961L14.9778 6.22852H17.8885ZM10.0901 6.36133C10.1914 6.27569 10.3197 6.22864 10.4524 6.22852H14.1562L13.557 8.62764C13.5525 8.64278 13.5493 8.66084 13.545 8.67652H7.35439L10.0901 6.36133ZM26.1482 24.1343C26.1481 24.2408 26.1058 24.343 26.0305 24.4183C25.9552 24.4937 25.8531 24.536 25.7465 24.5362H7.12011C7.01366 24.5359 6.91165 24.4935 6.83643 24.4181C6.7612 24.3428 6.71889 24.2408 6.71875 24.1343V9.47339H13.4534V15.4611C13.453 15.6096 13.4904 15.7557 13.5619 15.8858C13.6335 16.0159 13.7369 16.1257 13.8626 16.2049C13.9882 16.2841 14.1318 16.33 14.2801 16.3385C14.4283 16.3469 14.5763 16.3176 14.7101 16.2532C14.7172 16.25 14.7244 16.246 14.7316 16.242L16.3214 15.3607C16.3448 15.3477 16.3669 15.3324 16.3872 15.315C16.402 15.3022 16.4208 15.2952 16.4404 15.2952C16.4599 15.2952 16.4787 15.3022 16.4935 15.315C16.5139 15.3327 16.536 15.3483 16.5596 15.3615L18.1552 16.2503C18.289 16.3145 18.4369 16.3438 18.5851 16.3354C18.7333 16.327 18.8769 16.2811 19.0026 16.2022C19.1283 16.1232 19.2319 16.0137 19.3037 15.8838C19.3756 15.7539 19.4134 15.6079 19.4135 15.4595V9.47339H26.1484L26.1482 24.1343Z" fill="#007657"/>
<path d="M24.3735 28.4818C23.6515 27.9968 22.5877 28.2555 21.6347 28.5023C21.6511 28.2639 21.596 28.026 21.4762 27.8192C21.3564 27.6124 21.1776 27.4461 20.9626 27.3417C20.4662 27.0809 18.8512 26.6546 17.9122 26.4636C16.2463 26.1274 14.5156 26.3634 13.0005 27.1332C12.2137 27.5051 9.8518 29.0813 9.21749 30.0721C9.08989 30.2609 9.03446 30.4892 9.0613 30.7155C9.14099 31.4449 10.8527 33.0105 11.3951 33.1858C11.4998 33.2203 11.6094 33.2383 11.7197 33.2389C11.9107 33.2378 12.097 33.1795 12.2546 33.0715C12.3527 33.0083 12.4698 32.9146 12.6053 32.8059C12.9337 32.5147 13.3049 32.2758 13.706 32.0975C14.441 31.8385 15.5882 31.923 16.5092 31.9912C16.9403 32.0229 17.3132 32.0492 17.6142 32.0444C19.0416 32.0098 23.7674 30.8153 24.5791 30.0825C24.6823 29.9881 24.7624 29.8713 24.8133 29.741C24.8642 29.6108 24.8845 29.4706 24.8726 29.3313C24.859 29.1612 24.807 28.9964 24.7205 28.8493C24.6341 28.7022 24.5155 28.5765 24.3735 28.4818ZM24.0455 29.4896C23.4829 29.9969 19.022 31.2116 17.595 31.2459C17.3294 31.2531 16.9607 31.2252 16.5673 31.1962C15.5718 31.1235 14.3337 31.0323 13.4415 31.3466C12.9541 31.5516 12.5034 31.8348 12.1072 32.1849C11.9938 32.2757 11.8868 32.3613 11.8233 32.4022C11.7988 32.4239 11.7684 32.438 11.736 32.4428C11.7036 32.4475 11.6705 32.4426 11.6408 32.4287C11.2854 32.3129 9.93414 30.9986 9.85339 30.6278C9.84993 30.6055 9.85131 30.5828 9.85746 30.5611C9.8636 30.5394 9.87436 30.5193 9.88899 30.5022C10.3793 29.7358 12.5328 28.2372 13.3421 27.8539C14.2979 27.3759 15.3497 27.1211 16.4183 27.1085C16.8669 27.1091 17.3144 27.1547 17.7539 27.2448C18.7211 27.4315 19.6707 27.7002 20.5923 28.0478C20.674 28.079 20.7426 28.1369 20.7871 28.2121C20.8316 28.2873 20.8494 28.3753 20.8375 28.4619C20.8255 28.5361 20.7893 28.6043 20.7345 28.6558C20.6798 28.7074 20.6095 28.7394 20.5347 28.7469C20.1681 28.7731 19.7997 28.7499 19.4393 28.6778C18.7083 28.5716 17.8798 28.4531 17.1676 28.8505C17.0754 28.902 17.0073 28.9881 16.9785 29.0898C16.9497 29.1915 16.9624 29.3005 17.014 29.3928C17.0655 29.4851 17.1516 29.5531 17.2533 29.5819C17.355 29.6107 17.464 29.598 17.5563 29.5464C18.0325 29.2808 18.6897 29.3748 19.3256 29.4667C19.7554 29.5505 20.1948 29.5741 20.6311 29.5369H20.6425H20.6513H20.6572H20.6609C21.0312 29.4802 21.3976 29.4003 21.7579 29.2978C22.5282 29.0978 23.4861 28.8489 23.9294 29.1475C23.9705 29.1747 24.0051 29.2106 24.0308 29.2526C24.0566 29.2947 24.0728 29.3418 24.0784 29.3908C24.0812 29.4087 24.0797 29.427 24.074 29.4442C24.0682 29.4614 24.0585 29.477 24.0455 29.4896Z" fill="#007657"/>
<path d="M28.0758 3.63717C28.0757 3.46576 28.0295 3.29754 27.9421 3.1501C27.8546 3.00267 27.7292 2.88145 27.5788 2.79912L27.037 2.50242C26.9648 2.46297 26.9055 2.40359 26.8662 2.33136L26.5692 1.78868C26.4867 1.63858 26.3654 1.51338 26.218 1.42618C26.0706 1.33897 25.9024 1.29297 25.7312 1.29297C25.5599 1.29297 25.3917 1.33897 25.2443 1.42618C25.0969 1.51338 24.9756 1.63858 24.8931 1.78868L24.5961 2.33136C24.5567 2.40353 24.4975 2.46289 24.4253 2.50242L23.8827 2.79912C23.7325 2.88159 23.6072 3.00289 23.52 3.15034C23.4327 3.29779 23.3867 3.46597 23.3867 3.6373C23.3867 3.80863 23.4327 3.97681 23.52 4.12426C23.6072 4.27171 23.7325 4.39301 23.8827 4.47548L24.4253 4.77218C24.4974 4.81161 24.5567 4.87088 24.5961 4.94298L24.8931 5.48592C24.9756 5.63603 25.0969 5.76123 25.2443 5.84843C25.3917 5.93563 25.5599 5.98164 25.7312 5.98164C25.9024 5.98164 26.0706 5.93563 26.218 5.84843C26.3654 5.76123 26.4867 5.63603 26.5692 5.48592L26.8662 4.94325C26.9055 4.87109 26.9648 4.8118 27.037 4.77245L27.5796 4.47575C27.7299 4.39328 27.8553 4.27192 27.9426 4.1244C28.0298 3.97687 28.0759 3.80859 28.0758 3.63717ZM27.1966 3.77636L26.6537 4.07306C26.4479 4.1856 26.2787 4.35487 26.1663 4.56075L25.8711 5.10342C25.8573 5.12807 25.8371 5.1486 25.8127 5.16288C25.7883 5.17716 25.7605 5.18468 25.7322 5.18468C25.7039 5.18468 25.6762 5.17716 25.6517 5.16288C25.6273 5.1486 25.6072 5.12807 25.5933 5.10342L25.2963 4.56075C25.1837 4.35491 25.0145 4.18566 24.8086 4.07306L24.266 3.77636C24.2413 3.76251 24.2207 3.74233 24.2063 3.71789C24.192 3.69345 24.1845 3.66563 24.1845 3.6373C24.1845 3.60897 24.192 3.58115 24.2063 3.55671C24.2207 3.53227 24.2413 3.51209 24.266 3.49825L24.8086 3.20154C25.0145 3.08894 25.1837 2.9197 25.2963 2.71386L25.5922 2.17118C25.6061 2.14653 25.6263 2.12601 25.6507 2.11173C25.6751 2.09745 25.7029 2.08992 25.7312 2.08992C25.7594 2.08992 25.7872 2.09745 25.8116 2.11173C25.836 2.12601 25.8562 2.14653 25.8701 2.17118L26.1671 2.71386C26.2795 2.91973 26.4487 3.089 26.6545 3.20154L27.1974 3.49825C27.2221 3.51209 27.2427 3.53227 27.257 3.55671C27.2714 3.58115 27.2789 3.60897 27.2789 3.6373C27.2789 3.66563 27.2714 3.69345 27.257 3.71789C27.2427 3.74233 27.2221 3.76251 27.1974 3.77636H27.1966Z" fill="#007657"/>
<path d="M30.7027 7.32325L30.3351 7.12217C30.3295 7.11907 30.3248 7.11435 30.3218 7.10863L30.1208 6.741C30.0431 6.59835 29.9285 6.47927 29.7889 6.39629C29.6493 6.31332 29.4899 6.26953 29.3275 6.26953C29.1651 6.26953 29.0057 6.31332 28.8661 6.39629C28.7265 6.47927 28.6118 6.59835 28.5342 6.741L28.3331 7.10836C28.33 7.11411 28.3253 7.11882 28.3196 7.12191L27.9519 7.32298C27.8093 7.40061 27.6902 7.51526 27.6072 7.65487C27.5243 7.79447 27.4805 7.95387 27.4805 8.11627C27.4805 8.27868 27.5243 8.43807 27.6072 8.57768C27.6902 8.71729 27.8093 8.83194 27.9519 8.90956L28.3196 9.11064C28.3252 9.11381 28.3299 9.1185 28.3331 9.12419L28.5342 9.49181C28.6118 9.63446 28.7265 9.75355 28.8661 9.83652C29.0057 9.91949 29.1651 9.96328 29.3275 9.96328C29.4899 9.96328 29.6493 9.91949 29.7889 9.83652C29.9285 9.75355 30.0431 9.63446 30.1208 9.49181L30.3218 9.12419C30.3248 9.11846 30.3295 9.11374 30.3351 9.11064L30.7027 8.90956C30.8454 8.83194 30.9645 8.71729 31.0475 8.57768C31.1304 8.43807 31.1742 8.27868 31.1742 8.11627C31.1742 7.95387 31.1304 7.79447 31.0475 7.65487C30.9645 7.51526 30.8454 7.40061 30.7027 7.32298V7.32325ZM30.3205 8.2107L29.9529 8.41178C29.8135 8.48802 29.6988 8.6026 29.6225 8.74195L29.4216 9.10958C29.4126 9.12678 29.3991 9.14119 29.3825 9.15124C29.3659 9.1613 29.3469 9.16661 29.3275 9.16661C29.3081 9.16661 29.289 9.1613 29.2724 9.15124C29.2558 9.14119 29.2423 9.12678 29.2333 9.10958L29.0322 8.74195C28.956 8.60262 28.8414 8.48804 28.7021 8.41178L28.3344 8.2107C28.3172 8.20171 28.3028 8.18818 28.2928 8.17158C28.2827 8.15498 28.2774 8.13595 28.2774 8.11654C28.2774 8.09713 28.2827 8.07809 28.2928 8.06149C28.3028 8.04489 28.3172 8.03136 28.3344 8.02238L28.7021 7.8213C28.8417 7.74516 28.9566 7.63057 29.033 7.49113L29.2341 7.1235C29.2431 7.1063 29.2566 7.09189 29.2732 7.08184C29.2898 7.07178 29.3089 7.06647 29.3283 7.06647C29.3477 7.06647 29.3667 7.07178 29.3833 7.08184C29.3999 7.09189 29.4134 7.1063 29.4224 7.1235L29.6232 7.49113C29.6996 7.63048 29.8143 7.74506 29.9537 7.8213L30.3213 8.02238C30.3385 8.03144 30.3528 8.04503 30.3628 8.06167C30.3728 8.07831 30.378 8.09737 30.3779 8.11678C30.3779 8.13619 30.3725 8.1552 30.3623 8.17176C30.3522 8.18832 30.3378 8.20179 30.3205 8.2107Z" fill="#007657"/>
</svg>
