<svg width="24" height="24" viewBox="0 0 24 24" fill="none" xmlns="http://www.w3.org/2000/svg">
<path d="M22 15.8134H9.31108M4.83222 15.8134H3M4.83222 15.8134C4.83222 15.2335 5.0681 14.6774 5.48798 14.2673C5.90786 13.8573 6.47734 13.6269 7.07114 13.6269C7.66493 13.6269 8.23441 13.8573 8.65429 14.2673C9.07417 14.6774 9.31005 15.2335 9.31005 15.8134C9.31005 16.3934 9.07417 16.9495 8.65429 17.3596C8.23441 17.7696 7.66493 18 7.07114 18C6.47734 18 5.90786 17.7696 5.48798 17.3596C5.0681 16.9495 4.83222 16.3934 4.83222 15.8134ZM22 9.18656H18.8111M14.3322 9.18656H3M14.3322 9.18656C14.3322 8.60665 14.5681 8.05049 14.988 7.64043C15.4079 7.23037 15.9773 7 16.5711 7C16.8652 7 17.1563 7.05656 17.4279 7.16644C17.6996 7.27633 17.9464 7.43739 18.1543 7.64043C18.3622 7.84347 18.5271 8.08451 18.6396 8.3498C18.7521 8.61509 18.8101 8.89942 18.8101 9.18656C18.8101 9.4737 18.7521 9.75803 18.6396 10.0233C18.5271 10.2886 18.3622 10.5296 18.1543 10.7327C17.9464 10.9357 17.6996 11.0968 17.4279 11.2067C17.1563 11.3166 16.8652 11.3731 16.5711 11.3731C15.9773 11.3731 15.4079 11.1428 14.988 10.7327C14.5681 10.3226 14.3322 9.76647 14.3322 9.18656Z" stroke="#282828" stroke-miterlimit="10" stroke-linecap="round"/>
</svg>
