<svg width="14" height="14" viewBox="0 0 14 14" fill="none" xmlns="http://www.w3.org/2000/svg">
<path d="M5.89455 1.47344C5.31398 1.47344 4.73911 1.58779 4.20274 1.80997C3.66637 2.03214 3.17901 2.35779 2.76849 2.76831C2.35797 3.17884 2.03233 3.66621 1.81016 4.20258C1.58799 4.73896 1.47364 5.31385 1.47364 5.89442C1.47364 6.47499 1.58799 7.04988 1.81016 7.58625C2.03233 8.12263 2.35797 8.61 2.76849 9.02052C3.17901 9.43105 3.66637 9.7567 4.20274 9.97887C4.73911 10.201 5.31398 10.3154 5.89455 10.3154C7.06705 10.3154 8.19152 9.84962 9.0206 9.02052C9.84968 8.19143 10.3155 7.06694 10.3155 5.89442C10.3155 4.7219 9.84968 3.59741 9.0206 2.76831C8.19152 1.93922 7.06705 1.47344 5.89455 1.47344ZM6.84122e-09 5.89442C3.54155e-05 4.95433 0.224911 4.02789 0.65586 3.19241C1.08681 2.35692 1.71133 1.63662 2.47731 1.09163C3.24329 0.546637 4.12851 0.192752 5.05909 0.0595093C5.98966 -0.0737334 6.93862 0.0175306 7.82675 0.325685C8.71488 0.63384 9.51642 1.14995 10.1645 1.83093C10.8126 2.51192 11.2884 3.33804 11.5522 4.24035C11.816 5.14265 11.8602 6.09497 11.6811 7.01783C11.502 7.94069 11.1047 8.80733 10.5225 9.54541L13.7785 12.7359C13.8477 12.8036 13.9029 12.8843 13.9408 12.9734C13.9788 13.0624 13.9989 13.1581 14 13.2549C14.001 13.3517 13.9829 13.4478 13.9468 13.5376C13.9107 13.6275 13.8573 13.7093 13.7896 13.7785C13.7218 13.8477 13.6411 13.9029 13.5521 13.9408C13.463 13.9788 13.3674 13.9989 13.2705 14C13.1737 14.001 13.0777 13.9829 12.9878 13.9468C12.898 13.9107 12.8161 13.8573 12.747 13.7896L9.47254 10.5792C8.59907 11.2464 7.55648 11.656 6.46248 11.7619C5.36849 11.8678 4.26667 11.6657 3.28147 11.1785C2.29626 10.6912 1.4669 9.93824 0.887047 9.00451C0.307195 8.07079 -5.29372e-05 6.99354 6.84122e-09 5.89442Z" fill="white"/>
</svg>
