<svg width="18" height="13" viewBox="0 0 18 13" fill="none" xmlns="http://www.w3.org/2000/svg">
<path d="M9.00019 0C4.02963 0 0 3.89354 0 8.69651C0 11.3008 1.17422 12.9993 1.17422 12.9993L16.8224 13C16.8224 13 18 11.1438 18 8.69633C18 3.89354 13.9704 0 9.00019 0ZM16.1623 11.9406L1.86658 11.9346C1.86658 11.9346 1.10482 10.5538 1.10482 8.66907C1.10482 4.45945 4.65314 1.04663 9.03036 1.04663C13.4074 1.04663 16.9559 4.45927 16.9559 8.66907C16.9561 10.5751 16.1623 11.9406 16.1623 11.9406Z" fill="#FC3F1D"/>
<path d="M11.5437 2.30816L11.4308 2.30798L9.03007 6.81058L6.543 2.26953L3.13782 10.4731H2.25781V11.1319H7.07881V10.4731H6.12223L7.07881 7.9092L9.03007 11.1319L10.9049 7.9092L11.8613 10.4731H10.9049V11.1319H15.6875V10.4731H14.8589L11.5437 2.30816Z" fill="#FC3F1D"/>
</svg>
