<svg width="125" height="125" viewBox="0 0 125 125" fill="none" xmlns="http://www.w3.org/2000/svg">
<circle opacity="0.2" cx="53.3708" cy="53.3708" r="53.3708" fill="#007657"/>
<circle opacity="0.2" cx="53.3708" cy="71.6286" r="53.3708" fill="#007657"/>
<circle opacity="0.6" cx="71.6286" cy="64.6052" r="53.3708" fill="#007657"/>
<circle cx="60.3942" cy="58.988" r="53.3708" fill="#007657"/>
<path d="M84.2702 56.8851C84.2717 52.4907 83.0237 48.1865 80.6718 44.4745C78.32 40.7625 74.9612 37.7956 70.9872 35.92C67.0132 34.0445 62.5879 33.3374 58.2273 33.8814C53.8668 34.4254 49.7508 36.1979 46.3594 38.9923C42.968 41.7867 40.441 45.4878 39.0731 49.6638C37.7053 53.8399 37.553 58.3188 38.634 62.5781C39.715 66.8374 41.9848 70.7016 45.1785 73.7199C48.3722 76.7382 52.3583 78.7863 56.6719 79.6252L61.096 88.4862L65.5202 79.6252C70.7984 78.5987 75.5553 75.7686 78.9761 71.62C82.3968 67.4713 84.2684 62.2621 84.2702 56.8851Z" fill="white"/>
<path d="M61.0975 69.5362L70.2239 61.9308C71.3238 61.014 72.2087 59.8665 72.816 58.5698C73.4232 57.273 73.738 55.8585 73.7379 54.4266C73.7379 53.6442 73.5838 52.8695 73.2844 52.1466C72.985 51.4238 72.5462 50.767 71.9929 50.2138C71.4397 49.6605 70.7829 49.2217 70.06 48.9223C69.3372 48.6229 68.5625 48.4688 67.7801 48.4688C66.9976 48.4686 66.2228 48.6225 65.4998 48.9219C64.7769 49.2212 64.12 49.6599 63.5666 50.2131L61.0975 52.6822L58.6284 50.2131C58.075 49.6599 57.4181 49.2212 56.6951 48.9219C55.9722 48.6225 55.1974 48.4686 54.4149 48.4688C52.8348 48.4688 51.3194 49.0965 50.202 50.2138C49.0847 51.3311 48.457 52.8465 48.457 54.4266C48.457 55.8585 48.7717 57.273 49.379 58.5698C49.9862 59.8665 50.8712 61.014 51.9711 61.9308L61.0975 69.5362Z" fill="#FF7D45"/>
</svg>
