<svg width="125" height="125" viewBox="0 0 125 125" fill="none" xmlns="http://www.w3.org/2000/svg">
<circle opacity="0.2" cx="53.3708" cy="53.3708" r="53.3708" fill="#007657"/>
<circle opacity="0.2" cx="53.3708" cy="71.6286" r="53.3708" fill="#007657"/>
<circle opacity="0.6" cx="71.6286" cy="64.6052" r="53.3708" fill="#007657"/>
<circle cx="60.3942" cy="58.988" r="53.3708" fill="#007657"/>
<path d="M84.3483 57.1819C84.3498 52.7876 83.1018 48.4834 80.75 44.7714C78.3981 41.0593 75.0393 38.0925 71.0653 36.2169C67.0914 34.3413 62.666 33.6343 58.3055 34.1783C53.9449 34.7222 49.8289 36.4948 46.4375 39.2892C43.0461 42.0836 40.5191 45.7847 39.1513 49.9607C37.7834 54.1368 37.6311 58.6157 38.7121 62.875C39.7931 67.1343 42.0629 70.9985 45.2566 74.0168C48.4504 77.0351 52.4365 79.0832 56.75 79.9221L61.1742 88.7831L65.5983 79.9221C70.8765 78.8956 75.6335 76.0655 79.0542 71.9168C82.4749 67.7681 84.3465 62.559 84.3483 57.1819Z" fill="white"/>
<path d="M71.3265 49.0467C71.3253 48.996 71.3152 48.9459 71.2967 48.8987C71.2919 48.8863 71.2855 48.8755 71.2796 48.8638C71.2725 48.8463 71.2642 48.8292 71.2548 48.8128L69.5093 46.1945C69.4694 46.1347 69.4155 46.0856 69.3521 46.0517C69.2888 46.0178 69.2181 46 69.1462 46H55.1819C55.1101 46 55.0394 46.0177 54.976 46.0516C54.9127 46.0855 54.8587 46.1345 54.8188 46.1943L53.0733 48.8126C53.0639 48.8291 53.0556 48.8461 53.0485 48.8637C53.0426 48.8755 53.0363 48.8863 53.0315 48.8986C53.0129 48.9458 53.0028 48.9959 53.0016 49.0465C53.0016 49.0494 53 49.0517 53 49.0546V63.8917C53 64.0075 53.046 64.1185 53.1278 64.2003C53.2097 64.2822 53.3206 64.3281 53.4364 64.3281H70.8917C71.0075 64.3281 71.1185 64.2822 71.2003 64.2003C71.2822 64.1185 71.3281 64.0075 71.3281 63.8917V49.0547C71.3281 49.0519 71.3266 49.0495 71.3265 49.0467ZM70.0763 48.6183H65.0971L64.5153 46.8728H68.9127L70.0763 48.6183ZM63.595 46.8728L64.1769 48.6183H60.1512L60.7331 46.8728H63.595ZM59.9821 49.4911H64.346V52.7124L62.3593 51.719C62.2986 51.6888 62.2318 51.673 62.1641 51.673C62.0963 51.673 62.0295 51.6888 61.9689 51.719L59.9821 52.7124V49.4911ZM55.4155 46.8728H59.813L59.2312 48.6183H54.252L55.4155 46.8728ZM70.4554 63.4554H53.8728V49.4911H59.1094V53.4185C59.1094 53.4929 59.1284 53.5661 59.1646 53.6311C59.2008 53.696 59.2531 53.7507 59.3163 53.7898C59.3796 53.8289 59.4518 53.8512 59.5262 53.8545C59.6005 53.8579 59.6744 53.8421 59.741 53.8089L62.1641 52.5973L64.5872 53.8089C64.6537 53.8421 64.7276 53.8579 64.802 53.8545C64.8763 53.8512 64.9485 53.8289 65.0118 53.7898C65.0751 53.7507 65.1273 53.696 65.1635 53.6311C65.1997 53.5661 65.2188 53.4929 65.2188 53.4185V49.4911H70.4554V63.4554Z" fill="#F87740"/>
</svg>
