<svg width="125" height="125" viewBox="0 0 125 125" fill="none" xmlns="http://www.w3.org/2000/svg">
<circle opacity="0.2" cx="53.3708" cy="53.3708" r="53.3708" fill="#007657"/>
<circle opacity="0.2" cx="53.3708" cy="71.6286" r="53.3708" fill="#007657"/>
<circle opacity="0.6" cx="71.6286" cy="64.6052" r="53.3708" fill="#007657"/>
<circle cx="60.3942" cy="59.3708" r="53.3708" fill="#007657"/>
<path d="M71.1007 37.1699C67.0905 35.3729 62.6521 34.7532 58.3031 35.383C53.9541 36.0128 49.8738 37.8661 46.5382 40.7268C43.2025 43.5875 40.7489 47.3377 39.4636 51.5399C38.1783 55.7421 38.1143 60.2231 39.2791 64.4603C40.4438 68.6974 42.7892 72.5161 46.0418 75.4709C49.2944 78.4258 53.3201 80.3949 57.6493 81.1486C61.9786 81.9024 66.4329 81.4097 70.4927 79.7281C74.5526 78.0465 78.0506 75.2452 80.5789 71.651L90.4741 71.2337L84.1944 63.575C85.4142 58.3381 84.7749 52.84 82.3861 48.0227C79.9973 43.2054 76.0077 39.3686 71.1007 37.1699Z" fill="white"/>
</svg>
