<svg width="125" height="125" viewBox="0 0 125 125" fill="none" xmlns="http://www.w3.org/2000/svg">
<circle opacity="0.2" cx="53.3708" cy="53.3708" r="53.3708" fill="#007657"/>
<circle opacity="0.2" cx="53.3708" cy="71.6286" r="53.3708" fill="#007657"/>
<circle opacity="0.6" cx="71.6286" cy="64.6052" r="53.3708" fill="#007657"/>
<circle cx="60.3942" cy="59.3708" r="53.3708" fill="#007657"/>
<path d="M71.0968 37.1699C67.0866 35.3729 62.6482 34.7532 58.2992 35.383C53.9502 36.0128 49.8699 37.8661 46.5343 40.7268C43.1986 43.5875 40.745 47.3377 39.4597 51.5399C38.1744 55.7421 38.1104 60.2231 39.2751 64.4603C40.4399 68.6974 42.7853 72.5161 46.0379 75.4709C49.2905 78.4258 53.3162 80.3949 57.6454 81.1486C61.9746 81.9024 66.4289 81.4097 70.4888 79.7281C74.5487 78.0465 78.0467 75.2452 80.575 71.651L90.4702 71.2337L84.1905 63.575C85.4103 58.3381 84.771 52.84 82.3822 48.0227C79.9934 43.2054 76.0037 39.3686 71.0968 37.1699Z" fill="white"/>
<path d="M52.7676 59.4671C52.7676 58.7911 52.9409 58.3144 53.2876 58.0371C53.6342 57.7598 54.0502 57.6211 54.5356 57.6211C55.0382 57.6211 55.4629 57.7598 55.8096 58.0371C56.1562 58.3144 56.3296 58.7911 56.3296 59.4671C56.3296 60.1431 56.1562 60.6284 55.8096 60.9231C55.4629 61.2178 55.0382 61.3651 54.5356 61.3651C54.0502 61.3651 53.6342 61.2178 53.2876 60.9231C52.9409 60.6284 52.7676 60.1431 52.7676 59.4671ZM59.7616 59.4671C59.7616 58.7911 59.9349 58.3144 60.2816 58.0371C60.6282 57.7598 61.0442 57.6211 61.5296 57.6211C62.0322 57.6211 62.4569 57.7598 62.8036 58.0371C63.1502 58.3144 63.3236 58.7911 63.3236 59.4671C63.3236 60.1431 63.1502 60.6284 62.8036 60.9231C62.4569 61.2178 62.0322 61.3651 61.5296 61.3651C61.0442 61.3651 60.6282 61.2178 60.2816 60.9231C59.9349 60.6284 59.7616 60.1431 59.7616 59.4671ZM66.7296 59.4671C66.7296 58.7911 66.9029 58.3144 67.2496 58.0371C67.5962 57.7598 68.0122 57.6211 68.4976 57.6211C69.0002 57.6211 69.4249 57.7598 69.7716 58.0371C70.1182 58.3144 70.2916 58.7911 70.2916 59.4671C70.2916 60.1431 70.1182 60.6284 69.7716 60.9231C69.4249 61.2178 69.0002 61.3651 68.4976 61.3651C68.0122 61.3651 67.5962 61.2178 67.2496 60.9231C66.9029 60.6284 66.7296 60.1431 66.7296 59.4671Z" fill="#F87740"/>
</svg>
