<svg width="29" height="30" viewBox="0 0 29 30" fill="none" xmlns="http://www.w3.org/2000/svg">
<g clip-path="url(#clip0_8059_365038)">
<path d="M14.5 30.0039C22.5081 30.0039 29 23.2882 29 15.0039C29 6.71964 22.5081 0.00390625 14.5 0.00390625C6.49187 0.00390625 0 6.71964 0 15.0039C0 23.2882 6.49187 30.0039 14.5 30.0039Z" fill="#F96600"/>
<path d="M13.6056 18.8031C12.1516 18.6514 10.8408 18.2917 9.71923 17.4156C9.57945 17.3065 9.43627 17.2008 9.30843 17.0747C8.81752 16.6025 8.76809 16.0622 9.15673 15.5065C9.48911 15.0292 10.0465 14.9014 10.6278 15.1758C10.7394 15.2323 10.8465 15.2972 10.9482 15.3701C11.9876 16.0765 13.2127 16.4596 14.4694 16.4711C15.726 16.4826 16.958 16.1221 18.0101 15.4349C18.2112 15.2719 18.4431 15.1513 18.692 15.0803C18.9233 15.0119 19.171 15.0233 19.3951 15.1127C19.6193 15.202 19.8069 15.3641 19.9277 15.5729C20.2346 16.0741 20.2312 16.5616 19.8527 16.9502C19.2727 17.5368 18.5718 17.99 17.7988 18.2781C17.0462 18.5484 16.2629 18.7242 15.467 18.8014C15.5863 18.9326 15.6374 18.9957 15.7192 19.0707C16.7982 20.1565 17.8823 21.2372 18.9579 22.3247C19.1292 22.4804 19.2454 22.6876 19.2891 22.915C19.3327 23.1424 19.3014 23.3779 19.1999 23.586C19.0965 23.8142 18.9282 24.0068 18.716 24.1399C18.5038 24.2729 18.2571 24.3406 18.0067 24.3343C17.7138 24.3055 17.4427 24.1666 17.2482 23.9457C16.4334 23.1258 15.6033 22.3212 14.8056 21.486C14.5738 21.244 14.4647 21.29 14.2567 21.4997C13.4368 22.3519 12.6033 23.1752 11.7664 24.0002C11.611 24.1725 11.4028 24.2882 11.1745 24.3292C10.9461 24.3702 10.7107 24.3343 10.505 24.2269C10.2822 24.1229 10.0942 23.9567 9.96357 23.7483C9.83294 23.54 9.76526 23.2984 9.76866 23.0525C9.79327 22.7486 9.93508 22.4662 10.1641 22.265C11.2346 21.1979 12.3016 20.1303 13.3653 19.0622C13.4368 18.9889 13.505 18.9122 13.6056 18.8031Z" fill="white"/>
<path d="M14.4912 15.0904C13.5512 15.085 12.6341 14.8004 11.856 14.273C11.078 13.7455 10.4741 12.9988 10.121 12.1277C9.76788 11.2565 9.68145 10.3001 9.87265 9.37981C10.0638 8.45947 10.5241 7.61664 11.1949 6.95822C11.8658 6.2998 12.7171 5.85546 13.6409 5.68154C14.5647 5.50763 15.5193 5.61197 16.3836 5.98135C17.248 6.35072 17.9832 6.96848 18.496 7.75629C19.0088 8.54409 19.2761 9.46643 19.264 10.4063C19.2469 11.6587 18.7358 12.8536 17.8419 13.7309C16.948 14.6082 15.7437 15.0969 14.4912 15.0904ZM16.8486 10.3399C16.8473 9.88042 16.7096 9.4317 16.4531 9.05053C16.1965 8.66935 15.8327 8.37286 15.4076 8.1986C14.9824 8.02434 14.5152 7.98014 14.0649 8.0716C13.6146 8.16306 13.2016 8.38606 12.8782 8.71238C12.5547 9.03869 12.3354 9.45364 12.2479 9.90469C12.1604 10.3557 12.2087 10.8226 12.3868 11.2462C12.5648 11.6698 12.8644 12.031 13.2479 12.2841C13.6313 12.5373 14.0812 12.671 14.5407 12.6683C14.8453 12.6676 15.1468 12.6068 15.4278 12.4893C15.7089 12.3718 15.9639 12.1999 16.1784 11.9836C16.3928 11.7672 16.5624 11.5106 16.6774 11.2286C16.7925 10.9465 16.8506 10.6445 16.8486 10.3399Z" fill="white"/>
</g>
<defs>
<clipPath id="clip0_8059_365038">
<rect width="29" height="30" fill="white"/>
</clipPath>
</defs>
</svg>
