<svg width="29" height="30" viewBox="0 0 29 30" fill="none" xmlns="http://www.w3.org/2000/svg">
<g clip-path="url(#clip0_8059_365045)">
<path d="M14.5 30.0039C22.5081 30.0039 29 23.2882 29 15.0039C29 6.71964 22.5081 0.00390625 14.5 0.00390625C6.49187 0.00390625 0 6.71964 0 15.0039C0 23.2882 6.49187 30.0039 14.5 30.0039Z" fill="#4D76A1"/>
<path fill-rule="evenodd" clip-rule="evenodd" d="M13.956 21.5819H15.094C15.094 21.5819 15.4378 21.5429 15.6133 21.3471C15.7749 21.1674 15.7697 20.83 15.7697 20.83C15.7697 20.83 15.7475 19.2503 16.4562 19.0176C17.1549 18.7885 18.052 20.5444 19.003 21.2196C19.7221 21.7306 20.2685 21.6185 20.2685 21.6185L22.8111 21.5819C22.8111 21.5819 24.1412 21.4971 23.5105 20.4153C23.4588 20.3268 23.1432 19.615 21.62 18.1524C20.0258 16.6216 20.2393 16.8692 22.1597 14.2212C23.3294 12.6086 23.7969 11.6241 23.6509 11.2024C23.5116 10.8008 22.6514 10.9069 22.6514 10.9069L19.7885 10.9254C19.7885 10.9254 19.5763 10.8954 19.4189 10.9927C19.2651 11.0882 19.1661 11.3107 19.1661 11.3107C19.1661 11.3107 18.713 12.5586 18.1086 13.6198C16.8338 15.8592 16.3241 15.9774 16.1158 15.8384C15.6312 15.5143 15.7521 14.5365 15.7521 13.8418C15.7521 11.6716 16.0703 10.7668 15.1326 10.5326C14.8213 10.4548 14.5923 10.4034 13.7965 10.3951C12.775 10.3842 11.9104 10.3983 11.4208 10.6465C11.0952 10.8115 10.8439 11.1791 10.9969 11.2002C11.1861 11.2264 11.6147 11.3198 11.8419 11.6398C12.1353 12.0527 12.1249 12.98 12.1249 12.98C12.1249 12.98 12.2935 15.5346 11.7313 15.852C11.3454 16.0697 10.816 15.6253 9.67948 13.5936C9.09713 12.553 8.65747 11.4027 8.65747 11.4027C8.65747 11.4027 8.57269 11.1877 8.42148 11.0727C8.23796 10.9334 7.98155 10.889 7.98155 10.889L5.26109 10.9074C5.26109 10.9074 4.8527 10.9192 4.70278 11.1029C4.56941 11.2663 4.69218 11.6043 4.69218 11.6043C4.69218 11.6043 6.82203 16.759 9.23361 19.3567C11.4449 21.7383 13.956 21.5819 13.956 21.5819Z" fill="white"/>
</g>
<defs>
<clipPath id="clip0_8059_365045">
<rect width="29" height="30" fill="white"/>
</clipPath>
</defs>
</svg>
