<svg width="29" height="30" viewBox="0 0 29 30" fill="none" xmlns="http://www.w3.org/2000/svg">
<g clip-path="url(#clip0_8059_365050)">
<mask id="mask0_8059_365050" style="mask-type:luminance" maskUnits="userSpaceOnUse" x="0" y="0" width="29" height="31">
<path d="M29 15.0039C29 6.71964 22.5081 0.00390625 14.5 0.00390625C6.49187 0.00390625 0 6.71964 0 15.0039C0 23.2882 6.49187 30.0039 14.5 30.0039C22.5081 30.0039 29 23.2882 29 15.0039Z" fill="white"/>
</mask>
<g mask="url(#mask0_8059_365050)">
<path d="M29 0.00390625H0V30.0039H29V0.00390625Z" fill="#100943"/>
<path d="M29 15.0039C37.0082 15.0039 43.5 8.28818 43.5 0.00391167C43.5 -8.28037 37.0082 -14.9961 29 -14.9961C20.9919 -14.9961 14.5 -8.28037 14.5 0.00391167C14.5 8.28818 20.9919 15.0039 29 15.0039Z" fill="#ED143B"/>
<path d="M17.9121 14.319H9.34442V10.8118H17.9121C18.4125 10.8118 18.7605 10.902 18.9351 11.0596C19.1098 11.2172 19.2179 11.5095 19.2179 11.9364V13.1957C19.2179 13.6456 19.1098 13.9379 18.9351 14.0955C18.7605 14.253 18.4125 14.3204 17.9121 14.3204V14.319ZM18.4998 7.50525H5.71094V22.5039H9.34442V17.6242H16.0406L19.2179 22.5039H23.2867L19.7835 17.6013C21.0751 17.4033 21.655 16.9939 22.1333 16.3191C22.6116 15.6443 22.8515 14.5655 22.8515 13.1257V12.0011C22.8515 11.1472 22.764 10.4724 22.6116 9.9552C22.4591 9.438 22.1985 8.98816 21.8283 8.58409C21.4374 8.20159 21.0021 7.9322 20.4795 7.75172C19.9569 7.59416 19.3039 7.50391 18.4998 7.50391V7.50525Z" fill="white"/>
</g>
</g>
<defs>
<clipPath id="clip0_8059_365050">
<rect width="29" height="30" fill="white"/>
</clipPath>
</defs>
</svg>
