<svg width="5" height="9" viewBox="0 0 5 9" fill="none" xmlns="http://www.w3.org/2000/svg">
<path d="M2.24721 6.42404C2.08633 6.42404 1.95622 6.29393 1.95622 6.13305C1.95622 5.75244 2.01021 5.42366 2.11764 5.14725C2.19646 4.93886 2.32441 4.72885 2.50041 4.51668C2.62998 4.36228 2.86212 4.13661 3.19792 3.84076C3.53372 3.54438 3.75182 3.30845 3.85278 3.13246C3.95373 2.95646 4.0034 2.76427 4.0034 2.55588C4.0034 2.17851 3.85602 1.84757 3.56179 1.56198C3.26756 1.27639 2.90639 1.13386 2.47881 1.13386C2.06581 1.13386 1.72084 1.26343 1.44443 1.52203C1.24251 1.71098 1.09081 1.97768 0.990396 2.32211C0.921293 2.55858 0.690768 2.70974 0.446208 2.68059C0.136323 2.64388 -0.067747 2.33723 0.0207915 2.0376C0.156838 1.5771 0.384663 1.20621 0.703725 0.924394C1.14696 0.53191 1.73325 0.335938 2.46262 0.335938C3.23463 0.335938 3.85062 0.545946 4.31059 0.966504C4.77056 1.38706 5 1.89508 5 2.49109C5 2.83607 4.91902 3.15405 4.7576 3.4445C4.59618 3.73549 4.27982 4.0891 3.80959 4.50588C3.49377 4.78607 3.287 4.99284 3.18982 5.12565C3.09264 5.25846 3.02084 5.41124 2.97441 5.58346C2.93986 5.71141 2.91611 5.89928 2.90315 6.146C2.89505 6.30149 2.76602 6.4235 2.61054 6.4235H2.24721V6.42404ZM1.90223 7.8169C1.90223 7.51187 2.14949 7.26461 2.45452 7.26461C2.75955 7.26461 3.00681 7.51187 3.00681 7.8169C3.00681 8.12192 2.75955 8.36918 2.45452 8.36918C2.14949 8.36918 1.90223 8.12192 1.90223 7.8169Z" fill="#007657"/>
</svg>
