<svg width="6" height="9" viewBox="0 0 6 9" fill="none" xmlns="http://www.w3.org/2000/svg">
<path d="M2.39955 6.7504C2.23867 6.7504 2.10856 6.62083 2.10856 6.46062C2.10856 6.08159 2.16255 5.75417 2.26999 5.4789C2.34881 5.27137 2.47675 5.06223 2.65275 4.85094C2.78232 4.69718 3.01446 4.47245 3.35026 4.17782C3.68606 3.88266 3.90417 3.64772 4.00512 3.47245C4.10608 3.29718 4.15575 3.10578 4.15575 2.89825C4.15575 2.52245 4.00836 2.19288 3.71413 1.90847C3.4199 1.62406 3.05873 1.48212 2.63116 1.48212C2.21816 1.48212 1.87318 1.61116 1.59677 1.86868C1.39486 2.05685 1.24316 2.32245 1.14274 2.66546C1.07364 2.90094 0.843112 3.05148 0.598552 3.02245C0.288667 2.98589 0.0845968 2.68051 0.173135 2.38212C0.309182 1.92352 0.537007 1.55417 0.856069 1.27352C1.2993 0.882661 1.8856 0.6875 2.61496 0.6875C3.38697 0.6875 4.00296 0.89664 4.46293 1.31546C4.9229 1.73427 5.15234 2.24019 5.15234 2.83374C5.15234 3.17728 5.07136 3.49395 4.90994 3.7832C4.74852 4.07298 4.43216 4.42513 3.96193 4.84019C3.64611 5.11922 3.43934 5.32513 3.34216 5.45739C3.24499 5.58965 3.17319 5.7418 3.12676 5.91331C3.09221 6.04073 3.06845 6.22782 3.05549 6.47352C3.0474 6.62836 2.91837 6.74987 2.76289 6.74987H2.39955V6.7504ZM2.05458 8.1375C2.05458 7.83374 2.30184 7.5875 2.60686 7.5875C2.91189 7.5875 3.15915 7.83374 3.15915 8.1375C3.15915 8.44126 2.91189 8.6875 2.60686 8.6875C2.30184 8.6875 2.05458 8.44126 2.05458 8.1375Z" fill="#F87740"/>
</svg>
