<svg width="20" height="20" viewBox="0 0 20 20" fill="none" xmlns="http://www.w3.org/2000/svg">
<path d="M13.7574 16H3.49755C3.22276 16 3 15.7824 3 15.5139V7.57426C3 7.3058 3.22276 7.08816 3.49755 7.08816H5.79262C6.3752 7.08816 6.91505 6.78953 7.21478 6.30148L9.46239 2.64165C9.94742 1.85195 11.0897 1.77688 11.6786 2.49602C11.9561 2.83499 12.0456 3.28552 11.9179 3.70131L11.0701 6.46238C10.9743 6.77427 11.2134 7.08816 11.5466 7.08816H15.3406C16.4341 7.08816 17.2284 8.10411 16.9406 9.13481L15.3575 14.806C15.1607 15.511 14.5053 16 13.7574 16Z" fill="#007657" stroke="#717171" stroke-width="0.833333" stroke-linecap="round"/>
<path d="M6 15V8V15Z" fill="#717171"/>
<path d="M6 15V8" stroke="#717171" stroke-width="0.833333" stroke-linecap="round" stroke-linejoin="round"/>
</svg>
