<svg width="32" height="44" viewBox="0 0 32 44" fill="none" xmlns="http://www.w3.org/2000/svg">
<path d="M16 0C11.7581 0.00504596 7.69132 1.7064 4.69182 4.73086C1.69232 7.75531 0.00500432 11.8559 0 16.1331C0 26.8396 14.3142 42.8437 14.9236 43.5198C15.06 43.6711 15.2261 43.7919 15.4115 43.8746C15.5969 43.9573 15.7973 44 16 44C16.2027 44 16.4031 43.9573 16.5885 43.8746C16.7739 43.7919 16.94 43.6711 17.0764 43.5198C17.6858 42.8437 32 26.8396 32 16.1331C31.995 11.8559 30.3077 7.75531 27.3082 4.73086C24.3087 1.7064 20.2419 0.00504596 16 0Z" fill="#007657"/>
<path d="M16 20.5625C18.3817 20.5625 20.3125 18.6317 20.3125 16.25C20.3125 13.8683 18.3817 11.9375 16 11.9375C13.6183 11.9375 11.6875 13.8683 11.6875 16.25C11.6875 18.6317 13.6183 20.5625 16 20.5625Z" fill="#F87740"/>
</svg>
