<svg width="134" height="16" viewBox="0 0 134 16" fill="none" xmlns="http://www.w3.org/2000/svg">
<g clip-path="url(#clip0_5898_443371)">
<path d="M16.7456 1.71194H10.0156V14.2909H16.7456V1.71194Z" fill="#FF5F00"/>
<path d="M10.4435 7.999C10.4382 6.79987 10.6978 5.61436 11.2037 4.52719C11.7097 3.44003 12.4496 2.47805 13.3705 1.71C12.0359 0.606824 10.359 0.00227651 8.6275 2.09622e-07C4.3775 -0.00099979 0.9375 3.576 0.9375 7.999C0.9375 12.42 4.3775 15.999 8.6275 15.999C10.3593 15.9962 12.0361 15.3909 13.3705 14.287C11.5975 12.843 10.4435 10.555 10.4435 7.999Z" fill="#EB001B"/>
<path d="M25.8275 8C25.8275 12.422 22.3875 16 18.1375 16C16.4059 15.9974 14.729 15.3925 13.3945 14.289C15.1885 12.822 16.3205 10.556 16.3205 8C16.326 6.80095 16.0666 5.61549 15.5607 4.52833C15.0549 3.44117 14.3152 2.47914 13.3945 1.711C14.7288 0.607682 16.4052 0.00278972 18.1365 0C22.3885 0 25.8275 3.6 25.8275 8Z" fill="#F79E1B"/>
</g>
<g clip-path="url(#clip1_5898_443371)">
<path d="M62.0495 2.01953C59.2255 2.01953 56.7025 3.49153 56.7025 6.21153C56.7025 9.33053 61.1785 9.54553 61.1785 11.1125C61.1785 11.7725 60.4265 12.3625 59.1425 12.3625C57.3195 12.3625 55.9575 11.5375 55.9575 11.5375L55.3755 14.2825C55.3755 14.2825 56.9445 14.9795 59.0275 14.9795C62.1145 14.9795 64.5445 13.4355 64.5445 10.6695C64.5445 7.37353 60.0495 7.16453 60.0495 5.70953C60.0495 5.19253 60.6665 4.62653 61.9475 4.62653C63.3915 4.62653 64.5705 5.22653 64.5705 5.22653L65.1405 2.57653C65.1405 2.57653 63.8595 2.01953 62.0515 2.01953H62.0495ZM36.2125 2.21953L36.1445 2.61953C36.1445 2.61953 37.3325 2.83853 38.4025 3.27453C39.7805 3.77453 39.8785 4.06553 40.1105 4.97053L42.6395 14.7735H46.0295L51.2495 2.21953H47.8695L44.5125 10.7545L43.1435 3.51953C43.0195 2.69153 42.3845 2.21953 41.6045 2.21953H36.2145H36.2125ZM52.6105 2.21953L49.9575 14.7735H53.1825L55.8255 2.21953H52.6105ZM70.5955 2.21953C69.8185 2.21953 69.4055 2.63853 69.1045 3.36953L64.3795 14.7735H67.7615L68.4155 12.8735H72.5355L72.9335 14.7735H75.9175L73.3145 2.21953H70.5955ZM71.0355 5.61153L72.0385 10.3215H69.3525L71.0355 5.61153Z" fill="#1434CB"/>
</g>
<g clip-path="url(#clip2_5898_443371)">
<path fill-rule="evenodd" clip-rule="evenodd" d="M119.988 7.87305V15H124.05V10.777H128.654C130.592 10.763 132.238 9.55705 132.859 7.87305H119.988Z" fill="#37A72E"/>
<path fill-rule="evenodd" clip-rule="evenodd" d="M119.449 2C119.686 4.913 122.513 7.213 125.967 7.213H133.031C133.083 6.946 133.111 6.67 133.111 6.388C133.111 3.975 131.112 2.018 128.641 2H119.449Z" fill="url(#paint0_linear_5898_443371)"/>
<path fill-rule="evenodd" clip-rule="evenodd" d="M113.435 7.144L113.439 7.137C113.461 7.09973 113.492 7.06882 113.529 7.0474C113.567 7.02598 113.609 7.0148 113.652 7.015C113.784 7.015 113.892 7.118 113.896 7.246V14.934H117.958V2H113.896C113.381 2.017 112.798 2.385 112.582 2.837L109.35 9.595C109.342 9.62218 109.329 9.64785 109.313 9.671V9.673C109.288 9.70848 109.253 9.73735 109.214 9.75719C109.176 9.77703 109.133 9.78726 109.089 9.787C109.018 9.78754 108.95 9.76008 108.9 9.71063C108.849 9.66118 108.82 9.59373 108.819 9.523V2H104.756V14.934H108.819V14.932C109.329 14.907 109.896 14.542 110.109 14.097L113.428 7.161C113.43 7.15522 113.433 7.14955 113.436 7.144H113.435ZM98.266 7.365L95.89 14.934H92.97L90.593 7.36C90.5807 7.29949 90.5477 7.24514 90.4997 7.20628C90.4518 7.16742 90.3917 7.14646 90.33 7.147C90.2951 7.1466 90.2604 7.15314 90.2281 7.16623C90.1957 7.17932 90.1662 7.1987 90.1414 7.22326C90.1165 7.24781 90.0968 7.27705 90.0834 7.30927C90.0699 7.3415 90.063 7.37608 90.063 7.411V14.934H86V2H90.525C91.273 2 92.056 2.565 92.275 3.262L94.252 9.564C94.35 9.878 94.51 9.878 94.608 9.564L96.585 3.262C96.804 2.565 97.587 2 98.335 2H102.859V14.934H98.797V7.408C98.797 7.264 98.677 7.148 98.529 7.148C98.4667 7.14764 98.4062 7.16916 98.3582 7.20882C98.3101 7.24848 98.2775 7.30375 98.266 7.365Z" fill="#37A72E"/>
</g>
<defs>
<linearGradient id="paint0_linear_5898_443371" x1="119.449" y1="4.607" x2="133.11" y2="4.607" gradientUnits="userSpaceOnUse">
<stop stop-color="#00A0E5"/>
<stop offset="1" stop-color="#0077C3"/>
</linearGradient>
<clipPath id="clip0_5898_443371">
<rect width="26" height="16" fill="white"/>
</clipPath>
<clipPath id="clip1_5898_443371">
<rect width="40" height="13" fill="white" transform="translate(36 2)"/>
</clipPath>
<clipPath id="clip2_5898_443371">
<rect width="48" height="13" fill="white" transform="translate(86 2)"/>
</clipPath>
</defs>
</svg>
