<svg width="26" height="16" viewBox="0 0 26 16" fill="none" xmlns="http://www.w3.org/2000/svg">
<g clip-path="url(#clip0_5898_443372)">
<path d="M16.7456 1.71194H10.0156V14.2909H16.7456V1.71194Z" fill="#FF5F00"/>
<path d="M10.4435 7.999C10.4382 6.79987 10.6978 5.61436 11.2037 4.52719C11.7097 3.44003 12.4496 2.47805 13.3705 1.71C12.0359 0.606824 10.359 0.00227651 8.6275 2.09622e-07C4.3775 -0.00099979 0.9375 3.576 0.9375 7.999C0.9375 12.42 4.3775 15.999 8.6275 15.999C10.3593 15.9962 12.0361 15.3909 13.3705 14.287C11.5975 12.843 10.4435 10.555 10.4435 7.999Z" fill="#EB001B"/>
<path d="M25.8275 8C25.8275 12.422 22.3875 16 18.1375 16C16.4059 15.9974 14.729 15.3925 13.3945 14.289C15.1885 12.822 16.3205 10.556 16.3205 8C16.326 6.80095 16.0666 5.61549 15.5607 4.52833C15.0549 3.44117 14.3152 2.47914 13.3945 1.711C14.7288 0.607682 16.4052 0.00278972 18.1365 0C22.3885 0 25.8275 3.6 25.8275 8Z" fill="#F79E1B"/>
</g>
<defs>
<clipPath id="clip0_5898_443372">
<rect width="26" height="16" fill="white"/>
</clipPath>
</defs>
</svg>
