<svg width="40" height="16" viewBox="0 0 40 16" fill="none" xmlns="http://www.w3.org/2000/svg">
<mask id="mask0_8757_147556" style="mask-type:alpha" maskUnits="userSpaceOnUse" x="0" y="0" width="40" height="16">
<rect width="40" height="16" fill="#D9D9D9"/>
</mask>
<g mask="url(#mask0_8757_147556)">
<path d="M26.0495 2.01953C23.2255 2.01953 20.7025 3.49153 20.7025 6.21153C20.7025 9.33053 25.1785 9.54553 25.1785 11.1125C25.1785 11.7725 24.4265 12.3625 23.1425 12.3625C21.3195 12.3625 19.9575 11.5375 19.9575 11.5375L19.3755 14.2825C19.3755 14.2825 20.9445 14.9795 23.0275 14.9795C26.1145 14.9795 28.5445 13.4355 28.5445 10.6695C28.5445 7.37353 24.0495 7.16453 24.0495 5.70953C24.0495 5.19253 24.6665 4.62653 25.9475 4.62653C27.3915 4.62653 28.5705 5.22653 28.5705 5.22653L29.1405 2.57653C29.1405 2.57653 27.8595 2.01953 26.0515 2.01953H26.0495ZM0.212531 2.21953L0.144531 2.61953C0.144531 2.61953 1.33253 2.83853 2.40253 3.27453C3.78053 3.77453 3.87853 4.06553 4.11053 4.97053L6.63953 14.7735H10.0295L15.2495 2.21953H11.8695L8.51253 10.7545L7.14353 3.51953C7.01953 2.69153 6.38453 2.21953 5.60453 2.21953H0.214531H0.212531ZM16.6105 2.21953L13.9575 14.7735H17.1825L19.8255 2.21953H16.6105ZM34.5955 2.21953C33.8185 2.21953 33.4055 2.63853 33.1045 3.36953L28.3795 14.7735H31.7615L32.4155 12.8735H36.5355L36.9335 14.7735H39.9175L37.3145 2.21953H34.5955ZM35.0355 5.61153L36.0385 10.3215H33.3525L35.0355 5.61153Z" fill="#1434CB"/>
</g>
</svg>
