<svg width="64" height="36" viewBox="0 0 64 36" fill="none" xmlns="http://www.w3.org/2000/svg">
<mask id="mask0_5898_443357" style="mask-type:luminance" maskUnits="userSpaceOnUse" x="2" y="1" width="61" height="34">
<path d="M2 1H62.2V35H2V1Z" fill="white"/>
</mask>
<g mask="url(#mask0_5898_443357)">
<path fill-rule="evenodd" clip-rule="evenodd" d="M13.6016 19.6992L17.7016 22.3992V27.4992L13.6016 34.9992V19.6992Z" fill="#62B22F"/>
<path fill-rule="evenodd" clip-rule="evenodd" d="M10.1 17.5L14.3 19.9L2 27.4L6 20.1L10.1 17.5Z" fill="#974995"/>
<path fill-rule="evenodd" clip-rule="evenodd" d="M29.4016 10.6H21.4016L17.7016 8.3L13.6016 1L29.4016 10.6Z" fill="#EE7024"/>
<path fill-rule="evenodd" clip-rule="evenodd" d="M13.6016 1L17.7016 8.3V18.3L13.6016 17V1Z" fill="#FBB61B"/>
<path fill-rule="evenodd" clip-rule="evenodd" d="M2 8.30078L6 15.7008V20.1008L2 27.4008V8.40078V8.30078Z" fill="#5A58A3"/>
<path fill-rule="evenodd" clip-rule="evenodd" d="M2 8.30078L29.3 25.2008H21.5L6 15.7008L2 8.30078Z" fill="#2188CB"/>
<path fill-rule="evenodd" clip-rule="evenodd" d="M21.4992 10.5996H29.3992L17.6992 17.7996V12.9996L21.4992 10.6996V10.5996Z" fill="#DA0954"/>
<path fill-rule="evenodd" clip-rule="evenodd" d="M44.1989 11.8004C44.6842 11.3579 45.2519 11.0153 45.8696 10.7923C46.4873 10.5692 47.1428 10.47 47.7989 10.5004L51.7989 10.4004C51.4989 11.3004 50.8989 12.1004 50.4989 12.9004H47.5989C46.3989 13.0004 45.1989 14.0004 45.0989 15.3004C46.1989 14.2004 47.9989 14.1004 49.4989 14.5004C50.4989 14.8004 51.2989 15.5004 51.6989 16.5004C51.9989 17.5004 51.9989 18.4004 51.7989 19.3004C51.6287 19.9177 51.3128 20.4851 50.8778 20.9549C50.4428 21.4248 49.9013 21.7833 49.2989 22.0004C47.9148 22.5316 46.383 22.5316 44.9989 22.0004C44.3419 21.7128 43.7631 21.2723 43.3108 20.7157C42.8586 20.159 42.5459 19.5024 42.3989 18.8004C42.0989 17.6004 42.0989 15.8004 42.3989 14.6004C42.7989 13.5004 43.3989 12.6004 44.1989 11.8004ZM47.5989 16.5004C46.7989 16.4004 45.9989 16.7004 45.5989 17.3004C44.8989 18.5004 45.8989 20.3004 47.3989 20.1004C49.0989 19.8004 49.5989 17.1004 47.5989 16.5004ZM36.5989 13.5004C38.0989 13.1004 39.8989 13.2004 41.1989 14.1004L39.8989 16.3004C39.2989 16.1004 38.6989 15.7004 37.9989 15.8004C37.2989 15.8004 36.4989 16.0004 35.9989 16.7004C35.7954 17.0312 35.6877 17.412 35.6877 17.8004C35.6877 18.1888 35.7954 18.5696 35.9989 18.9004C36.3989 19.6004 37.1989 19.9004 37.8989 19.9004C38.3989 19.9004 38.9989 19.8004 39.4989 19.6004L39.8989 19.5004C40.1989 20.2004 40.6989 20.8004 40.8989 21.5004C39.5989 22.3004 37.8989 22.5004 36.2989 22.1004C35.2989 21.8004 34.2989 21.1004 33.6989 20.2004C32.6989 18.7004 32.6989 16.6004 33.7989 15.2004C34.5149 14.3354 35.5011 13.7366 36.5989 13.5004ZM53.2989 13.5004H62.2989L62.1989 22.0004H59.1989V16.0004H56.3989V22.0004H53.3989V13.5004H53.2989Z" fill="#1B1537"/>
<path fill-rule="evenodd" clip-rule="evenodd" d="M17.7016 27.4992L21.5016 25.1992H29.3016L13.6016 34.9992L17.7016 27.4992Z" fill="#037F37"/>
</g>
</svg>
