<svg width="49" height="16" viewBox="0 0 49 16" fill="none" xmlns="http://www.w3.org/2000/svg">
<mask id="mask0_8757_147559" style="mask-type:alpha" maskUnits="userSpaceOnUse" x="0" y="0" width="49" height="16">
<rect width="49" height="16" fill="#D9D9D9"/>
</mask>
<g mask="url(#mask0_8757_147559)">
<path fill-rule="evenodd" clip-rule="evenodd" d="M34.9883 7.87305V15H39.0503V10.777H43.6543C45.5923 10.763 47.2383 9.55705 47.8593 7.87305H34.9883Z" fill="#37A72E"/>
<path fill-rule="evenodd" clip-rule="evenodd" d="M34.4492 2C34.6862 4.913 37.5132 7.213 40.9672 7.213H48.0312C48.0832 6.946 48.1112 6.67 48.1112 6.388C48.1112 3.975 46.1122 2.018 43.6412 2H34.4492Z" fill="url(#paint0_linear_8757_147559)"/>
<path fill-rule="evenodd" clip-rule="evenodd" d="M28.435 7.144L28.439 7.137C28.4606 7.09973 28.4917 7.06882 28.5291 7.0474C28.5665 7.02598 28.6089 7.0148 28.652 7.015C28.784 7.015 28.892 7.118 28.896 7.246V14.934H32.958V2H28.896C28.381 2.017 27.798 2.385 27.582 2.837L24.35 9.595C24.3419 9.62218 24.3294 9.64785 24.313 9.671V9.673C24.2877 9.70848 24.2532 9.73735 24.2144 9.75719C24.1756 9.77703 24.1326 9.78726 24.089 9.787C24.0183 9.78754 23.9502 9.76008 23.8996 9.71063C23.849 9.66118 23.8201 9.59373 23.819 9.523V2H19.756V14.934H23.819V14.932C24.329 14.907 24.896 14.542 25.109 14.097L28.428 7.161C28.4304 7.15522 28.4331 7.14955 28.436 7.144H28.435ZM13.266 7.365L10.89 14.934H7.97L5.593 7.36C5.5807 7.29949 5.54773 7.24514 5.49974 7.20628C5.45176 7.16742 5.39175 7.14646 5.33 7.147C5.29508 7.1466 5.26043 7.15314 5.22805 7.16623C5.19567 7.17932 5.16621 7.1987 5.14138 7.22326C5.11655 7.24781 5.09683 7.27705 5.08338 7.30927C5.06992 7.3415 5.063 7.37608 5.063 7.411V14.934H1V2H5.525C6.273 2 7.056 2.565 7.275 3.262L9.252 9.564C9.35 9.878 9.51 9.878 9.608 9.564L11.585 3.262C11.804 2.565 12.587 2 13.335 2H17.859V14.934H13.797V7.408C13.797 7.264 13.677 7.148 13.529 7.148C13.4667 7.14764 13.4062 7.16916 13.3582 7.20882C13.3101 7.24848 13.2775 7.30375 13.266 7.365Z" fill="#37A72E"/>
</g>
<defs>
<linearGradient id="paint0_linear_8757_147559" x1="34.4492" y1="4.607" x2="48.1102" y2="4.607" gradientUnits="userSpaceOnUse">
<stop stop-color="#00A0E5"/>
<stop offset="1" stop-color="#0077C3"/>
</linearGradient>
</defs>
</svg>
