<svg width="15" height="11" viewBox="0 0 15 11" fill="none" xmlns="http://www.w3.org/2000/svg">
<path d="M15 0C14.75 1.05556 14.4861 2.19444 14.2083 3.41667C13.9583 4.63889 13.7222 5.83334 13.5 7C13.2778 8.16667 13.0972 9.23611 12.9583 10.2083H8.45833L8.16667 9.75C8.41667 8.77778 8.73611 7.73611 9.125 6.625C9.51389 5.48611 9.94445 4.34722 10.4167 3.20833C10.8889 2.06945 11.3472 1 11.7917 0H15ZM6.79167 0C6.54167 1.05556 6.27778 2.19444 6 3.41667C5.72222 4.63889 5.47222 5.83334 5.25 7C5.02778 8.16667 4.84722 9.23611 4.70833 10.2083H0.25L0 9.75C0.25 8.77778 0.569445 7.73611 0.958333 6.625C1.34722 5.48611 1.76389 4.34722 2.20833 3.20833C2.68056 2.06945 3.13889 1 3.58333 0H6.79167Z" fill="#F87740"/>
</svg>
