<svg width="98" height="20" viewBox="0 0 98 20" fill="none" xmlns="http://www.w3.org/2000/svg">
<g clip-path="url(#clip0_6095_446768)">
<g clip-path="url(#clip1_6095_446768)">
<g clip-path="url(#clip2_6095_446768)">
<path fill-rule="evenodd" clip-rule="evenodd" d="M19 9.99964C19 4.47669 14.7468 0 9.5 0C4.25318 0 0 4.47698 0 9.99964C0 15.5224 4.25332 20 9.5 20C14.7467 20 19 15.5227 19 9.99964Z" fill="#CC1525"/>
<path fill-rule="evenodd" clip-rule="evenodd" d="M10.8947 5.55795H9.96839C8.24212 5.55795 7.35771 6.44203 7.35771 7.7055C7.35771 9.13708 7.98929 9.81059 9.25268 10.6945L10.3053 11.4106L7.27373 15.9577H5L7.73676 11.9155C6.1786 10.7789 5.29463 9.68408 5.29463 7.87361C5.29463 5.55795 6.89467 4 9.96839 4H13V16H10.8947V5.55795Z" fill="white"/>
<path fill-rule="evenodd" clip-rule="evenodd" d="M31 0C26.5815 0 23 3.58143 23 7.99988C23 10.2081 23.895 12.2077 25.3418 13.6555C26.7896 15.1038 30.1998 17.1997 30.3998 19.3998C30.4301 19.7299 30.6689 20 31 20C31.3311 20 31.5699 19.7299 31.6002 19.3998C31.8002 17.1997 35.2104 15.1038 36.6582 13.6555C38.1051 12.2077 39 10.2081 39 7.99988C39 3.58143 35.4185 0 31 0Z" fill="#CC1525"/>
<path fill-rule="evenodd" clip-rule="evenodd" d="M30.5 11C31.8809 11 33 9.65669 33 8.00027C33 6.34331 31.8809 5 30.5 5C29.1191 5 28 6.34331 28 8.00027C28 9.65669 29.1191 11 30.5 11Z" fill="white"/>
<path fill-rule="evenodd" clip-rule="evenodd" d="M90.1691 14.8809H89.0006V11.4256H90.2292C91.3105 11.4256 91.9448 11.9194 91.9448 13.1636C91.9448 14.4077 91.2436 14.8809 90.1691 14.8809ZM95.4766 6.11112V16.8961H98V6.11112H95.4766ZM86.4837 6.11112V16.8961H90.3159C92.7927 16.8961 94.5484 15.6114 94.5484 13.0757C94.5484 10.6749 92.9797 9.41085 90.3558 9.41085H89.0005V6.11076L86.4837 6.11112ZM85.0016 8.12609V6.11112H76.5564V8.12609H79.5208V16.8966H82.0376V8.12609H85.0016ZM71.3556 15.0912C70.0204 15.0912 69.3398 14.0024 69.3398 11.5139C69.3398 9.00537 70.0606 7.91661 71.4826 7.91661C72.8578 7.91661 73.5322 9.00537 73.5322 11.4937C73.5322 14.0024 72.8112 15.0912 71.3556 15.0912ZM69.1528 6.11112H66.8227V20H69.3398V15.6317C69.9806 16.5919 70.9083 17.106 71.9902 17.106C74.4403 17.106 76.1359 15.1178 76.1359 11.4935C76.1359 7.88912 74.4869 5.90142 72.1166 5.90142C70.9287 5.90142 69.9537 6.45574 69.2797 7.50381L69.1528 6.11112ZM62.2763 14.3204C61.9557 14.7936 61.3616 15.1791 60.4737 15.1791C59.4188 15.1791 58.8848 14.5774 58.8848 13.6576C58.8848 12.4338 59.7528 11.9875 61.9158 11.9875H62.2763V14.3204ZM64.7931 9.5396C64.7931 6.92954 63.4778 5.94211 60.8141 5.94211C59.1451 5.94211 57.8301 6.47648 57.0687 6.92954V9.05274C57.7431 8.53222 59.2252 7.97761 60.5203 7.97761C61.7221 7.97761 62.2763 8.40361 62.2763 9.56665V10.1617H61.869C58.0167 10.1617 56.3077 11.4532 56.3077 13.6375C56.3077 15.8216 57.6162 17.0456 59.5658 17.0456C61.0477 17.0456 61.682 16.5521 62.1692 16.038H62.2763C62.2961 16.315 62.3829 16.6802 62.4633 16.8967H64.9198C64.8331 16.0176 64.7931 15.1386 64.7931 14.2596V9.5396ZM53.2169 16.8971H56.2013L50.9738 9.07312L55.7139 2H53.11L48.557 8.85667V2H46V16.8965H48.557V9.90453L53.2169 16.8971Z" fill="#282828"/>
</g>
</g>
</g>
<defs>
<clipPath id="clip0_6095_446768">
<rect width="98" height="20" fill="white"/>
</clipPath>
<clipPath id="clip1_6095_446768">
<rect width="98" height="20" fill="white"/>
</clipPath>
<clipPath id="clip2_6095_446768">
<rect width="98" height="20" fill="white"/>
</clipPath>
</defs>
</svg>
