<svg width="19" height="19" viewBox="0 0 19 19" fill="none" xmlns="http://www.w3.org/2000/svg">
<g opacity="0.6" clip-path="url(#clip0_5898_458993)">
<path d="M9.5 11.875C10.8117 11.875 11.875 10.8117 11.875 9.5C11.875 8.18832 10.8117 7.125 9.5 7.125C8.18832 7.125 7.125 8.18832 7.125 9.5C7.125 10.8117 8.18832 11.875 9.5 11.875Z" stroke="#282828" stroke-width="1.5" stroke-linecap="round" stroke-linejoin="round"/>
<path d="M15.3557 11.8763C15.2503 12.1151 15.2189 12.38 15.2655 12.6368C15.312 12.8936 15.4345 13.1306 15.617 13.3171L15.6645 13.3646C15.8117 13.5117 15.9285 13.6863 16.0082 13.8785C16.0878 14.0707 16.1288 14.2768 16.1288 14.4848C16.1288 14.6929 16.0878 14.899 16.0082 15.0912C15.9285 15.2834 15.8117 15.458 15.6645 15.6051C15.5174 15.7523 15.3428 15.869 15.1506 15.9487C14.9584 16.0284 14.7523 16.0694 14.5443 16.0694C14.3362 16.0694 14.1302 16.0284 13.9379 15.9487C13.7457 15.869 13.5711 15.7523 13.4241 15.6051L13.3766 15.5576C13.19 15.375 12.953 15.2526 12.6962 15.206C12.4394 15.1595 12.1745 15.1909 11.9357 15.2963C11.7016 15.3967 11.5019 15.5633 11.3612 15.7757C11.2206 15.9881 11.1451 16.237 11.1441 16.4917V16.6263C11.1441 17.0462 10.9772 17.449 10.6803 17.7459C10.3834 18.0428 9.98065 18.2096 9.56073 18.2096C9.1408 18.2096 8.73808 18.0428 8.44114 17.7459C8.14421 17.449 7.9774 17.0462 7.9774 16.6263V16.5551C7.97127 16.293 7.88645 16.0389 7.73397 15.8257C7.58149 15.6125 7.36839 15.4501 7.1224 15.3596C6.88362 15.2543 6.61874 15.2228 6.36193 15.2694C6.10512 15.3159 5.86814 15.4384 5.68156 15.6209L5.63406 15.6684C5.48701 15.8156 5.31239 15.9324 5.12018 16.0121C4.92796 16.0917 4.72193 16.1328 4.51385 16.1328C4.30578 16.1328 4.09975 16.0917 3.90753 16.0121C3.71532 15.9324 3.54069 15.8156 3.39365 15.6684C3.24643 15.5213 3.12965 15.3467 3.04997 15.1545C2.97029 14.9623 2.92928 14.7563 2.92928 14.5482C2.92928 14.3401 2.97029 14.1341 3.04997 13.9419C3.12965 13.7496 3.24643 13.575 3.39365 13.428L3.44115 13.3805C3.62365 13.1939 3.74608 12.9569 3.79265 12.7001C3.83921 12.4433 3.80778 12.1784 3.7024 11.9396C3.60204 11.7055 3.43541 11.5058 3.22301 11.3651C3.01062 11.2245 2.76173 11.149 2.50698 11.148H2.3724C1.95247 11.148 1.54974 10.9812 1.25281 10.6842C0.955878 10.3873 0.789063 9.98456 0.789062 9.56463C0.789062 9.14471 0.955878 8.74198 1.25281 8.44505C1.54974 8.14812 1.95247 7.9813 2.3724 7.9813H2.44365C2.70568 7.97517 2.95982 7.89035 3.17301 7.73787C3.3862 7.58539 3.54859 7.3723 3.63906 7.1263C3.74445 6.88752 3.77588 6.62265 3.72932 6.36584C3.68275 6.10902 3.56032 5.87205 3.37781 5.68547L3.33031 5.63797C3.1831 5.49092 3.06631 5.3163 2.98663 5.12408C2.90695 4.93187 2.86594 4.72583 2.86594 4.51776C2.86594 4.30969 2.90695 4.10365 2.98663 3.91144C3.06631 3.71922 3.1831 3.5446 3.33031 3.39755C3.47736 3.25034 3.65198 3.13355 3.8442 3.05387C4.03641 2.97419 4.24245 2.93318 4.45052 2.93318C4.6586 2.93318 4.86463 2.97419 5.05684 3.05387C5.24906 3.13355 5.42368 3.25034 5.57073 3.39755L5.61823 3.44505C5.80481 3.62756 6.04178 3.74999 6.2986 3.79656C6.55541 3.84312 6.82028 3.81168 7.05906 3.7063H7.1224C7.35655 3.60595 7.55624 3.43932 7.6969 3.22692C7.83756 3.01452 7.91305 2.76563 7.91406 2.51089V2.3763C7.91406 1.95638 8.08088 1.55365 8.37781 1.25672C8.67474 0.959784 9.07747 0.792969 9.4974 0.792969C9.91732 0.792969 10.32 0.959784 10.617 1.25672C10.9139 1.55365 11.0807 1.95638 11.0807 2.3763V2.44755C11.0817 2.7023 11.1572 2.95119 11.2979 3.16359C11.4385 3.37598 11.6382 3.54261 11.8724 3.64297C12.1112 3.74835 12.376 3.77979 12.6329 3.73322C12.8897 3.68666 13.1266 3.56423 13.3132 3.38172L13.3607 3.33422C13.5078 3.18701 13.6824 3.07022 13.8746 2.99054C14.0668 2.91086 14.2729 2.86985 14.4809 2.86985C14.689 2.86985 14.895 2.91086 15.0873 2.99054C15.2795 3.07022 15.4541 3.18701 15.6011 3.33422C15.7484 3.48127 15.8651 3.65589 15.9448 3.8481C16.0245 4.04032 16.0655 4.24635 16.0655 4.45443C16.0655 4.6625 16.0245 4.86854 15.9448 5.06075C15.8651 5.25296 15.7484 5.42759 15.6011 5.57464L15.5536 5.62214C15.3711 5.80871 15.2487 6.04569 15.2021 6.3025C15.1556 6.55932 15.187 6.82419 15.2924 7.06297V7.1263C15.3927 7.36045 15.5594 7.56015 15.7718 7.70081C15.9842 7.84147 16.2331 7.91695 16.4878 7.91797H16.6224C17.0423 7.91797 17.445 8.08478 17.742 8.38172C18.0389 8.67865 18.2057 9.08138 18.2057 9.5013C18.2057 9.92123 18.0389 10.324 17.742 10.6209C17.445 10.9178 17.0423 11.0846 16.6224 11.0846H16.5511C16.2964 11.0857 16.0475 11.1611 15.8351 11.3018C15.6227 11.4425 15.4561 11.6422 15.3557 11.8763Z" stroke="#282828" stroke-width="1.5" stroke-linecap="round" stroke-linejoin="round"/>
</g>
<defs>
<clipPath id="clip0_5898_458993">
<rect width="19" height="19" fill="white"/>
</clipPath>
</defs>
</svg>
