<svg width="0" height="0">
	<symbol xmlns="http://www.w3.org/2000/svg" id="user" viewBox="0 0 16 18">
		<path d="M7.67871 11.0352C11.3059 11.0352 13.2774 13.0506 14.4189 14.2744C10.7977 18.2239 4.6144 18.2451 0.96875 14.3086C2.80509 12.0582 5.19043 11.0352 7.67871 11.0352Z" fill="none" stroke-width="1.5"/>
		<path d="M7.71777 0.75C9.14608 0.750082 10.3965 2.01301 10.3965 3.67383V4.89844C10.3962 6.55902 9.14594 7.82121 7.71777 7.82129C6.28942 7.82129 5.0393 6.5591 5.03906 4.89844V3.67383C5.03906 2.01293 6.28928 0.75 7.71777 0.75Z" fill="none" stroke-width="1.5"/>
	</symbol>

	<symbol xmlns="http://www.w3.org/2000/svg" id="favorite" viewBox="0 0 20 18">
		<path d="M14.0264 0.400391C15.2248 0.400496 16.383 0.882522 17.2764 1.75684L17.4512 1.93652C18.3663 2.92555 18.8857 4.27352 18.8857 5.68457C18.8856 9.73114 16.5467 12.7153 14.3135 14.6455C13.2069 15.5947 12.0124 16.4158 10.75 17.0957L10.2061 17.3779C9.81313 17.5727 9.68321 17.5949 9.65137 17.5977C9.56907 17.5899 9.49552 17.5705 9.41113 17.5361L9.07617 17.3779C7.79479 16.7395 6.57893 15.9574 5.44824 15.0449L4.96875 14.6455C2.73649 12.7154 0.400529 9.7322 0.400391 5.68457C0.400391 4.36173 0.855917 3.09412 1.66699 2.12598L1.83398 1.93652C2.74796 0.948788 3.9807 0.400663 5.25879 0.400391C5.94802 0.402158 6.62961 0.557655 7.26074 0.858398L7.52832 0.996094C8.23221 1.38682 8.8431 1.95458 9.30957 2.6543L9.64258 3.1543L9.97559 2.6543C10.3838 2.04197 10.9031 1.53131 11.498 1.15137L11.7578 0.996094C12.4615 0.605559 13.2389 0.402505 14.0264 0.400391ZM14.0264 1.49512C12.1627 1.49512 10.5664 2.87932 10.1455 4.67676L10.1094 4.85254H10.1084C10.09 4.95052 10.0491 5.03758 9.99316 5.10742L9.93262 5.17188C9.84656 5.24777 9.74366 5.28516 9.64258 5.28516C9.56672 5.2851 9.48982 5.26434 9.41992 5.22168L9.35254 5.17188C9.28732 5.11426 9.23474 5.03663 9.20215 4.94629L9.17676 4.85254L9.13965 4.67676C8.71873 2.87939 7.12338 1.49513 5.25977 1.49512C4.27879 1.49512 3.34158 1.88981 2.62695 2.58887L2.48633 2.7334C1.75774 3.52099 1.35352 4.58323 1.35352 5.68457C1.35365 8.99476 3.14739 11.575 5.1416 13.416L5.54199 13.7744L5.54395 13.7754C6.74922 14.8087 8.06559 15.6825 9.46484 16.3779L9.64258 16.4668L9.82129 16.3779C11.0446 15.7686 12.205 15.0237 13.2832 14.1553L13.7402 13.7754L13.7422 13.7744C15.8898 11.9142 17.9325 9.21449 17.9326 5.68457C17.9326 4.65183 17.5767 3.65351 16.9316 2.88379L16.7988 2.7334C16.0691 1.94482 15.0727 1.49523 14.0264 1.49512Z" stroke-width="0.8"/>
	</symbol>

	<symbol xmlns="http://www.w3.org/2000/svg" id="favorite2" viewBox="0 0 19 17">
		<path d="M13.8184 0.595703C14.9587 0.595747 16.0552 1.02041 16.8965 1.78223L17.0615 1.93848C17.9215 2.7985 18.4042 3.96539 18.4043 5.18164C18.4043 8.53237 16.441 11.0795 14.3955 12.8242L13.9873 13.1611C12.9084 14.0176 11.7437 14.7591 10.5117 15.373L9.98047 15.6279C9.68721 15.7624 9.55629 15.7994 9.51074 15.8096C9.45266 15.8034 9.39918 15.7921 9.33203 15.7666L9.01465 15.627C7.58622 14.9683 6.24143 14.1415 5.00977 13.1631H5.01074C2.82711 11.4163 0.595703 8.75694 0.595703 5.18164C0.595747 4.04133 1.02041 2.94478 1.78223 2.10352L1.93848 1.93848C2.79827 1.07868 3.96476 0.596008 5.18066 0.595703C5.83654 0.597285 6.48375 0.73523 7.08203 0.999023L7.33594 1.11914C8.0027 1.46163 8.5785 1.95818 9.0166 2.56641L9.5 3.2373L9.9834 2.56641C10.3668 2.03409 10.8559 1.58754 11.4189 1.25488L11.6641 1.11914C12.3306 0.77683 13.0691 0.597664 13.8184 0.595703ZM13.8184 1.13184C11.9143 1.13184 10.246 2.44288 9.80176 4.2002L9.7627 4.37207C9.75347 4.41751 9.73217 4.45948 9.70215 4.49414L9.66992 4.52637C9.62206 4.56548 9.56181 4.58691 9.5 4.58691C9.45361 4.58691 9.40812 4.57528 9.36816 4.55273L9.33008 4.52637C9.2944 4.49713 9.26664 4.45947 9.25 4.41699L9.2373 4.37207L9.19824 4.2002C8.754 2.44288 7.08567 1.13184 5.18164 1.13184C4.1747 1.13188 3.20679 1.50704 2.46387 2.17969L2.31738 2.31738C1.55786 3.07691 1.13188 4.10752 1.13184 5.18164C1.13184 8.30734 2.96147 10.7198 4.94727 12.416L5.3457 12.7461L5.34766 12.748C6.54815 13.7004 7.85876 14.5052 9.25098 15.1455L9.5 15.2598L9.74902 15.1455C10.9662 14.5845 12.1215 13.8979 13.1953 13.0977L13.6504 12.748L13.6523 12.7461C15.7842 11.0374 17.8682 8.51511 17.8682 5.18164C17.8681 4.1747 17.493 3.20679 16.8203 2.46387L16.6816 2.31738C15.9222 1.55816 14.8923 1.13188 13.8184 1.13184Z" fill="none" stroke-width="1.19137"/>
	</symbol>


	<symbol xmlns="http://www.w3.org/2000/svg" id="compare" viewBox="0 0 15 19">
		<path d="M1 11.2852L1 18.1423" fill="none" stroke-width="1.5" stroke-linecap="round"/>
		<path d="M5.28906 1L5.28906 18.1429" fill="none" stroke-width="1.5" stroke-linecap="round"/>
		<path d="M9.57031 7L9.57031 18.1429" fill="none" stroke-width="1.5" stroke-linecap="round"/>
		<path d="M13.8594 3.57031L13.8594 18.1417" fill="none" stroke-width="1.5" stroke-linecap="round"/>
	</symbol>

	<symbol xmlns="http://www.w3.org/2000/svg" id="compare2" viewBox="0 0 16 22">
		<path d="M2 13L2 20" fill="none" stroke-width="2.38275" stroke-linecap="round"/>
		<path d="M6 2L6 20" fill="none" stroke-width="2.38275" stroke-linecap="round"/>
		<path d="M10 8L10 20" fill="none" stroke-width="2.38275" stroke-linecap="round"/>
		<path d="M14 5L14 20" fill="none" stroke-width="2.38275" stroke-linecap="round"/>
	</symbol>

	<symbol xmlns="http://www.w3.org/2000/svg" id="cart" viewBox="0 0 19 18">
		<path d="M7.71387 0.400391H11.1426C11.8453 0.400417 12.5227 0.644474 13.0615 1.08594L13.2842 1.28711C13.8521 1.85506 14.1709 2.62554 14.1709 3.42871V5.54297H17.999L18.0977 5.55371L18.1914 5.58496C18.2216 5.59896 18.2501 5.61666 18.2764 5.63672L18.3477 5.7041C18.369 5.72932 18.388 5.75709 18.4033 5.78613L18.4395 5.87891C18.4483 5.91094 18.4544 5.94358 18.4561 5.97656L18.4502 6.0752L17.0938 14.2129C16.9758 14.9196 16.6111 15.5612 16.0645 16.0244C15.5178 16.4876 14.8249 16.7428 14.1084 16.7432H4.74805L4.48047 16.7314C3.94892 16.6842 3.43901 16.497 3.00293 16.1895L2.79102 16.0254C2.31255 15.6201 1.97373 15.0774 1.81738 14.4746L1.76172 14.2129L0.40625 6.0752C0.400831 6.0426 0.398707 6.00937 0.400391 5.97656L0.416016 5.87891C0.424873 5.84678 0.437626 5.81541 0.453125 5.78613L0.508789 5.7041C0.530089 5.67903 0.554069 5.65656 0.580078 5.63672L0.665039 5.58496C0.695106 5.57104 0.726622 5.5608 0.758789 5.55371L0.857422 5.54297H4.68555V3.42871C4.68555 2.7258 4.92942 2.04774 5.37109 1.50879L5.57227 1.28711C6.06935 0.790029 6.72156 0.483789 7.41504 0.415039L7.71387 0.400391ZM7.71387 1.31445C7.22327 1.31446 6.75023 1.48477 6.37402 1.79297L6.21875 1.93359C5.8223 2.33009 5.59961 2.86801 5.59961 3.42871V5.54297H10.2852C10.3762 5.54297 10.4644 5.57028 10.5391 5.62012L10.6084 5.67676C10.6941 5.76249 10.7422 5.87876 10.7422 6C10.7422 6.12124 10.6941 6.23751 10.6084 6.32324C10.5227 6.40892 10.4064 6.45703 10.2852 6.45703H1.39551L1.47363 6.92285L2.66406 14.0625C2.7361 14.494 2.93984 14.8911 3.24512 15.2002L3.38281 15.3271C3.71664 15.6101 4.12867 15.7816 4.56152 15.8203L4.74805 15.8281H14.1084C14.6087 15.8279 15.0929 15.6506 15.4746 15.3271C15.8084 15.0442 16.0452 14.6658 16.1543 14.2451L16.1934 14.0625L17.3828 6.92285L17.46 6.45703H13.7139C13.5926 6.45702 13.4763 6.40897 13.3906 6.32324C13.3049 6.23751 13.2568 6.12124 13.2568 6V3.42871C13.2568 2.9382 13.0864 2.46504 12.7783 2.08887L12.6377 1.93359C12.2412 1.53712 11.7033 1.31448 11.1426 1.31445H7.71387Z" stroke-width="0.8"/>
	</symbol>

	<symbol xmlns="http://www.w3.org/2000/svg" id="marker" viewBox="0 0 12 13">
		<path d="M10.5 5.92647C10.5 9.27206 6 12.1397 6 12.1397C6 12.1397 1.5 9.27206 1.5 5.92647C1.5 4.78565 1.97411 3.69155 2.81802 2.88487C3.66193 2.07819 4.80653 1.625 6 1.625C7.19347 1.625 8.33807 2.07819 9.18198 2.88487C10.0259 3.69155 10.5 4.78565 10.5 5.92647Z" fill="none" stroke-linecap="round" stroke-linejoin="round"/>
		<path d="M6 7.35983C6.82843 7.35983 7.5 6.71789 7.5 5.92601C7.5 5.13413 6.82843 4.49219 6 4.49219C5.17157 4.49219 4.5 5.13413 4.5 5.92601C4.5 6.71789 5.17157 7.35983 6 7.35983Z" fill="none" stroke-linecap="round" stroke-linejoin="round"/>
	</symbol>

	<symbol xmlns="http://www.w3.org/2000/svg" id="arrow1" viewBox="0 0 5 4">
		<path d="M2.5 4L4.66506 0.25H0.334936L2.5 4Z"/>
	</symbol>

	<symbol xmlns="http://www.w3.org/2000/svg" id="arrow2" viewBox="0 0 14 14">
		<path d="M7 1.34375L12.6569 7.0006M12.6569 7.0006H1.34315M12.6569 7.0006L7 12.6575" stroke-width="1.5" stroke-linecap="round" stroke-linejoin="round"/>
	</symbol>

	<symbol xmlns="http://www.w3.org/2000/svg" id="arrow3" viewBox="0 0 14 8">
		<path d="M13 1L7.34315 6.65685L1.68629 1" stroke-width="1.5" stroke-linecap="round" stroke-linejoin="round"/>
	</symbol>

	<symbol xmlns="http://www.w3.org/2000/svg" id="lupa" viewBox="0 0 15 17">
		<path d="M6.31559 1.73655C5.69356 1.73655 5.07762 1.87132 4.50293 2.13317C3.92825 2.39502 3.40608 2.77882 2.96624 3.26266C2.5264 3.74649 2.1775 4.32088 1.93946 4.95304C1.70141 5.5852 1.5789 6.26275 1.5789 6.94699C1.5789 7.63124 1.70141 8.30878 1.93946 8.94094C2.1775 9.5731 2.5264 10.1475 2.96624 10.6313C3.40608 11.1152 3.92825 11.499 4.50293 11.7608C5.07762 12.0227 5.69356 12.1574 6.31559 12.1574C7.57183 12.1574 8.77663 11.6085 9.66493 10.6313C10.5532 9.65418 11.0523 8.32889 11.0523 6.94699C11.0523 5.5651 10.5532 4.2398 9.66493 3.26266C8.77663 2.28551 7.57183 1.73655 6.31559 1.73655ZM7.32988e-09 6.94699C3.79452e-05 5.83904 0.240976 4.74716 0.702707 3.76248C1.16444 2.7778 1.83357 1.92888 2.65426 1.28656C3.47495 0.64425 4.4234 0.227172 5.42045 0.0701359C6.4175 -0.0869001 7.43423 0.0206611 8.3858 0.383843C9.33737 0.747025 10.1962 1.35529 10.8905 2.15789C11.5849 2.96048 12.0947 3.93412 12.3774 4.99755C12.66 6.06098 12.7074 7.18336 12.5155 8.27102C12.3235 9.35867 11.8979 10.3801 11.2741 11.2499L14.7627 15.0102C14.8368 15.09 14.8959 15.1851 14.9366 15.29C14.9773 15.395 14.9989 15.5077 15 15.6219C15.0011 15.736 14.9817 15.8492 14.943 15.9551C14.9044 16.0609 14.8471 16.1574 14.7745 16.2389C14.702 16.3205 14.6155 16.3855 14.5201 16.4303C14.4247 16.4751 14.3222 16.4987 14.2184 16.5C14.1147 16.5012 14.0118 16.4799 13.9155 16.4373C13.8193 16.3948 13.7316 16.3318 13.6575 16.252L10.1491 12.4683C9.21329 13.2546 8.09622 13.7374 6.92409 13.8623C5.75195 13.9871 4.57144 13.7489 3.51586 13.1746C2.46028 12.6004 1.57168 11.7129 0.950408 10.6125C0.329137 9.512 -5.67184e-05 8.24239 7.32988e-09 6.94699Z"/>
	</symbol>

	<symbol xmlns="http://www.w3.org/2000/svg" id="close" viewBox="0 0 11 11">
		<path d="M0.6875 0.6875L10.3125 10.3125" stroke-width="1.375" stroke-linecap="round"/>
		<path d="M10.3125 0.6875L0.6875 10.3125" stroke-width="1.375" stroke-linecap="round"/>
	</symbol>
</svg>