<svg width="0" height="0">
	<symbol xmlns="http://www.w3.org/2000/svg" id="user" viewBox="0 0 16 18">
		<path d="M7.67871 11.0352C11.3059 11.0352 13.2774 13.0506 14.4189 14.2744C10.7977 18.2239 4.6144 18.2451 0.96875 14.3086C2.80509 12.0582 5.19043 11.0352 7.67871 11.0352Z" fill="none" stroke-width="1.5"/>
		<path d="M7.71777 0.75C9.14608 0.750082 10.3965 2.01301 10.3965 3.67383V4.89844C10.3962 6.55902 9.14594 7.82121 7.71777 7.82129C6.28942 7.82129 5.0393 6.5591 5.03906 4.89844V3.67383C5.03906 2.01293 6.28928 0.75 7.71777 0.75Z" fill="none" stroke-width="1.5"/>
	</symbol>

	<symbol xmlns="http://www.w3.org/2000/svg" id="favorite" viewBox="0 0 20 18">
		<path d="M14.0264 0.400391C15.2248 0.400496 16.383 0.882522 17.2764 1.75684L17.4512 1.93652C18.3663 2.92555 18.8857 4.27352 18.8857 5.68457C18.8856 9.73114 16.5467 12.7153 14.3135 14.6455C13.2069 15.5947 12.0124 16.4158 10.75 17.0957L10.2061 17.3779C9.81313 17.5727 9.68321 17.5949 9.65137 17.5977C9.56907 17.5899 9.49552 17.5705 9.41113 17.5361L9.07617 17.3779C7.79479 16.7395 6.57893 15.9574 5.44824 15.0449L4.96875 14.6455C2.73649 12.7154 0.400529 9.7322 0.400391 5.68457C0.400391 4.36173 0.855917 3.09412 1.66699 2.12598L1.83398 1.93652C2.74796 0.948788 3.9807 0.400663 5.25879 0.400391C5.94802 0.402158 6.62961 0.557655 7.26074 0.858398L7.52832 0.996094C8.23221 1.38682 8.8431 1.95458 9.30957 2.6543L9.64258 3.1543L9.97559 2.6543C10.3838 2.04197 10.9031 1.53131 11.498 1.15137L11.7578 0.996094C12.4615 0.605559 13.2389 0.402505 14.0264 0.400391ZM14.0264 1.49512C12.1627 1.49512 10.5664 2.87932 10.1455 4.67676L10.1094 4.85254H10.1084C10.09 4.95052 10.0491 5.03758 9.99316 5.10742L9.93262 5.17188C9.84656 5.24777 9.74366 5.28516 9.64258 5.28516C9.56672 5.2851 9.48982 5.26434 9.41992 5.22168L9.35254 5.17188C9.28732 5.11426 9.23474 5.03663 9.20215 4.94629L9.17676 4.85254L9.13965 4.67676C8.71873 2.87939 7.12338 1.49513 5.25977 1.49512C4.27879 1.49512 3.34158 1.88981 2.62695 2.58887L2.48633 2.7334C1.75774 3.52099 1.35352 4.58323 1.35352 5.68457C1.35365 8.99476 3.14739 11.575 5.1416 13.416L5.54199 13.7744L5.54395 13.7754C6.74922 14.8087 8.06559 15.6825 9.46484 16.3779L9.64258 16.4668L9.82129 16.3779C11.0446 15.7686 12.205 15.0237 13.2832 14.1553L13.7402 13.7754L13.7422 13.7744C15.8898 11.9142 17.9325 9.21449 17.9326 5.68457C17.9326 4.65183 17.5767 3.65351 16.9316 2.88379L16.7988 2.7334C16.0691 1.94482 15.0727 1.49523 14.0264 1.49512Z" stroke-width="0.8"/>
	</symbol>

	<symbol xmlns="http://www.w3.org/2000/svg" id="favorite2" viewBox="0 0 19 17">
		<path d="M13.8184 0.595703C14.9587 0.595747 16.0552 1.02041 16.8965 1.78223L17.0615 1.93848C17.9215 2.7985 18.4042 3.96539 18.4043 5.18164C18.4043 8.53237 16.441 11.0795 14.3955 12.8242L13.9873 13.1611C12.9084 14.0176 11.7437 14.7591 10.5117 15.373L9.98047 15.6279C9.68721 15.7624 9.55629 15.7994 9.51074 15.8096C9.45266 15.8034 9.39918 15.7921 9.33203 15.7666L9.01465 15.627C7.58622 14.9683 6.24143 14.1415 5.00977 13.1631H5.01074C2.82711 11.4163 0.595703 8.75694 0.595703 5.18164C0.595747 4.04133 1.02041 2.94478 1.78223 2.10352L1.93848 1.93848C2.79827 1.07868 3.96476 0.596008 5.18066 0.595703C5.83654 0.597285 6.48375 0.73523 7.08203 0.999023L7.33594 1.11914C8.0027 1.46163 8.5785 1.95818 9.0166 2.56641L9.5 3.2373L9.9834 2.56641C10.3668 2.03409 10.8559 1.58754 11.4189 1.25488L11.6641 1.11914C12.3306 0.77683 13.0691 0.597664 13.8184 0.595703ZM13.8184 1.13184C11.9143 1.13184 10.246 2.44288 9.80176 4.2002L9.7627 4.37207C9.75347 4.41751 9.73217 4.45948 9.70215 4.49414L9.66992 4.52637C9.62206 4.56548 9.56181 4.58691 9.5 4.58691C9.45361 4.58691 9.40812 4.57528 9.36816 4.55273L9.33008 4.52637C9.2944 4.49713 9.26664 4.45947 9.25 4.41699L9.2373 4.37207L9.19824 4.2002C8.754 2.44288 7.08567 1.13184 5.18164 1.13184C4.1747 1.13188 3.20679 1.50704 2.46387 2.17969L2.31738 2.31738C1.55786 3.07691 1.13188 4.10752 1.13184 5.18164C1.13184 8.30734 2.96147 10.7198 4.94727 12.416L5.3457 12.7461L5.34766 12.748C6.54815 13.7004 7.85876 14.5052 9.25098 15.1455L9.5 15.2598L9.74902 15.1455C10.9662 14.5845 12.1215 13.8979 13.1953 13.0977L13.6504 12.748L13.6523 12.7461C15.7842 11.0374 17.8682 8.51511 17.8682 5.18164C17.8681 4.1747 17.493 3.20679 16.8203 2.46387L16.6816 2.31738C15.9222 1.55816 14.8923 1.13188 13.8184 1.13184Z" fill="none" stroke-width="1.19137"/>
	</symbol>


	<symbol xmlns="http://www.w3.org/2000/svg" id="compare" viewBox="0 0 15 19">
		<path d="M1 11.2852L1 18.1423" fill="none" stroke-width="1.5" stroke-linecap="round"/>
		<path d="M5.28906 1L5.28906 18.1429" fill="none" stroke-width="1.5" stroke-linecap="round"/>
		<path d="M9.57031 7L9.57031 18.1429" fill="none" stroke-width="1.5" stroke-linecap="round"/>
		<path d="M13.8594 3.57031L13.8594 18.1417" fill="none" stroke-width="1.5" stroke-linecap="round"/>
	</symbol>

	<symbol xmlns="http://www.w3.org/2000/svg" id="compare2" viewBox="0 0 16 22">
		<path d="M2 13L2 20" fill="none" stroke-width="2.38275" stroke-linecap="round"/>
		<path d="M6 2L6 20" fill="none" stroke-width="2.38275" stroke-linecap="round"/>
		<path d="M10 8L10 20" fill="none" stroke-width="2.38275" stroke-linecap="round"/>
		<path d="M14 5L14 20" fill="none" stroke-width="2.38275" stroke-linecap="round"/>
	</symbol>

	<symbol xmlns="http://www.w3.org/2000/svg" id="cart" viewBox="0 0 19 18">
		<path d="M7.71387 0.400391H11.1426C11.8453 0.400417 12.5227 0.644474 13.0615 1.08594L13.2842 1.28711C13.8521 1.85506 14.1709 2.62554 14.1709 3.42871V5.54297H17.999L18.0977 5.55371L18.1914 5.58496C18.2216 5.59896 18.2501 5.61666 18.2764 5.63672L18.3477 5.7041C18.369 5.72932 18.388 5.75709 18.4033 5.78613L18.4395 5.87891C18.4483 5.91094 18.4544 5.94358 18.4561 5.97656L18.4502 6.0752L17.0938 14.2129C16.9758 14.9196 16.6111 15.5612 16.0645 16.0244C15.5178 16.4876 14.8249 16.7428 14.1084 16.7432H4.74805L4.48047 16.7314C3.94892 16.6842 3.43901 16.497 3.00293 16.1895L2.79102 16.0254C2.31255 15.6201 1.97373 15.0774 1.81738 14.4746L1.76172 14.2129L0.40625 6.0752C0.400831 6.0426 0.398707 6.00937 0.400391 5.97656L0.416016 5.87891C0.424873 5.84678 0.437626 5.81541 0.453125 5.78613L0.508789 5.7041C0.530089 5.67903 0.554069 5.65656 0.580078 5.63672L0.665039 5.58496C0.695106 5.57104 0.726622 5.5608 0.758789 5.55371L0.857422 5.54297H4.68555V3.42871C4.68555 2.7258 4.92942 2.04774 5.37109 1.50879L5.57227 1.28711C6.06935 0.790029 6.72156 0.483789 7.41504 0.415039L7.71387 0.400391ZM7.71387 1.31445C7.22327 1.31446 6.75023 1.48477 6.37402 1.79297L6.21875 1.93359C5.8223 2.33009 5.59961 2.86801 5.59961 3.42871V5.54297H10.2852C10.3762 5.54297 10.4644 5.57028 10.5391 5.62012L10.6084 5.67676C10.6941 5.76249 10.7422 5.87876 10.7422 6C10.7422 6.12124 10.6941 6.23751 10.6084 6.32324C10.5227 6.40892 10.4064 6.45703 10.2852 6.45703H1.39551L1.47363 6.92285L2.66406 14.0625C2.7361 14.494 2.93984 14.8911 3.24512 15.2002L3.38281 15.3271C3.71664 15.6101 4.12867 15.7816 4.56152 15.8203L4.74805 15.8281H14.1084C14.6087 15.8279 15.0929 15.6506 15.4746 15.3271C15.8084 15.0442 16.0452 14.6658 16.1543 14.2451L16.1934 14.0625L17.3828 6.92285L17.46 6.45703H13.7139C13.5926 6.45702 13.4763 6.40897 13.3906 6.32324C13.3049 6.23751 13.2568 6.12124 13.2568 6V3.42871C13.2568 2.9382 13.0864 2.46504 12.7783 2.08887L12.6377 1.93359C12.2412 1.53712 11.7033 1.31448 11.1426 1.31445H7.71387Z" stroke-width="0.8"/>
	</symbol>

	<symbol xmlns="http://www.w3.org/2000/svg" id="marker" viewBox="0 0 12 13">
		<path d="M10.5 5.92647C10.5 9.27206 6 12.1397 6 12.1397C6 12.1397 1.5 9.27206 1.5 5.92647C1.5 4.78565 1.97411 3.69155 2.81802 2.88487C3.66193 2.07819 4.80653 1.625 6 1.625C7.19347 1.625 8.33807 2.07819 9.18198 2.88487C10.0259 3.69155 10.5 4.78565 10.5 5.92647Z" fill="none" stroke-linecap="round" stroke-linejoin="round"/>
		<path d="M6 7.35983C6.82843 7.35983 7.5 6.71789 7.5 5.92601C7.5 5.13413 6.82843 4.49219 6 4.49219C5.17157 4.49219 4.5 5.13413 4.5 5.92601C4.5 6.71789 5.17157 7.35983 6 7.35983Z" fill="none" stroke-linecap="round" stroke-linejoin="round"/>
	</symbol>

	<symbol xmlns="http://www.w3.org/2000/svg" id="arrow1" viewBox="0 0 5 4">
		<path d="M2.5 4L4.66506 0.25H0.334936L2.5 4Z"/>
	</symbol>

	<symbol xmlns="http://www.w3.org/2000/svg" id="arrow2" viewBox="0 0 14 14">
		<path d="M7 1.34375L12.6569 7.0006M12.6569 7.0006H1.34315M12.6569 7.0006L7 12.6575" stroke-width="1.5" stroke-linecap="round" stroke-linejoin="round"/>
	</symbol>

	<symbol xmlns="http://www.w3.org/2000/svg" id="arrow3" viewBox="0 0 14 8">
		<path d="M13 1L7.34315 6.65685L1.68629 1" stroke-width="1.5" stroke-linecap="round" stroke-linejoin="round"/>
	</symbol>
	
	<symbol xmlns="http://www.w3.org/2000/svg" id="arrow4" viewBox="0 0 9 12">
		<path d="M1 11L7 6L1 1" stroke-width="2" stroke-linecap="round"/>
	</symbol>
	
	<symbol xmlns="http://www.w3.org/2000/svg" id="arrow5" viewBox="0 0 6 10">
		<path d="M6 5L0.75 9.33013V0.669873L6 5Z"/>
	</symbol>


	<symbol xmlns="http://www.w3.org/2000/svg" id="lupa" viewBox="0 0 15 17">
		<path d="M6.31559 1.73655C5.69356 1.73655 5.07762 1.87132 4.50293 2.13317C3.92825 2.39502 3.40608 2.77882 2.96624 3.26266C2.5264 3.74649 2.1775 4.32088 1.93946 4.95304C1.70141 5.5852 1.5789 6.26275 1.5789 6.94699C1.5789 7.63124 1.70141 8.30878 1.93946 8.94094C2.1775 9.5731 2.5264 10.1475 2.96624 10.6313C3.40608 11.1152 3.92825 11.499 4.50293 11.7608C5.07762 12.0227 5.69356 12.1574 6.31559 12.1574C7.57183 12.1574 8.77663 11.6085 9.66493 10.6313C10.5532 9.65418 11.0523 8.32889 11.0523 6.94699C11.0523 5.5651 10.5532 4.2398 9.66493 3.26266C8.77663 2.28551 7.57183 1.73655 6.31559 1.73655ZM7.32988e-09 6.94699C3.79452e-05 5.83904 0.240976 4.74716 0.702707 3.76248C1.16444 2.7778 1.83357 1.92888 2.65426 1.28656C3.47495 0.64425 4.4234 0.227172 5.42045 0.0701359C6.4175 -0.0869001 7.43423 0.0206611 8.3858 0.383843C9.33737 0.747025 10.1962 1.35529 10.8905 2.15789C11.5849 2.96048 12.0947 3.93412 12.3774 4.99755C12.66 6.06098 12.7074 7.18336 12.5155 8.27102C12.3235 9.35867 11.8979 10.3801 11.2741 11.2499L14.7627 15.0102C14.8368 15.09 14.8959 15.1851 14.9366 15.29C14.9773 15.395 14.9989 15.5077 15 15.6219C15.0011 15.736 14.9817 15.8492 14.943 15.9551C14.9044 16.0609 14.8471 16.1574 14.7745 16.2389C14.702 16.3205 14.6155 16.3855 14.5201 16.4303C14.4247 16.4751 14.3222 16.4987 14.2184 16.5C14.1147 16.5012 14.0118 16.4799 13.9155 16.4373C13.8193 16.3948 13.7316 16.3318 13.6575 16.252L10.1491 12.4683C9.21329 13.2546 8.09622 13.7374 6.92409 13.8623C5.75195 13.9871 4.57144 13.7489 3.51586 13.1746C2.46028 12.6004 1.57168 11.7129 0.950408 10.6125C0.329137 9.512 -5.67184e-05 8.24239 7.32988e-09 6.94699Z"/>
	</symbol>

	<symbol xmlns="http://www.w3.org/2000/svg" id="close" viewBox="0 0 11 11">
		<path d="M0.6875 0.6875L10.3125 10.3125" stroke-width="1.375" stroke-linecap="round"/>
		<path d="M10.3125 0.6875L0.6875 10.3125" stroke-width="1.375" stroke-linecap="round"/>
	</symbol>

	<symbol xmlns="http://www.w3.org/2000/svg" id="ic_menu1" viewBox="0 0 24 24">
		<path d="M9.484 21H6.194C4.982 21 4 20.0082 4 18.7842V12.266C4.00074 11.7912 4.10194 11.322 4.29682 10.8899C4.49171 10.4577 4.77578 10.0726 5.13 9.76039L11.06 4.54405C11.4593 4.19322 11.9707 4 12.5 4C13.0293 4 13.5407 4.19322 13.94 4.54405L19.87 9.7614C20.2241 10.0735 20.5081 10.4585 20.703 10.8904C20.8978 11.3224 20.9991 11.7914 21 12.266V18.7842C21 19.3717 20.769 19.9351 20.3577 20.3506C19.9465 20.7662 19.3887 20.9997 18.807 21H15.79V14.3536C15.79 13.4366 15.054 12.6922 14.145 12.6922H11.13C10.221 12.6922 9.485 13.4366 9.485 14.3536L9.484 21ZM9.484 21H15.791" fill="none" stroke-width="1.5" stroke-linejoin="round"/>
	</symbol>

	<symbol xmlns="http://www.w3.org/2000/svg" id="ic_menu2" viewBox="0 0 24 24">
		<path d="M2 6C2 6.26522 1.89464 6.51957 1.70711 6.70711C1.51957 6.89464 1.26522 7 1 7C0.734784 7 0.48043 6.89464 0.292893 6.70711C0.105357 6.51957 0 6.26522 0 6C0 5.73478 0.105357 5.48043 0.292893 5.29289C0.48043 5.10536 0.734784 5 1 5C1.26522 5 1.51957 5.10536 1.70711 5.29289C1.89464 5.48043 2 5.73478 2 6ZM4 6C4 5.73478 4.10536 5.48043 4.29289 5.29289C4.48043 5.10536 4.73478 5 5 5H17C17.2652 5 17.5196 5.10536 17.7071 5.29289C17.8946 5.48043 18 5.73478 18 6C18 6.26522 17.8946 6.51957 17.7071 6.70711C17.5196 6.89464 17.2652 7 17 7H5C4.73478 7 4.48043 6.89464 4.29289 6.70711C4.10536 6.51957 4 6.26522 4 6ZM4 12C4 11.7348 4.10536 11.4804 4.29289 11.2929C4.48043 11.1054 4.73478 11 5 11H11.2929C11.5581 11 11.8125 11.1054 12 11.2929C12.1875 11.4804 12.2929 11.7348 12.2929 12C12.2929 12.2652 12.1875 12.5196 12 12.7071C11.8125 12.8946 11.5581 13 11.2929 13H5C4.73478 13 4.48043 12.8946 4.29289 12.7071C4.10536 12.5196 4 12.2652 4 12ZM5 17C4.73478 17 4.48043 17.1054 4.29289 17.2929C4.10536 17.4804 4 17.7348 4 18C4 18.2652 4.10536 18.5196 4.29289 18.7071C4.48043 18.8946 4.73478 19 5 19H11C11.2652 19 11.5196 18.8946 11.7071 18.7071C11.8946 18.5196 12 18.2652 12 18C12 17.7348 11.8946 17.4804 11.7071 17.2929C11.5196 17.1054 11.2652 17 11 17H5ZM1 13C1.26522 13 1.51957 12.8946 1.70711 12.7071C1.89464 12.5196 2 12.2652 2 12C2 11.7348 1.89464 11.4804 1.70711 11.2929C1.51957 11.1054 1.26522 11 1 11C0.734784 11 0.48043 11.1054 0.292893 11.2929C0.105357 11.4804 0 11.7348 0 12C0 12.2652 0.105357 12.5196 0.292893 12.7071C0.48043 12.8946 0.734784 13 1 13ZM2 18C2 18.2652 1.89464 18.5196 1.70711 18.7071C1.51957 18.8946 1.26522 19 1 19C0.734784 19 0.48043 18.8946 0.292893 18.7071C0.105357 18.5196 0 18.2652 0 18C0 17.7348 0.105357 17.4804 0.292893 17.2929C0.48043 17.1054 0.734784 17 1 17C1.26522 17 1.51957 17.1054 1.70711 17.2929C1.89464 17.4804 2 17.7348 2 18Z" stroke="none"/>
		<path d="M17.5 17C19.433 17 21 15.433 21 13.5C21 11.567 19.433 10 17.5 10C15.567 10 14 11.567 14 13.5C14 15.433 15.567 17 17.5 17Z" fill="none" stroke-linecap="round" stroke-linejoin="round"/>
		<path d="M23 19L21 17" fill="none" stroke-linecap="round" stroke-linejoin="round"/>
	</symbol>

	<symbol xmlns="http://www.w3.org/2000/svg" id="ic_menu3" viewBox="0 0 24 24">
		<path d="M9.77246 3.40039H13.2275C13.9382 3.40043 14.6226 3.64288 15.166 4.08105L15.3896 4.28125C15.9617 4.84435 16.2822 5.60691 16.2822 6.40039V8.5H20.1367C20.2049 8.50006 20.2725 8.51492 20.334 8.54297C20.3952 8.57098 20.4492 8.61131 20.4922 8.66113C20.5137 8.68617 20.5325 8.71356 20.5479 8.74219L20.584 8.83203C20.5927 8.86306 20.5979 8.89485 20.5996 8.92676L20.5938 9.02246L19.2275 17.0928C19.1239 17.7038 18.8304 18.2669 18.3896 18.7061L18.1914 18.8867C17.6402 19.3464 16.9403 19.5993 16.2158 19.5996H6.78418L6.51367 19.5879C5.97634 19.5409 5.46141 19.3552 5.02148 19.0498L4.80762 18.8867C4.3254 18.4846 3.98416 17.9475 3.82715 17.3516L3.77148 17.0928L2.40625 9.02246C2.40091 8.99075 2.39869 8.95868 2.40039 8.92676L2.41602 8.83203C2.42472 8.80096 2.43684 8.77073 2.45215 8.74219L2.50781 8.66113C2.5293 8.6362 2.55358 8.61362 2.58008 8.59375L2.66602 8.54297C2.69687 8.52889 2.72954 8.51792 2.7627 8.51074L2.86328 8.5H6.71777V6.40039C6.71777 5.70589 6.96344 5.03504 7.4082 4.50098L7.61035 4.28125C8.11112 3.78841 8.76907 3.48359 9.46973 3.41504L9.77246 3.40039ZM9.77246 4.2998C9.28066 4.29985 8.80541 4.4681 8.42676 4.77344L8.27051 4.91309C7.87099 5.30638 7.64551 5.84145 7.64551 6.40039V8.5H12.3633C12.457 8.5 12.5474 8.52756 12.623 8.57715L12.6934 8.63379C12.7796 8.71869 12.8271 8.83293 12.8271 8.9502C12.8271 9.0381 12.8006 9.12399 12.751 9.19727L12.6934 9.26562C12.6069 9.3507 12.4883 9.40039 12.3633 9.40039H3.40918L3.48828 9.86719L4.6875 16.9463C4.76039 17.3764 4.96663 17.7714 5.27441 18.0781L5.41211 18.2041C5.74807 18.4844 6.16255 18.6531 6.59668 18.6914L6.78418 18.7002H16.2158C16.6548 18.7 17.0821 18.5657 17.4395 18.3174L17.5879 18.2041C17.9241 17.9237 18.163 17.5478 18.2734 17.1289L18.3135 16.9463L19.5117 9.86719L19.5908 9.40039H15.8184C15.7246 9.40039 15.6343 9.37287 15.5586 9.32324L15.4883 9.26562C15.4022 9.18079 15.3545 9.06733 15.3545 8.9502V6.40039C15.3545 5.91118 15.1821 5.43993 14.8711 5.06641L14.7295 4.91309C14.3301 4.52003 13.7896 4.29986 13.2275 4.2998H9.77246Z" stroke-width="0.8"/>
	</symbol>

	<symbol xmlns="http://www.w3.org/2000/svg" id="ic_menu4" viewBox="0 0 24 24">
		<path d="M16.3184 3.40039C17.4954 3.40044 18.6351 3.88022 19.5146 4.75391L19.6865 4.93457C20.5879 5.92331 21.0996 7.2718 21.0996 8.68457C21.0995 12.4813 19.0726 15.342 17.0068 17.2744L16.5938 17.6484C15.5041 18.5971 14.3287 19.4183 13.0859 20.0977L12.5498 20.3789C12.3242 20.4924 12.1862 20.5486 12.1016 20.5762C12.0605 20.5895 12.0354 20.5953 12.0215 20.5977C12.0182 20.5982 12.0151 20.5973 12.0127 20.5977C11.9315 20.5903 11.8591 20.5717 11.7754 20.5371L11.4463 20.3789C10.1846 19.7408 8.98754 18.959 7.87402 18.0469L7.40137 17.6475C5.20322 15.7183 2.90053 12.7347 2.90039 8.68457C2.90039 7.36022 3.34966 6.09199 4.14844 5.12402L4.31348 4.93457C5.21343 3.94736 6.42543 3.40073 7.68066 3.40039C8.3578 3.40214 9.0278 3.55724 9.64844 3.85742L9.91113 3.99512C10.6037 4.38531 11.2063 4.95226 11.666 5.65234L12 6.16113L12.334 5.65234C12.7362 5.0398 13.2475 4.52889 13.833 4.14941L14.0889 3.99512C14.7809 3.60528 15.5448 3.40254 16.3184 3.40039ZM16.3184 4.49512C14.4748 4.49512 12.903 5.88419 12.4893 7.67871L12.4531 7.85352C12.4287 7.98556 12.3642 8.09769 12.2793 8.17383C12.1953 8.24903 12.0963 8.28516 12 8.28516C11.9037 8.28516 11.8047 8.24903 11.7207 8.17383C11.6569 8.11666 11.6046 8.03909 11.5723 7.94824L11.5469 7.85352C11.1976 5.9754 9.58452 4.49512 7.68164 4.49512C6.71152 4.49517 5.78568 4.89105 5.08105 5.59082L4.94336 5.73535C4.22518 6.52325 3.82715 7.58486 3.82715 8.68457C3.82728 11.9923 5.59328 14.5723 7.55859 16.4141L7.9541 16.7725L7.95508 16.7734C9.14283 17.8071 10.4411 18.6811 11.8203 19.377L12 19.4678L12.1807 19.377C13.3863 18.7674 14.5294 18.0218 15.5918 17.1533L16.043 16.7734L16.0439 16.7725C18.1608 14.9113 20.1727 12.2121 20.1729 8.68457C20.1729 7.65346 19.8231 6.65561 19.1875 5.88574L19.0566 5.73535C18.3373 4.94625 17.3532 4.49517 16.3184 4.49512Z" stroke-width="0.8"/>
	</symbol>

	<symbol xmlns="http://www.w3.org/2000/svg" id="ic_menu5" viewBox="0 0 24 24">
		<path d="M11.9658 14.25C15.4265 14.2501 17.3356 16.0063 18.4521 17.1191C14.9485 20.6099 9.02831 20.6285 5.50293 17.1455C7.26983 15.1634 9.56111 14.25 11.9658 14.25Z" fill="none" stroke-width="1.5"/>
		<path d="M12 4.25C13.5303 4.25 14.75 5.46695 14.75 6.92871V8.07129C14.75 9.53305 13.5303 10.75 12 10.75C10.4696 10.75 9.25 9.53307 9.25 8.07129V6.92871C9.25 5.46693 10.4696 4.25 12 4.25Z" fill="none" stroke-width="1.5"/>
	</symbol>

	<symbol xmlns="http://www.w3.org/2000/svg" id="view_list" viewBox="0 0 20 20">
		<path d="M4.5 6H18.5" stroke-linecap="round"/>
		<path d="M1.5 6H2.5" stroke-linecap="round"/>
		<path d="M4.5 10H18.5" stroke-linecap="round"/>
		<path d="M1.5 10H2.5" stroke-linecap="round"/>
		<path d="M4.5 14H18.5" stroke-linecap="round"/>
		<path d="M1.5 14H2.5" stroke-linecap="round"/>
	</symbol>

	<symbol xmlns="http://www.w3.org/2000/svg" id="view_grid" viewBox="0 0 20 20">
		<rect x="3.5" y="3.5" width="5.41665" height="5.41665" rx="0.5"/>
		<rect x="3.5" y="11.0781" width="5.41665" height="5.41665" rx="0.5"/>
		<rect x="11.0859" y="3.5" width="5.41665" height="5.41665" rx="0.5"/>
		<rect x="11.0859" y="11.0781" width="5.41665" height="5.41665" rx="0.5"/>
	</symbol>

	<symbol xmlns="http://www.w3.org/2000/svg" id="all_filter" viewBox="0 0 20 18">
		<path d="M18.3307 1.5H1.66406L8.33073 9.38333V14.8333L11.6641 16.5V9.38333L18.3307 1.5Z" stroke-width="1.5" stroke-linecap="round" stroke-linejoin="round"/>
	</symbol>

	<symbol xmlns="http://www.w3.org/2000/svg" id="copy" viewBox="0 0 15 15">
		<path d="M12.5 5.625H6.875C6.18464 5.625 5.625 6.18464 5.625 6.875V12.5C5.625 13.1904 6.18464 13.75 6.875 13.75H12.5C13.1904 13.75 13.75 13.1904 13.75 12.5V6.875C13.75 6.18464 13.1904 5.625 12.5 5.625Z" stroke-linecap="round" stroke-linejoin="round"/>
		<path d="M3.125 9.375H2.5C2.16848 9.375 1.85054 9.2433 1.61612 9.00888C1.3817 8.77446 1.25 8.45652 1.25 8.125V2.5C1.25 2.16848 1.3817 1.85054 1.61612 1.61612C1.85054 1.3817 2.16848 1.25 2.5 1.25H8.125C8.45652 1.25 8.77446 1.3817 9.00888 1.61612C9.2433 1.85054 9.375 2.16848 9.375 2.5V3.125" stroke-linecap="round" stroke-linejoin="round"/>
	</symbol>

	<symbol xmlns="http://www.w3.org/2000/svg" id="car" viewBox="0 0 23 23">
		<path d="M17.4463 12.332C18.7409 12.332 19.7891 13.3809 19.7891 14.6756C19.7891 15.9702 18.7402 17.0191 17.4463 17.0191C16.1531 17.0191 15.1035 15.9702 15.1035 14.6756C15.1035 13.3809 16.1531 12.332 17.4463 12.332ZM17.4463 15.3836C17.8354 15.3836 18.1543 15.0661 18.1543 14.6763C18.1543 14.2864 17.8354 13.969 17.4463 13.969C17.0579 13.969 16.7397 14.2864 16.7397 14.6763C16.7397 15.0661 17.0571 15.3836 17.4463 15.3836Z"/>
		<path d="M0.387661 12.755L0.770933 9.63765C0.846272 9.03933 1.36925 8.60047 1.97268 8.63339L2.81237 8.6802L5.41921 6.33156C5.67082 6.10554 5.99485 5.9812 6.33277 5.9812L11.6291 5.98047C12.8177 5.98047 13.9704 6.38642 14.8972 7.13102L17.8522 9.50526L21.826 10.4985C22.3366 10.6258 22.695 11.0852 22.695 11.6111V12.7565C22.8632 12.7558 23 12.8918 23 13.06V14.5748C23 14.7906 22.8252 14.9654 22.6094 14.9654H20.3661C20.3756 14.8681 20.3954 14.7753 20.3954 14.6758C20.3954 13.0469 19.0758 11.7288 17.4477 11.7288C15.8195 11.7288 14.5007 13.0469 14.5007 14.6758C14.5007 14.776 14.5212 14.8689 14.5307 14.9654H8.31862C8.3274 14.8681 8.34715 14.7753 8.34715 14.6758C8.34715 13.0469 7.02764 11.7288 5.40019 11.7288C3.77128 11.7288 2.45397 13.0469 2.45397 14.6758C2.45397 14.776 2.47299 14.8689 2.48322 14.9654H0.390587C0.174814 14.9654 0.000730515 14.7906 0.000730515 14.5748V13.1463C-0.00292587 12.9313 0.171886 12.755 0.387661 12.755ZM8.2484 8.9245L15.6374 9.29826L14.2228 8.16088C13.454 7.54282 12.4988 7.20636 11.5121 7.20636H8.2484V8.9245ZM7.02105 8.86233V7.20709H6.5405C6.37373 7.20709 6.21355 7.26853 6.08994 7.38044L4.58171 8.73798L7.02105 8.86233Z"/>
		<path d="M5.3994 12.332C6.69404 12.332 7.74219 13.3809 7.74219 14.6756C7.74219 15.9702 6.69331 17.0191 5.3994 17.0191C4.10549 17.0191 3.05661 15.9702 3.05661 14.6756C3.05661 13.3809 4.10549 12.332 5.3994 12.332ZM5.3994 15.3836C5.78925 15.3836 6.1067 15.0661 6.1067 14.6763C6.1067 14.2864 5.78925 13.969 5.3994 13.969C5.01101 13.969 4.6921 14.2864 4.6921 14.6763C4.6921 15.0661 5.01028 15.3836 5.3994 15.3836Z"/>
	</symbol>

	<symbol xmlns="http://www.w3.org/2000/svg" id="walk" viewBox="0 0 23 23">
		<path d="M16.0167 12.1302L14.0138 9.9208C13.8891 9.78326 13.7744 9.49985 13.7687 9.31405L13.695 7.02158V6.95516C13.695 6.60192 13.4075 6.31445 13.0543 6.31445H11.0937H10.3146C9.99892 6.31445 9.64675 6.53806 9.51241 6.8236L6.87311 12.4298C6.80007 12.5853 6.79281 12.7589 6.85261 12.9193C6.91241 13.0795 7.03201 13.2059 7.18898 13.2751L7.57789 13.4466C7.66076 13.4832 7.74918 13.5017 7.8408 13.5017C8.09217 13.5017 8.32624 13.3589 8.43751 13.1378L9.67387 10.6781V13.1504C9.66874 13.1647 9.66127 13.1777 9.65657 13.1923L7.56721 19.7356C7.48029 20.0081 7.50677 20.295 7.64196 20.5431C7.77715 20.7913 8.00354 20.969 8.2799 21.0435L8.41957 21.0813C8.51098 21.1061 8.60581 21.1187 8.70106 21.1187C9.1818 21.1187 9.61856 20.8024 9.76336 20.3492L11.7156 14.2351L12.408 15.9311C12.5769 16.3448 12.7593 17.0692 12.8063 17.5134L13.1376 20.636C13.1907 21.136 13.5861 21.4989 14.0777 21.4989C14.1582 21.4989 14.24 21.489 14.3205 21.4696L14.4613 21.4354C15.0217 21.2998 15.4176 20.724 15.3439 20.1523L14.8534 16.3448C14.791 15.861 14.5824 15.1035 14.3882 14.6561L13.7257 13.1303C13.7172 13.1105 13.705 13.0925 13.6952 13.0733V12.0394L14.889 13.2858C15.0078 13.4099 15.1667 13.4782 15.3363 13.4782C15.5078 13.4782 15.6679 13.4086 15.7871 13.2822L16.0079 13.0477C16.2441 12.7967 16.2482 12.3854 16.0167 12.1302Z"/>
		<path d="M11.8625 5.77247C13.0405 5.77247 13.9988 4.81418 13.9988 3.63613C13.9988 2.45829 13.0405 1.5 11.8625 1.5C10.6846 1.5 9.72656 2.45829 9.72656 3.63613C9.72635 4.81418 10.6846 5.77247 11.8625 5.77247Z"/>
	</symbol>

	<symbol xmlns="http://www.w3.org/2000/svg" id="share" viewBox="0 0 18 18">
		<path d="M15.2051 2.94612C15.2051 3.74327 14.5587 4.3898 13.7617 4.3898C12.9647 4.3898 12.3183 3.73959 12.3183 2.94612C12.3183 2.14898 12.9647 1.50245 13.7617 1.50245C14.5587 1.49878 15.2051 2.14898 15.2051 2.94612ZM2.94919 9.98816C2.15221 9.98816 1.50582 9.34163 1.50582 8.54449C1.50582 7.74735 2.15221 7.10082 2.94919 7.10082C3.74617 7.10082 4.39257 7.75102 4.39257 8.54449C4.39257 9.33796 3.7425 9.98816 2.94919 9.98816ZM16.5015 13.7682C16.5015 15.278 15.2785 16.5012 13.769 16.5012C12.2595 16.5012 11.0365 15.278 11.0365 13.7682C11.0365 12.2584 12.2595 11.0351 13.769 11.0351C15.2785 11.0351 16.5015 12.2584 16.5015 13.7682ZM10.8162 2.94612C10.8162 3.21796 10.8529 3.47878 10.9227 3.72857L5.11977 6.55714C4.57988 5.96571 3.80494 5.59837 2.94552 5.59837C1.32218 5.59837 0 6.92082 0 8.54449C0 10.1682 1.32218 11.4906 2.94552 11.4906C3.7425 11.4906 4.46603 11.171 4.9949 10.6567L9.68496 12.6478C9.5858 13.0041 9.53438 13.3824 9.53438 13.7718C9.53438 16.1045 11.4295 18 13.769 18C16.1049 18 18 16.1045 18 13.7682C18 11.4318 16.1049 9.53633 13.769 9.53633C12.355 9.53633 11.1063 10.2269 10.3387 11.2922L5.78086 9.35633C5.85432 9.09918 5.89472 8.82735 5.89472 8.54449C5.89472 8.32041 5.86901 8.1 5.82126 7.88694L11.6829 5.02898C12.2155 5.56163 12.95 5.89225 13.7617 5.89225C15.385 5.89225 16.7035 4.5698 16.7035 2.94612C16.7035 1.32245 15.385 0 13.7617 0C12.1383 0 10.8162 1.32245 10.8162 2.94612Z"/>
	</symbol>
</svg>