<svg width="48" height="46" viewBox="0 0 48 46" fill="none" xmlns="http://www.w3.org/2000/svg">
<path d="M23.0407 0.608345C23.4238 -0.202782 24.5728 -0.202782 24.961 0.608345L31.4061 14.1947C31.5593 14.5207 31.8709 14.7466 32.2283 14.7928L47.0746 16.7616C47.2739 16.7876 47.4618 16.87 47.6165 16.9991C47.7711 17.1282 47.8861 17.2987 47.9481 17.4909C48.0102 17.6831 48.0167 17.889 47.9669 18.0848C47.9172 18.2806 47.8132 18.4581 47.667 18.5969L36.8068 28.9593C36.6781 29.0818 36.5819 29.2348 36.527 29.4042C36.4722 29.5737 36.4604 29.7543 36.4928 29.9295L39.2199 44.7326C39.257 44.9312 39.2373 45.1362 39.1631 45.324C39.0888 45.5118 38.9631 45.6745 38.8005 45.7933C38.638 45.9121 38.4452 45.9821 38.2446 45.9952C38.044 46.0083 37.8439 45.9639 37.6674 45.8671L24.5039 38.6851C24.3483 38.6002 24.1741 38.5557 23.997 38.5557C23.82 38.5557 23.6457 38.6002 23.4901 38.6851L10.3318 45.8697C10.1553 45.9664 9.95515 46.0108 9.75457 45.9978C9.55399 45.9847 9.36121 45.9147 9.19863 45.7959C9.03605 45.6771 8.91033 45.5143 8.83609 45.3266C8.76186 45.1388 8.74214 44.9337 8.77923 44.7352L11.5038 29.9295C11.536 29.7543 11.5241 29.5738 11.4692 29.4044C11.4144 29.2349 11.3183 29.0819 11.1898 28.9593L0.329576 18.5969C0.184374 18.4575 0.0813079 18.2798 0.0322663 18.0841C-0.0167753 17.8884 -0.00979522 17.6828 0.0524009 17.491C0.114597 17.2991 0.229475 17.1288 0.383788 16.9998C0.538101 16.8707 0.725561 16.7881 0.924549 16.7616L15.7708 14.7928C15.9462 14.7696 16.113 14.7027 16.2561 14.5983C16.3993 14.4938 16.5142 14.3551 16.5905 14.1947L23.0407 0.608345Z" fill="#E9E9E9"/>
</svg>
