<svg width="19" height="18" viewBox="0 0 19 18" fill="none" xmlns="http://www.w3.org/2000/svg">
<path d="M9.12029 0.238048C9.2719 -0.0793493 9.72675 -0.0793493 9.88039 0.238048L12.4316 5.55445C12.4922 5.68201 12.6155 5.7704 12.7571 5.78848L18.6337 6.55887C18.7126 6.56906 18.787 6.60129 18.8482 6.6518C18.9094 6.70232 18.9549 6.76906 18.9795 6.84427C19.004 6.91948 19.0066 7.00006 18.9869 7.07667C18.9672 7.15327 18.926 7.22275 18.8682 7.27703L14.5694 11.3319C14.5184 11.3798 14.4803 11.4397 14.4586 11.506C14.4369 11.5723 14.4322 11.643 14.445 11.7116L15.5246 17.5041C15.5392 17.5818 15.5314 17.662 15.502 17.7355C15.4727 17.809 15.4229 17.8726 15.3585 17.9191C15.2942 17.9656 15.2179 17.993 15.1385 17.9981C15.0591 18.0032 14.9799 17.9859 14.91 17.948L9.69946 15.1376C9.63787 15.1044 9.5689 15.087 9.49882 15.087C9.42874 15.087 9.35977 15.1044 9.29818 15.1376L4.08966 17.949C4.01981 17.9869 3.94058 18.0042 3.86118 17.9991C3.78179 17.994 3.70548 17.9666 3.64112 17.9201C3.57677 17.8736 3.52701 17.81 3.49762 17.7365C3.46823 17.663 3.46043 17.5828 3.47511 17.5051L4.55361 11.7116C4.56632 11.643 4.56161 11.5724 4.5399 11.5061C4.51819 11.4398 4.48017 11.3799 4.42928 11.3319L0.130457 7.27703C0.0729812 7.22251 0.0321844 7.15296 0.0127721 7.07639C-0.00664023 6.99983 -0.00387727 6.91937 0.020742 6.84429C0.0453613 6.76922 0.090834 6.70259 0.151916 6.65209C0.212998 6.60159 0.287201 6.56927 0.365967 6.55887L6.24261 5.78848C6.31203 5.7794 6.37806 5.75324 6.43472 5.71237C6.49138 5.6715 6.53687 5.61722 6.56707 5.55445L9.12029 0.238048Z" fill="#FFA800"/>
</svg>
