<svg width="14" height="14" viewBox="0 0 14 14" fill="none" xmlns="http://www.w3.org/2000/svg">
<path d="M13.7793 10.5762C13.3259 9.70572 12.6527 9.00939 11.7794 8.50702C11.4425 8.31223 11.1244 8.21751 10.807 8.21751C10.6835 8.21751 10.5596 8.2324 10.438 8.2616C10.0348 8.35933 9.64757 8.54792 9.2542 8.83833C9.13 8.92998 8.97807 8.97641 8.80257 8.97641C8.58893 8.97641 8.35756 8.90307 8.19914 8.78505C7.04912 7.92773 6.07323 6.95192 5.2161 5.80205C5.04757 5.57574 4.91399 5.08379 5.16259 4.74684C5.45307 4.35339 5.64175 3.96612 5.73955 3.56233C5.84431 3.12719 5.76401 2.68867 5.49456 2.2225C4.99157 1.34815 4.2952 0.675025 3.42496 0.221651C3.14296 0.0746615 2.85439 0 2.56729 0C2.08716 0 1.63779 0.208547 1.26799 0.602697C0.928042 0.964455 0.627491 1.34752 0.280704 1.81136C-0.0367239 2.23634 -0.0105535 2.72658 0.0125838 3.15911L0.0131671 3.16833C0.0521311 3.71694 0.257061 4.36618 0.639624 5.1525C1.28681 6.48346 2.20604 7.74726 3.44958 9.016C3.70502 9.27684 4.72376 10.2956 4.98477 10.5511C6.25378 11.795 7.51758 12.7142 8.8483 13.3613C9.63482 13.7439 10.2839 13.9487 10.8326 13.9878L10.8418 13.9883C10.9547 13.9944 11.0754 14 11.1928 14H11.1929C11.4826 14 11.8577 13.9682 12.1896 13.7201C12.6535 13.3734 13.0367 13.0728 13.3979 12.7332C14.0313 12.139 14.1738 11.3326 13.7793 10.5762Z" fill="#007657"/>
</svg>
