<svg width="14" height="14" viewBox="0 0 14 14" fill="none" xmlns="http://www.w3.org/2000/svg">
<g clip-path="url(#clip0_6265_412280)">
<path d="M6.99999 0C3.14027 0 0 3.14027 0 6.99999C0 10.8597 3.14027 14 6.99999 14C10.8597 14 14 10.8597 14 6.99999C14 3.14027 10.8597 0 6.99999 0ZM1.52173 7.30434C1.35373 7.30434 1.21737 7.16799 1.21737 6.99999C1.21737 6.83199 1.35373 6.69563 1.52173 6.69563C1.68973 6.69563 1.82609 6.83199 1.82609 6.99999C1.82609 7.16799 1.68973 7.30434 1.52173 7.30434ZM6.99999 1.2174C7.16799 1.2174 7.30434 1.35376 7.30434 1.52176C7.30434 1.68976 7.16799 1.82609 6.99999 1.82609C6.83199 1.82609 6.69563 1.68973 6.69563 1.52173C6.69563 1.35373 6.83199 1.2174 6.99999 1.2174ZM6.99999 12.7826C6.83199 12.7826 6.69563 12.6462 6.69563 12.4782C6.69563 12.3102 6.83199 12.1739 6.99999 12.1739C7.16799 12.1739 7.30434 12.3102 7.30434 12.4782C7.30434 12.6462 7.16799 12.7826 6.99999 12.7826ZM6.99999 7.91303C6.60373 7.91303 6.26895 7.65798 6.14295 7.30434H2.73913C2.57113 7.30434 2.43477 7.16799 2.43477 6.99999C2.43477 6.83199 2.57113 6.69566 2.73913 6.69566H6.14295C6.16852 6.62444 6.19896 6.55628 6.24033 6.49479L5.23416 5.15321C5.13373 5.01868 5.16112 4.82817 5.29565 4.72714C5.42955 4.6267 5.62009 4.65287 5.72173 4.788L6.72973 6.132C6.81555 6.10583 6.90503 6.08694 6.99999 6.08694C7.50339 6.08694 7.91303 6.49659 7.91303 6.99999C7.91303 7.50339 7.50339 7.91303 6.99999 7.91303ZM12.4782 7.30434C12.3102 7.30434 12.1739 7.16799 12.1739 6.99999C12.1739 6.83199 12.3102 6.69563 12.4782 6.69563C12.6462 6.69563 12.7826 6.83199 12.7826 6.99999C12.7826 7.16799 12.6462 7.30434 12.4782 7.30434Z" fill="#007657"/>
<circle cx="7" cy="2" r="1" fill="#007657"/>
<circle cx="12" cy="7" r="1" fill="#007657"/>
<circle cx="7" cy="12" r="1" fill="#007657"/>
<ellipse cx="1.5" cy="7" rx="0.5" ry="1" fill="#007657"/>
</g>
<defs>
<clipPath id="clip0_6265_412280">
<rect width="14" height="14" fill="white"/>
</clipPath>
</defs>
</svg>
